Unageo-Italic-Black.ufo
<glyph name="exclam" format="2">
  <advance width="309"/>
  <unicode hex="0021"/>
  <outline>
    <contour>
      <point x="172" y="700" type="line"/>
      <point x="334" y="700" type="line"/>
      <point x="271" y="251" type="line"/>
      <point x="109" y="251" type="line"/>
    </contour>
    <contour>
      <point x="182" y="190" type="curve" smooth="yes"/>
      <point x="209" y="190"/>
      <point x="231" y="180"/>
      <point x="247" y="160" type="curve" smooth="yes"/>
      <point x="263" y="140"/>
      <point x="269" y="116"/>
      <point x="265" y="87" type="curve" smooth="yes"/>
      <point x="261" y="58"/>
      <point x="248" y="34"/>
      <point x="226" y="14" type="curve" smooth="yes"/>
      <point x="204" y="-6"/>
      <point x="180" y="-16"/>
      <point x="153" y="-16" type="curve" smooth="yes"/>
      <point x="126" y="-16"/>
      <point x="103" y="-6"/>
      <point x="87" y="14" type="curve" smooth="yes"/>
      <point x="71" y="34"/>
      <point x="65" y="58"/>
      <point x="69" y="87" type="curve" smooth="yes"/>
      <point x="73" y="116"/>
      <point x="86" y="140"/>
      <point x="108" y="160" type="curve" smooth="yes"/>
      <point x="130" y="180"/>
      <point x="155" y="190"/>
    </contour>
  </outline>
</glyph>
<glyph name="quotedbl" format="2">
  <advance width="554"/>
  <unicode hex="0022"/>
  <outline>
    <contour>
      <point x="426" y="716" type="line"/>
      <point x="620" y="716" type="line"/>
      <point x="552" y="440" type="line"/>
      <point x="406" y="440" type="line"/>
    </contour>
    <contour>
      <point x="192" y="716" type="line"/>
      <point x="386" y="716" type="line"/>
      <point x="318" y="440" type="line"/>
      <point x="172" y="440" type="line"/>
    </contour>
  </outline>
</glyph>
<glyph name="numbersign" format="2">
  <advance width="639"/>
  <unicode hex="0023"/>
  <outline>
    <contour>
      <point x="526" y="700" type="line"/>
      <point x="699" y="700" type="line"/>
      <point x="647" y="546" type="line"/>
      <point x="735" y="546" type="line"/>
      <point x="678" y="376" type="line"/>
      <point x="590" y="376" type="line"/>
      <point x="570" y="314" type="line"/>
      <point x="677" y="314" type="line"/>
      <point x="620" y="144" type="line"/>
      <point x="513" y="144" type="line"/>
      <point x="465" y="0" type="line"/>
      <point x="292" y="0" type="line"/>
      <point x="340" y="144" type="line"/>
      <point x="278" y="144" type="line"/>
      <point x="230" y="0" type="line"/>
      <point x="57" y="0" type="line"/>
      <point x="105" y="144" type="line"/>
      <point x="0" y="144" type="line"/>
      <point x="57" y="314" type="line"/>
      <point x="162" y="314" type="line"/>
      <point x="183" y="376" type="line"/>
      <point x="78" y="376" type="line"/>
      <point x="135" y="546" type="line"/>
      <point x="240" y="546" type="line"/>
      <point x="291" y="700" type="line"/>
      <point x="464" y="700" type="line"/>
      <point x="412" y="546" type="line"/>
      <point x="475" y="546" type="line"/>
    </contour>
    <contour>
      <point x="418" y="376" type="line"/>
      <point x="355" y="376" type="line"/>
      <point x="335" y="314" type="line"/>
      <point x="397" y="314" type="line"/>
    </contour>
  </outline>
</glyph>
<glyph name="dollar" format="2">
  <advance width="526"/>
  <unicode hex="0024"/>
  <outline>
    <contour>
      <point x="288" y="791" type="line"/>
      <point x="449" y="791" type="line"/>
      <point x="436" y="699" type="line"/>
      <point x="456" y="692"/>
      <point x="474" y="681"/>
      <point x="490" y="667" type="curve" smooth="yes"/>
      <point x="526" y="637"/>
      <point x="547" y="599"/>
      <point x="552" y="552" type="curve"/>
      <point x="390" y="508" type="line"/>
      <point x="389" y="518"/>
      <point x="383" y="527"/>
      <point x="373" y="533" type="curve" smooth="yes"/>
      <point x="363" y="539"/>
      <point x="351" y="542"/>
      <point x="336" y="542" type="curve" smooth="yes"/>
      <point x="318" y="542"/>
      <point x="302" y="538"/>
      <point x="289" y="530" type="curve" smooth="yes"/>
      <point x="276" y="522"/>
      <point x="268" y="511"/>
      <point x="266" y="496" type="curve" smooth="yes"/>
      <point x="265" y="487"/>
      <point x="268" y="480"/>
      <point x="275" y="473" type="curve" smooth="yes"/>
      <point x="286" y="462"/>
      <point x="306" y="454"/>
      <point x="336" y="448" type="curve" smooth="yes"/>
      <point x="401" y="436"/>
      <point x="452" y="411"/>
      <point x="488" y="373" type="curve" smooth="yes"/>
      <point x="524" y="335"/>
      <point x="538" y="284"/>
      <point x="529" y="219" type="curve" smooth="yes"/>
      <point x="520" y="154"/>
      <point x="489" y="98"/>
      <point x="436" y="54" type="curve" smooth="yes"/>
      <point x="406" y="29"/>
      <point x="373" y="11"/>
      <point x="338" y="0" type="curve"/>
      <point x="325" y="-91" type="line"/>
      <point x="164" y="-91" type="line"/>
      <point x="177" y="2" type="line"/>
      <point x="156" y="10"/>
      <point x="136" y="21"/>
      <point x="118" y="36" type="curve" smooth="yes"/>
      <point x="79" y="68"/>
      <point x="57" y="109"/>
      <point x="51" y="159" type="curve"/>
      <point x="213" y="203" type="line"/>
      <point x="215" y="190"/>
      <point x="222" y="179"/>
      <point x="235" y="171" type="curve" smooth="yes"/>
      <point x="248" y="163"/>
      <point x="264" y="158"/>
      <point x="282" y="158" type="curve" smooth="yes"/>
      <point x="304" y="158"/>
      <point x="323" y="163"/>
      <point x="339" y="174" type="curve" smooth="yes"/>
      <point x="355" y="185"/>
      <point x="364" y="200"/>
      <point x="367" y="219" type="curve" smooth="yes"/>
      <point x="369" y="233"/>
      <point x="365" y="245"/>
      <point x="355" y="255" type="curve" smooth="yes"/>
      <point x="342" y="268"/>
      <point x="319" y="278"/>
      <point x="286" y="284" type="curve" smooth="yes"/>
      <point x="226" y="295"/>
      <point x="179" y="319"/>
      <point x="144" y="354" type="curve" smooth="yes"/>
      <point x="109" y="389"/>
      <point x="97" y="436"/>
      <point x="105" y="496" type="curve" smooth="yes"/>
      <point x="114" y="557"/>
      <point x="142" y="609"/>
      <point x="192" y="650" type="curve" smooth="yes"/>
      <point x="218" y="672"/>
      <point x="246" y="688"/>
      <point x="275" y="698" type="curve"/>
    </contour>
  </outline>
</glyph>
<glyph name="percent" format="2">
  <advance width="884"/>
  <unicode hex="0025"/>
  <outline>
    <contour>
      <point x="722" y="368" type="curve" smooth="yes"/>
      <point x="772" y="368"/>
      <point x="812" y="349"/>
      <point x="842" y="312" type="curve" smooth="yes"/>
      <point x="872" y="275"/>
      <point x="883" y="231"/>
      <point x="876" y="178" type="curve" smooth="yes"/>
      <point x="869" y="125"/>
      <point x="845" y="81"/>
      <point x="805" y="44" type="curve" smooth="yes"/>
      <point x="765" y="7"/>
      <point x="719" y="-12"/>
      <point x="669" y="-12" type="curve" smooth="yes"/>
      <point x="619" y="-12"/>
      <point x="579" y="7"/>
      <point x="549" y="44" type="curve" smooth="yes"/>
      <point x="519" y="81"/>
      <point x="508" y="125"/>
      <point x="515" y="178" type="curve" smooth="yes"/>
      <point x="522" y="231"/>
      <point x="547" y="275"/>
      <point x="587" y="312" type="curve" smooth="yes"/>
      <point x="627" y="349"/>
      <point x="672" y="368"/>
    </contour>
    <contour>
      <point x="699" y="198" type="curve" smooth="yes"/>
      <point x="694" y="198"/>
      <point x="688" y="196"/>
      <point x="684" y="192" type="curve" smooth="yes"/>
      <point x="680" y="188"/>
      <point x="678" y="183"/>
      <point x="677" y="178" type="curve" smooth="yes"/>
      <point x="676" y="173"/>
      <point x="677" y="168"/>
      <point x="680" y="164" type="curve" smooth="yes"/>
      <point x="683" y="160"/>
      <point x="688" y="158"/>
      <point x="693" y="158" type="curve" smooth="yes"/>
      <point x="698" y="158"/>
      <point x="703" y="160"/>
      <point x="707" y="164" type="curve" smooth="yes"/>
      <point x="711" y="168"/>
      <point x="714" y="173"/>
      <point x="715" y="178" type="curve" smooth="yes"/>
      <point x="716" y="183"/>
      <point x="714" y="188"/>
      <point x="711" y="192" type="curve" smooth="yes"/>
      <point x="708" y="196"/>
      <point x="704" y="198"/>
    </contour>
    <contour>
      <point x="676" y="700" type="line"/>
      <point x="795" y="602" type="line"/>
      <point x="309" y="0" type="line"/>
      <point x="191" y="98" type="line"/>
    </contour>
    <contour>
      <point x="314" y="712" type="curve" smooth="yes"/>
      <point x="364" y="712"/>
      <point x="404" y="693"/>
      <point x="434" y="656" type="curve" smooth="yes"/>
      <point x="464" y="619"/>
      <point x="475" y="575"/>
      <point x="468" y="522" type="curve" smooth="yes"/>
      <point x="461" y="469"/>
      <point x="436" y="425"/>
      <point x="396" y="388" type="curve" smooth="yes"/>
      <point x="356" y="351"/>
      <point x="310" y="332"/>
      <point x="260" y="332" type="curve" smooth="yes"/>
      <point x="210" y="332"/>
      <point x="170" y="351"/>
      <point x="140" y="388" type="curve" smooth="yes"/>
      <point x="110" y="425"/>
      <point x="100" y="469"/>
      <point x="107" y="522" type="curve" smooth="yes"/>
      <point x="114" y="575"/>
      <point x="138" y="619"/>
      <point x="178" y="656" type="curve" smooth="yes"/>
      <point x="218" y="693"/>
      <point x="264" y="712"/>
    </contour>
    <contour>
      <point x="290" y="542" type="curve" smooth="yes"/>
      <point x="285" y="542"/>
      <point x="280" y="540"/>
      <point x="276" y="536" type="curve" smooth="yes"/>
      <point x="272" y="532"/>
      <point x="269" y="527"/>
      <point x="268" y="522" type="curve" smooth="yes"/>
      <point x="267" y="517"/>
      <point x="269" y="512"/>
      <point x="272" y="508" type="curve" smooth="yes"/>
      <point x="275" y="504"/>
      <point x="279" y="502"/>
      <point x="284" y="502" type="curve" smooth="yes"/>
      <point x="289" y="502"/>
      <point x="294" y="504"/>
      <point x="298" y="508" type="curve" smooth="yes"/>
      <point x="302" y="512"/>
      <point x="305" y="517"/>
      <point x="306" y="522" type="curve" smooth="yes"/>
      <point x="307" y="527"/>
      <point x="305" y="532"/>
      <point x="302" y="536" type="curve" smooth="yes"/>
      <point x="299" y="540"/>
      <point x="295" y="542"/>
    </contour>
  </outline>
</glyph>
<glyph name="ampersand" format="2">
  <advance width="635"/>
  <unicode hex="0026"/>
  <outline>
    <contour>
      <point x="238.1" y="-12" type="curve" smooth="yes"/>
      <point x="178.974" y="-12.0117"/>
      <point x="132.445" y="5.90332"/>
      <point x="98.5156" y="41.7441" type="curve" smooth="yes"/>
      <point x="64.5859" y="77.585"/>
      <point x="52.2803" y="123.622"/>
      <point x="61.5967" y="179.855" type="curve" smooth="yes"/>
      <point x="67.752" y="217.009"/>
      <point x="81.8926" y="253.985"/>
      <point x="104.019" y="290.786" type="curve" smooth="yes"/>
      <point x="126.146" y="327.587"/>
      <point x="153.594" y="356.315"/>
      <point x="186.366" y="376.972" type="curve" smooth="yes"/>
      <point x="218.744" y="397.38"/>
      <point x="261.103" y="420.501"/>
      <point x="313.441" y="446.336" type="curve" smooth="yes"/>
      <point x="338.407" y="458.659"/>
      <point x="358.25" y="468.714"/>
      <point x="372.97" y="476.5" type="curve" smooth="yes"/>
      <point x="390.069" y="485.545"/>
      <point x="399.591" y="496.2"/>
      <point x="401.533" y="508.465" type="curve" smooth="yes"/>
      <point x="402.913" y="517.18"/>
      <point x="400.89" y="524.876"/>
      <point x="395.463" y="531.555" type="curve" smooth="yes"/>
      <point x="390.036" y="538.233"/>
      <point x="381.433" y="541.572"/>
      <point x="369.652" y="541.572" type="curve" smooth="yes"/>
      <point x="357.733" y="541.572"/>
      <point x="347.966" y="538.363"/>
      <point x="340.351" y="531.946" type="curve" smooth="yes"/>
      <point x="332.734" y="525.528"/>
      <point x="328.221" y="517.866"/>
      <point x="326.811" y="508.959" type="curve" smooth="yes"/>
      <point x="324.498" y="494.362"/>
      <point x="330.021" y="477.042"/>
      <point x="343.382" y="457" type="curve" smooth="yes"/>
      <point x="648" y="0" type="line"/>
      <point x="428" y="0" type="line"/>
      <point x="197.019" y="360" type="line" smooth="yes"/>
      <point x="161.049" y="416.061"/>
      <point x="148.33" y="473.208"/>
      <point x="158.859" y="531.442" type="curve" smooth="yes"/>
      <point x="168.352" y="583.929"/>
      <point x="195.796" y="627.101"/>
      <point x="241.193" y="660.958" type="curve" smooth="yes"/>
      <point x="286.592" y="694.815"/>
      <point x="337.677" y="711.829"/>
      <point x="394.45" y="712" type="curve" smooth="yes"/>
      <point x="453.133" y="712.177"/>
      <point x="499.934" y="694.86"/>
      <point x="534.855" y="660.051" type="curve" smooth="yes"/>
      <point x="569.776" y="625.242"/>
      <point x="582.77" y="579.559"/>
      <point x="573.835" y="523" type="curve" smooth="yes"/>
      <point x="568.406" y="488.629"/>
      <point x="557.763" y="457.632"/>
      <point x="541.906" y="430.008" type="curve" smooth="yes"/>
      <point x="526.05" y="402.385"/>
      <point x="498.81" y="374.271"/>
      <point x="460.188" y="345.664" type="curve" smooth="yes"/>
      <point x="434.167" y="326.391"/>
      <point x="405.233" y="310.605"/>
      <point x="373.388" y="298.308" type="curve" smooth="yes"/>
      <point x="334.166" y="283.16"/>
      <point x="298.263" y="263.896"/>
      <point x="265.68" y="240.515" type="curve" smooth="yes"/>
      <point x="248.56" y="228.23"/>
      <point x="238.038" y="216.724"/>
      <point x="234.116" y="205.996" type="curve" smooth="yes"/>
      <point x="230.138" y="195.116"/>
      <point x="229.091" y="185.095"/>
      <point x="230.975" y="175.93" type="curve" smooth="yes"/>
      <point x="232.064" y="170.628"/>
      <point x="235.021" y="166.379"/>
      <point x="239.846" y="163.183" type="curve" smooth="yes"/>
      <point x="247.01" y="158.436"/>
      <point x="258.293" y="156.012"/>
      <point x="273.694" y="155.911" type="curve" smooth="yes"/>
      <point x="291.322" y="155.797"/>
      <point x="312.013" y="159.826"/>
      <point x="335.765" y="168" type="curve" smooth="yes"/>
      <point x="374.077" y="181.185"/>
      <point x="410.815" y="198.783"/>
      <point x="445.98" y="220.798" type="curve" smooth="yes"/>
      <point x="481.146" y="242.812"/>
      <point x="507.499" y="268.213"/>
      <point x="525.04" y="297" type="curve"/>
      <point x="695.04" y="297" type="line"/>
      <point x="668.897" y="213.271"/>
      <point x="610.839" y="139.671"/>
      <point x="520.864" y="76.1973" type="curve" smooth="yes"/>
      <point x="478.537" y="46.3379"/>
      <point x="432.589" y="24.1758"/>
      <point x="383.019" y="9.71094" type="curve" smooth="yes"/>
      <point x="333.448" y="-4.75391"/>
      <point x="285.142" y="-11.9912"/>
    </contour>
  </outline>
</glyph>
<glyph name="quotesingle" format="2">
  <advance width="298"/>
  <unicode hex="0027"/>
  <outline>
    <contour>
      <point x="158" y="716" type="line"/>
      <point x="342" y="716" type="line"/>
      <point x="280" y="440" type="line"/>
      <point x="142" y="440" type="line"/>
    </contour>
  </outline>
</glyph>
<glyph name="parenleft" format="2">
  <advance width="370"/>
  <unicode hex="0028"/>
  <outline>
    <contour>
      <point x="337" y="799" type="curve"/>
      <point x="446" y="685" type="line"/>
      <point x="399" y="639"/>
      <point x="359" y="587"/>
      <point x="329" y="529" type="curve" smooth="yes"/>
      <point x="299" y="471"/>
      <point x="279" y="411"/>
      <point x="269" y="350" type="curve" smooth="yes"/>
      <point x="260" y="292"/>
      <point x="261" y="235"/>
      <point x="271" y="180" type="curve" smooth="yes"/>
      <point x="281" y="125"/>
      <point x="301" y="74"/>
      <point x="330" y="29" type="curve"/>
      <point x="194" y="-99" type="line"/>
      <point x="150" y="-36"/>
      <point x="120" y="33"/>
      <point x="104" y="110" type="curve" smooth="yes"/>
      <point x="88" y="187"/>
      <point x="86" y="268"/>
      <point x="99" y="350" type="curve" smooth="yes"/>
      <point x="112" y="432"/>
      <point x="139" y="513"/>
      <point x="180" y="590" type="curve" smooth="yes"/>
      <point x="221" y="667"/>
      <point x="273" y="736"/>
    </contour>
  </outline>
</glyph>
<glyph name="parenright" format="2">
  <advance width="370"/>
  <unicode hex="0029"/>
  <outline>
    <contour>
      <point x="287" y="799" type="curve"/>
      <point x="331" y="736"/>
      <point x="361" y="667"/>
      <point x="377" y="590" type="curve" smooth="yes"/>
      <point x="393" y="513"/>
      <point x="395" y="432"/>
      <point x="382" y="350" type="curve" smooth="yes"/>
      <point x="369" y="268"/>
      <point x="342" y="187"/>
      <point x="301" y="110" type="curve" smooth="yes"/>
      <point x="260" y="33"/>
      <point x="209" y="-36"/>
      <point x="145" y="-99" type="curve"/>
      <point x="145" y="-99"/>
      <point x="145" y="-99"/>
      <point x="50" y="29" type="curve"/>
      <point x="93" y="74"/>
      <point x="128" y="125"/>
      <point x="156" y="180" type="curve" smooth="yes"/>
      <point x="184" y="235"/>
      <point x="203" y="292"/>
      <point x="212" y="350" type="curve" smooth="yes"/>
      <point x="221" y="411"/>
      <point x="220" y="471"/>
      <point x="208" y="529" type="curve" smooth="yes"/>
      <point x="196" y="587"/>
      <point x="174" y="639"/>
      <point x="142" y="685" type="curve"/>
      <point x="142" y="685"/>
      <point x="142" y="685"/>
    </contour>
  </outline>
</glyph>
<glyph name="asterisk" format="2">
  <advance width="483"/>
  <unicode hex="002A"/>
  <outline>
    <contour>
      <point x="108" y="498" type="line"/>
      <point x="181" y="660" type="line"/>
      <point x="351" y="599" type="line"/>
      <point x="278" y="437" type="line"/>
    </contour>
    <contour>
      <point x="240" y="308" type="line"/>
      <point x="123" y="408" type="line"/>
      <point x="256" y="568" type="line"/>
      <point x="373" y="468" type="line"/>
    </contour>
    <contour>
      <point x="475" y="408" type="line"/>
      <point x="330" y="308" type="line"/>
      <point x="242" y="468" type="line"/>
      <point x="387" y="568" type="line"/>
    </contour>
    <contour>
      <point x="488" y="660" type="line"/>
      <point x="516" y="498" type="line"/>
      <point x="328" y="437" type="line"/>
      <point x="301" y="599" type="line"/>
    </contour>
    <contour>
      <point x="262" y="716" type="line"/>
      <point x="423" y="716" type="line"/>
      <point x="395" y="518" type="line"/>
      <point x="234" y="518" type="line"/>
    </contour>
  </outline>
</glyph>
<glyph name="plus" format="2">
  <advance width="626"/>
  <unicode hex="002B"/>
  <outline>
    <contour>
      <point x="311" y="523" type="line"/>
      <point x="481" y="523" type="line"/>
      <point x="459" y="384" type="line"/>
      <point x="599" y="384" type="line"/>
      <point x="572" y="214" type="line"/>
      <point x="432" y="214" type="line"/>
      <point x="410" y="73" type="line"/>
      <point x="240" y="73" type="line"/>
      <point x="262" y="214" type="line"/>
      <point x="122" y="214" type="line"/>
      <point x="149" y="384" type="line"/>
      <point x="289" y="384" type="line"/>
    </contour>
  </outline>
</glyph>
<glyph name="comma" format="2">
  <advance width="292"/>
  <unicode hex="002C"/>
  <outline>
    <contour>
      <point x="110" y="146" type="curve"/>
      <point x="290" y="146" type="line"/>
      <point x="274" y="44"/>
      <point x="225" y="-42"/>
      <point x="143" y="-113" type="curve"/>
      <point x="3" y="-113" type="line"/>
      <point x="60" y="-31"/>
      <point x="96" y="55"/>
    </contour>
  </outline>
</glyph>
<glyph name="hyphen" format="2">
  <advance width="437"/>
  <unicode hex="002D"/>
  <outline>
    <contour>
      <point x="77" y="213" type="line"/>
      <point x="101" y="383" type="line"/>
      <point x="443" y="383" type="line"/>
      <point x="419" y="213" type="line"/>
    </contour>
  </outline>
</glyph>
<glyph name="period" format="2">
  <advance width="292"/>
  <unicode hex="002E"/>
  <outline>
    <contour>
      <point x="263" y="88" type="curve" smooth="yes"/>
      <point x="258" y="59"/>
      <point x="244" y="35"/>
      <point x="221" y="15" type="curve" smooth="yes"/>
      <point x="198" y="-5"/>
      <point x="173" y="-15"/>
      <point x="144" y="-15" type="curve" smooth="yes"/>
      <point x="115" y="-15"/>
      <point x="92" y="-5"/>
      <point x="75" y="15" type="curve" smooth="yes"/>
      <point x="58" y="35"/>
      <point x="52" y="59"/>
      <point x="57" y="88" type="curve" smooth="yes"/>
      <point x="62" y="117"/>
      <point x="75" y="141"/>
      <point x="98" y="161" type="curve" smooth="yes"/>
      <point x="121" y="181"/>
      <point x="147" y="191"/>
      <point x="176" y="191" type="curve" smooth="yes"/>
      <point x="205" y="191"/>
      <point x="227" y="181"/>
      <point x="244" y="161" type="curve" smooth="yes"/>
      <point x="261" y="141"/>
      <point x="268" y="117"/>
    </contour>
  </outline>
</glyph>
<glyph name="slash" format="2">
  <advance width="455"/>
  <unicode hex="002F"/>
  <outline>
    <contour>
      <point x="394" y="747" type="line"/>
      <point x="547" y="694" type="line"/>
      <point x="165" y="-88" type="line"/>
      <point x="12" y="-35" type="line"/>
    </contour>
  </outline>
</glyph>
<glyph name="zero" format="2">
  <advance width="606"/>
  <unicode hex="0030"/>
  <outline>
    <contour>
      <point x="379" y="542" type="curve" smooth="yes"/>
      <point x="357" y="542"/>
      <point x="337" y="538"/>
      <point x="320" y="527" type="curve" smooth="yes"/>
      <point x="303" y="516"/>
      <point x="288" y="501"/>
      <point x="277" y="482" type="curve" smooth="yes"/>
      <point x="266" y="463"/>
      <point x="257" y="444"/>
      <point x="250" y="422" type="curve" smooth="yes"/>
      <point x="243" y="400"/>
      <point x="238" y="376"/>
      <point x="234" y="350" type="curve" smooth="yes"/>
      <point x="230" y="324"/>
      <point x="229" y="300"/>
      <point x="230" y="278" type="curve" smooth="yes"/>
      <point x="231" y="256"/>
      <point x="233" y="237"/>
      <point x="239" y="218" type="curve" smooth="yes"/>
      <point x="245" y="199"/>
      <point x="255" y="184"/>
      <point x="270" y="173" type="curve" smooth="yes"/>
      <point x="285" y="162"/>
      <point x="303" y="158"/>
      <point x="325" y="158" type="curve" smooth="yes"/>
      <point x="347" y="158"/>
      <point x="368" y="162"/>
      <point x="385" y="173" type="curve" smooth="yes"/>
      <point x="402" y="184"/>
      <point x="417" y="199"/>
      <point x="428" y="218" type="curve" smooth="yes"/>
      <point x="439" y="237"/>
      <point x="448" y="256"/>
      <point x="455" y="278" type="curve" smooth="yes"/>
      <point x="462" y="300"/>
      <point x="466" y="324"/>
      <point x="470" y="350" type="curve" smooth="yes"/>
      <point x="474" y="376"/>
      <point x="476" y="400"/>
      <point x="475" y="422" type="curve" smooth="yes"/>
      <point x="474" y="444"/>
      <point x="471" y="463"/>
      <point x="465" y="482" type="curve" smooth="yes"/>
      <point x="459" y="501"/>
      <point x="449" y="516"/>
      <point x="434" y="527" type="curve" smooth="yes"/>
      <point x="419" y="538"/>
      <point x="401" y="542"/>
    </contour>
    <contour>
      <point x="403" y="712" type="curve" smooth="yes"/>
      <point x="447" y="712"/>
      <point x="485" y="702"/>
      <point x="518" y="682" type="curve" smooth="yes"/>
      <point x="580" y="645"/>
      <point x="618" y="580"/>
      <point x="632" y="487" type="curve" smooth="yes"/>
      <point x="638" y="444"/>
      <point x="639" y="398"/>
      <point x="632" y="350" type="curve" smooth="yes"/>
      <point x="625" y="302"/>
      <point x="612" y="256"/>
      <point x="594" y="213" type="curve" smooth="yes"/>
      <point x="554" y="120"/>
      <point x="498" y="55"/>
      <point x="425" y="18" type="curve" smooth="yes"/>
      <point x="386" y="-2"/>
      <point x="345" y="-12"/>
      <point x="301" y="-12" type="curve" smooth="yes"/>
      <point x="257" y="-12"/>
      <point x="219" y="-2"/>
      <point x="186" y="18" type="curve" smooth="yes"/>
      <point x="124" y="55"/>
      <point x="86" y="120"/>
      <point x="72" y="213" type="curve" smooth="yes"/>
      <point x="66" y="256"/>
      <point x="66" y="302"/>
      <point x="73" y="350" type="curve" smooth="yes"/>
      <point x="80" y="398"/>
      <point x="93" y="444"/>
      <point x="111" y="487" type="curve" smooth="yes"/>
      <point x="151" y="580"/>
      <point x="207" y="645"/>
      <point x="280" y="682" type="curve" smooth="yes"/>
      <point x="319" y="702"/>
      <point x="359" y="712"/>
    </contour>
  </outline>
</glyph>
<glyph name="one" format="2">
  <advance width="459"/>
  <unicode hex="0031"/>
  <outline>
    <contour>
      <point x="321" y="700" type="line"/>
      <point x="482" y="700" type="line"/>
      <point x="384" y="0" type="line"/>
      <point x="222" y="0" type="line"/>
      <point x="289" y="478" type="line"/>
      <point x="193" y="403" type="line"/>
      <point x="108" y="533" type="line"/>
    </contour>
  </outline>
</glyph>
<glyph name="two" format="2">
  <advance width="497"/>
  <unicode hex="0032"/>
  <outline>
    <contour>
      <point x="339" y="713" type="curve" smooth="yes"/>
      <point x="400" y="713"/>
      <point x="451" y="691"/>
      <point x="491" y="645" type="curve" smooth="yes"/>
      <point x="531" y="599"/>
      <point x="546" y="545"/>
      <point x="537" y="482" type="curve" smooth="yes"/>
      <point x="527" y="413"/>
      <point x="498" y="356"/>
      <point x="451" y="314" type="curve" smooth="yes"/>
      <point x="281" y="170" type="line"/>
      <point x="491" y="170" type="line"/>
      <point x="468" y="0" type="line"/>
      <point x="19" y="0" type="line"/>
      <point x="43" y="170" type="line"/>
      <point x="344" y="426" type="line" smooth="yes"/>
      <point x="362" y="443"/>
      <point x="372" y="462"/>
      <point x="375" y="482" type="curve" smooth="yes"/>
      <point x="378" y="501"/>
      <point x="374" y="515"/>
      <point x="363" y="526" type="curve" smooth="yes"/>
      <point x="352" y="537"/>
      <point x="338" y="543"/>
      <point x="321" y="543" type="curve" smooth="yes"/>
      <point x="305" y="543"/>
      <point x="290" y="538"/>
      <point x="276" y="528" type="curve" smooth="yes"/>
      <point x="262" y="518"/>
      <point x="253" y="504"/>
      <point x="249" y="486" type="curve"/>
      <point x="95" y="518" type="line"/>
      <point x="111" y="574"/>
      <point x="143" y="621"/>
      <point x="189" y="658" type="curve" smooth="yes"/>
      <point x="235" y="695"/>
      <point x="285" y="713"/>
    </contour>
  </outline>
</glyph>
<glyph name="three" format="2">
  <advance width="523"/>
  <unicode hex="0033"/>
  <outline>
    <contour>
      <point x="369" y="712" type="curve" smooth="yes"/>
      <point x="432" y="712"/>
      <point x="483" y="690"/>
      <point x="522" y="648" type="curve" smooth="yes"/>
      <point x="561" y="606"/>
      <point x="576" y="555"/>
      <point x="566" y="495" type="curve" smooth="yes"/>
      <point x="562" y="470"/>
      <point x="550" y="444"/>
      <point x="531" y="416" type="curve" smooth="yes"/>
      <point x="517" y="396"/>
      <point x="500" y="375"/>
      <point x="478" y="354" type="curve"/>
      <point x="492" y="334"/>
      <point x="503" y="315"/>
      <point x="511" y="296" type="curve" smooth="yes"/>
      <point x="524" y="266"/>
      <point x="527" y="237"/>
      <point x="523" y="210" type="curve" smooth="yes"/>
      <point x="513" y="150"/>
      <point x="483" y="97"/>
      <point x="430" y="54" type="curve" smooth="yes"/>
      <point x="377" y="11"/>
      <point x="319" y="-10"/>
      <point x="255" y="-10" type="curve" smooth="yes"/>
      <point x="200" y="-10"/>
      <point x="154" y="6"/>
      <point x="114" y="38" type="curve" smooth="yes"/>
      <point x="74" y="70"/>
      <point x="53" y="111"/>
      <point x="49" y="160" type="curve"/>
      <point x="220" y="199" type="line"/>
      <point x="221" y="186"/>
      <point x="229" y="176"/>
      <point x="241" y="170" type="curve" smooth="yes"/>
      <point x="253" y="164"/>
      <point x="268" y="160"/>
      <point x="284" y="160" type="curve" smooth="yes"/>
      <point x="300" y="160"/>
      <point x="315" y="165"/>
      <point x="329" y="175" type="curve" smooth="yes"/>
      <point x="343" y="185"/>
      <point x="352" y="199"/>
      <point x="354" y="214" type="curve" smooth="yes"/>
      <point x="357" y="230"/>
      <point x="353" y="243"/>
      <point x="343" y="253" type="curve" smooth="yes"/>
      <point x="333" y="263"/>
      <point x="318" y="269"/>
      <point x="299" y="269" type="curve" smooth="yes"/>
      <point x="265" y="269" type="line"/>
      <point x="292" y="439" type="line"/>
      <point x="326" y="439" type="line" smooth="yes"/>
      <point x="344" y="439"/>
      <point x="359" y="444"/>
      <point x="372" y="454" type="curve" smooth="yes"/>
      <point x="385" y="464"/>
      <point x="393" y="477"/>
      <point x="396" y="493" type="curve" smooth="yes"/>
      <point x="398" y="508"/>
      <point x="394" y="520"/>
      <point x="383" y="529" type="curve" smooth="yes"/>
      <point x="372" y="538"/>
      <point x="358" y="542"/>
      <point x="342" y="542" type="curve" smooth="yes"/>
      <point x="321" y="542"/>
      <point x="305" y="537"/>
      <point x="292" y="529" type="curve" smooth="yes"/>
      <point x="282" y="522"/>
      <point x="275" y="514"/>
      <point x="270" y="502" type="curve"/>
      <point x="112" y="544" type="line"/>
      <point x="131" y="593"/>
      <point x="165" y="632"/>
      <point x="214" y="664" type="curve" smooth="yes"/>
      <point x="263" y="696"/>
      <point x="315" y="712"/>
    </contour>
  </outline>
</glyph>
<glyph name="four" format="2">
  <advance width="611"/>
  <unicode hex="0034"/>
  <outline>
    <contour>
      <point x="327" y="700" type="line"/>
      <point x="470" y="629" type="line"/>
      <point x="244" y="278" type="line"/>
      <point x="365" y="278" type="line"/>
      <point x="395" y="465" type="line"/>
      <point x="565" y="465" type="line"/>
      <point x="535" y="278" type="line"/>
      <point x="622" y="278" type="line"/>
      <point x="595" y="108" type="line"/>
      <point x="508" y="108" type="line"/>
      <point x="491" y="0" type="line"/>
      <point x="321" y="0" type="line"/>
      <point x="338" y="108" type="line"/>
      <point x="30" y="108" type="line"/>
      <point x="57" y="278" type="line"/>
    </contour>
  </outline>
</glyph>
<glyph name="five" format="2">
  <advance width="513"/>
  <unicode hex="0035"/>
  <outline>
    <contour>
      <point x="174" y="700" type="line"/>
      <point x="545" y="700" type="line"/>
      <point x="521" y="530" type="line"/>
      <point x="312" y="530" type="line"/>
      <point x="302" y="460" type="line"/>
      <point x="327" y="460" type="line" smooth="yes"/>
      <point x="388" y="460"/>
      <point x="438" y="436"/>
      <point x="475" y="390" type="curve" smooth="yes"/>
      <point x="512" y="344"/>
      <point x="526" y="288"/>
      <point x="517" y="223" type="curve" smooth="yes"/>
      <point x="508" y="158"/>
      <point x="478" y="103"/>
      <point x="428" y="57" type="curve" smooth="yes"/>
      <point x="378" y="11"/>
      <point x="322" y="-12"/>
      <point x="261" y="-12" type="curve" smooth="yes"/>
      <point x="202" y="-12"/>
      <point x="153" y="4"/>
      <point x="116" y="35" type="curve" smooth="yes"/>
      <point x="79" y="66"/>
      <point x="57" y="108"/>
      <point x="51" y="160" type="curve"/>
      <point x="214" y="190" type="line"/>
      <point x="223" y="169"/>
      <point x="245" y="158"/>
      <point x="281" y="158" type="curve" smooth="yes"/>
      <point x="301" y="158"/>
      <point x="317" y="164"/>
      <point x="331" y="176" type="curve" smooth="yes"/>
      <point x="345" y="188"/>
      <point x="352" y="204"/>
      <point x="355" y="223" type="curve" smooth="yes"/>
      <point x="358" y="241"/>
      <point x="354" y="257"/>
      <point x="344" y="270" type="curve" smooth="yes"/>
      <point x="334" y="283"/>
      <point x="320" y="290"/>
      <point x="303" y="290" type="curve" smooth="yes"/>
      <point x="117" y="290" type="line"/>
    </contour>
  </outline>
</glyph>
<glyph name="six" format="2">
  <advance width="555"/>
  <unicode hex="0036"/>
  <outline>
    <contour>
      <point x="326" y="307" type="curve" smooth="yes"/>
      <point x="305" y="307"/>
      <point x="287" y="299"/>
      <point x="270" y="285" type="curve" smooth="yes"/>
      <point x="253" y="271"/>
      <point x="243" y="253"/>
      <point x="240" y="232" type="curve" smooth="yes"/>
      <point x="237" y="211"/>
      <point x="241" y="194"/>
      <point x="253" y="180" type="curve" smooth="yes"/>
      <point x="265" y="166"/>
      <point x="282" y="158"/>
      <point x="303" y="158" type="curve" smooth="yes"/>
      <point x="324" y="158"/>
      <point x="342" y="166"/>
      <point x="359" y="180" type="curve" smooth="yes"/>
      <point x="376" y="194"/>
      <point x="386" y="211"/>
      <point x="389" y="232" type="curve" smooth="yes"/>
      <point x="392" y="253"/>
      <point x="388" y="271"/>
      <point x="376" y="285" type="curve" smooth="yes"/>
      <point x="364" y="299"/>
      <point x="347" y="307"/>
    </contour>
    <contour>
      <point x="385" y="712" type="line"/>
      <point x="581" y="712" type="line"/>
      <point x="398" y="464" type="line"/>
      <point x="406" y="463"/>
      <point x="414" y="462"/>
      <point x="422" y="460" type="curve" smooth="yes"/>
      <point x="465" y="449"/>
      <point x="500" y="424"/>
      <point x="526" y="387" type="curve" smooth="yes"/>
      <point x="557" y="344"/>
      <point x="568" y="292"/>
      <point x="559" y="232" type="curve" smooth="yes"/>
      <point x="548" y="164"/>
      <point x="515" y="108"/>
      <point x="460" y="60" type="curve" smooth="yes"/>
      <point x="405" y="12"/>
      <point x="344" y="-12"/>
      <point x="276" y="-12" type="curve" smooth="yes"/>
      <point x="208" y="-12"/>
      <point x="154" y="12"/>
      <point x="114" y="60" type="curve" smooth="yes"/>
      <point x="74" y="108"/>
      <point x="59" y="164"/>
      <point x="70" y="232" type="curve" smooth="yes"/>
      <point x="77" y="275"/>
      <point x="94" y="317"/>
      <point x="122" y="354" type="curve" smooth="yes"/>
    </contour>
  </outline>
</glyph>
<glyph name="seven" format="2">
  <advance width="544"/>
  <unicode hex="0037"/>
  <outline>
    <contour>
      <point x="98" y="530" type="line"/>
      <point x="122" y="700" type="line"/>
      <point x="614" y="700" type="line"/>
      <point x="590" y="530" type="line"/>
      <point x="281" y="0" type="line"/>
      <point x="103" y="0" type="line"/>
      <point x="412" y="530" type="line"/>
    </contour>
  </outline>
</glyph>
<glyph name="eight" format="2">
  <advance width="570"/>
  <unicode hex="0038"/>
  <outline>
    <contour>
      <point x="330" y="282" type="curve" smooth="yes"/>
      <point x="308" y="282"/>
      <point x="287" y="275"/>
      <point x="269" y="263" type="curve" smooth="yes"/>
      <point x="251" y="251"/>
      <point x="240" y="235"/>
      <point x="237" y="216" type="curve" smooth="yes"/>
      <point x="234" y="197"/>
      <point x="240" y="182"/>
      <point x="254" y="170" type="curve" smooth="yes"/>
      <point x="268" y="158"/>
      <point x="287" y="152"/>
      <point x="309" y="152" type="curve" smooth="yes"/>
      <point x="331" y="152"/>
      <point x="352" y="158"/>
      <point x="370" y="170" type="curve" smooth="yes"/>
      <point x="388" y="182"/>
      <point x="398" y="197"/>
      <point x="401" y="216" type="curve" smooth="yes"/>
      <point x="404" y="235"/>
      <point x="398" y="251"/>
      <point x="384" y="263" type="curve" smooth="yes"/>
      <point x="370" y="275"/>
      <point x="352" y="282"/>
    </contour>
    <contour>
      <point x="371" y="546" type="curve" smooth="yes"/>
      <point x="354" y="546"/>
      <point x="340" y="542"/>
      <point x="327" y="533" type="curve" smooth="yes"/>
      <point x="314" y="524"/>
      <point x="307" y="513"/>
      <point x="305" y="499" type="curve" smooth="yes"/>
      <point x="303" y="485"/>
      <point x="306" y="473"/>
      <point x="316" y="464" type="curve" smooth="yes"/>
      <point x="326" y="455"/>
      <point x="340" y="452"/>
      <point x="357" y="452" type="curve" smooth="yes"/>
      <point x="374" y="452"/>
      <point x="388" y="455"/>
      <point x="401" y="464" type="curve" smooth="yes"/>
      <point x="414" y="473"/>
      <point x="421" y="485"/>
      <point x="423" y="499" type="curve" smooth="yes"/>
      <point x="425" y="513"/>
      <point x="422" y="524"/>
      <point x="412" y="533" type="curve" smooth="yes"/>
      <point x="402" y="542"/>
      <point x="388" y="546"/>
    </contour>
    <contour>
      <point x="398" y="712" type="curve" smooth="yes"/>
      <point x="464" y="712"/>
      <point x="516" y="695"/>
      <point x="554" y="659" type="curve" smooth="yes"/>
      <point x="592" y="623"/>
      <point x="606" y="577"/>
      <point x="597" y="520" type="curve" smooth="yes"/>
      <point x="588" y="463"/>
      <point x="559" y="417"/>
      <point x="510" y="381" type="curve" smooth="yes"/>
      <point x="508" y="379"/>
      <point x="505" y="378"/>
      <point x="503" y="376" type="curve"/>
      <point x="510" y="371"/>
      <point x="517" y="366"/>
      <point x="523" y="360" type="curve" smooth="yes"/>
      <point x="564" y="320"/>
      <point x="579" y="268"/>
      <point x="569" y="204" type="curve" smooth="yes"/>
      <point x="559" y="140"/>
      <point x="527" y="88"/>
      <point x="473" y="48" type="curve" smooth="yes"/>
      <point x="419" y="8"/>
      <point x="356" y="-12"/>
      <point x="283" y="-12" type="curve" smooth="yes"/>
      <point x="210" y="-12"/>
      <point x="153" y="8"/>
      <point x="112" y="48" type="curve" smooth="yes"/>
      <point x="71" y="88"/>
      <point x="55" y="140"/>
      <point x="65" y="204" type="curve" smooth="yes"/>
      <point x="75" y="268"/>
      <point x="108" y="320"/>
      <point x="162" y="360" type="curve" smooth="yes"/>
      <point x="170" y="366"/>
      <point x="178" y="371"/>
      <point x="186" y="376" type="curve"/>
      <point x="184" y="378"/>
      <point x="183" y="379"/>
      <point x="181" y="381" type="curve" smooth="yes"/>
      <point x="143" y="417"/>
      <point x="129" y="463"/>
      <point x="138" y="520" type="curve" smooth="yes"/>
      <point x="147" y="577"/>
      <point x="176" y="623"/>
      <point x="225" y="659" type="curve" smooth="yes"/>
      <point x="274" y="695"/>
      <point x="332" y="712"/>
    </contour>
  </outline>
</glyph>
<glyph name="nine" format="2">
  <advance width="555"/>
  <unicode hex="0039"/>
  <outline>
    <contour>
      <point x="340" y="393" type="curve" smooth="yes"/>
      <point x="361" y="393"/>
      <point x="379" y="401"/>
      <point x="396" y="415" type="curve" smooth="yes"/>
      <point x="413" y="429"/>
      <point x="423" y="447"/>
      <point x="426" y="468" type="curve" smooth="yes"/>
      <point x="429" y="489"/>
      <point x="425" y="506"/>
      <point x="413" y="520" type="curve" smooth="yes"/>
      <point x="401" y="534"/>
      <point x="384" y="542"/>
      <point x="363" y="542" type="curve" smooth="yes"/>
      <point x="342" y="542"/>
      <point x="324" y="534"/>
      <point x="307" y="520" type="curve" smooth="yes"/>
      <point x="290" y="506"/>
      <point x="280" y="489"/>
      <point x="277" y="468" type="curve" smooth="yes"/>
      <point x="274" y="447"/>
      <point x="278" y="429"/>
      <point x="290" y="415" type="curve" smooth="yes"/>
      <point x="302" y="401"/>
      <point x="319" y="393"/>
    </contour>
    <contour>
      <point x="273" y="0" type="line"/>
      <point x="77" y="0" type="line"/>
      <point x="268" y="236" type="line"/>
      <point x="260" y="237"/>
      <point x="252" y="238"/>
      <point x="244" y="240" type="curve" smooth="yes"/>
      <point x="201" y="252"/>
      <point x="166" y="276"/>
      <point x="139" y="313" type="curve" smooth="yes"/>
      <point x="108" y="356"/>
      <point x="98" y="408"/>
      <point x="107" y="468" type="curve" smooth="yes"/>
      <point x="117" y="536"/>
      <point x="150" y="592"/>
      <point x="206" y="640" type="curve" smooth="yes"/>
      <point x="261" y="688"/>
      <point x="323" y="712"/>
      <point x="390" y="712" type="curve" smooth="yes"/>
      <point x="457" y="712"/>
      <point x="512" y="688"/>
      <point x="552" y="640" type="curve" smooth="yes"/>
      <point x="593" y="592"/>
      <point x="607" y="536"/>
      <point x="596" y="468" type="curve" smooth="yes"/>
      <point x="589" y="425"/>
      <point x="572" y="384"/>
      <point x="544" y="346" type="curve" smooth="yes"/>
    </contour>
  </outline>
</glyph>
<glyph name="colon" format="2">
  <advance width="328"/>
  <unicode hex="003A"/>
  <outline>
    <contour>
      <point x="206" y="294" type="curve" smooth="yes"/>
      <point x="179" y="294"/>
      <point x="157" y="304"/>
      <point x="141" y="324" type="curve" smooth="yes"/>
      <point x="125" y="344"/>
      <point x="118" y="369"/>
      <point x="122" y="397" type="curve" smooth="yes"/>
      <point x="126" y="425"/>
      <point x="139" y="450"/>
      <point x="161" y="470" type="curve" smooth="yes"/>
      <point x="183" y="490"/>
      <point x="208" y="500"/>
      <point x="235" y="500" type="curve" smooth="yes"/>
      <point x="262" y="500"/>
      <point x="283" y="490"/>
      <point x="299" y="470" type="curve" smooth="yes"/>
      <point x="315" y="450"/>
      <point x="322" y="425"/>
      <point x="318" y="397" type="curve" smooth="yes"/>
      <point x="314" y="369"/>
      <point x="301" y="344"/>
      <point x="279" y="324" type="curve" smooth="yes"/>
      <point x="257" y="304"/>
      <point x="233" y="294"/>
    </contour>
    <contour>
      <point x="164" y="-1" type="curve" smooth="yes"/>
      <point x="137" y="-1"/>
      <point x="116" y="10"/>
      <point x="100" y="30" type="curve" smooth="yes"/>
      <point x="84" y="50"/>
      <point x="77" y="74"/>
      <point x="81" y="102" type="curve" smooth="yes"/>
      <point x="85" y="130"/>
      <point x="98" y="154"/>
      <point x="120" y="174" type="curve" smooth="yes"/>
      <point x="142" y="194"/>
      <point x="166" y="205"/>
      <point x="193" y="205" type="curve" smooth="yes"/>
      <point x="220" y="205"/>
      <point x="242" y="194"/>
      <point x="258" y="174" type="curve" smooth="yes"/>
      <point x="274" y="154"/>
      <point x="281" y="130"/>
      <point x="277" y="102" type="curve" smooth="yes"/>
      <point x="273" y="74"/>
      <point x="259" y="50"/>
      <point x="237" y="30" type="curve" smooth="yes"/>
      <point x="215" y="10"/>
      <point x="191" y="-1"/>
    </contour>
  </outline>
</glyph>
<glyph name="semicolon" format="2">
  <advance width="359"/>
  <unicode hex="003B"/>
  <outline>
    <contour>
      <point x="120" y="146" type="curve"/>
      <point x="300" y="146" type="line"/>
      <point x="284" y="44"/>
      <point x="235" y="-42"/>
      <point x="153" y="-113" type="curve"/>
      <point x="13" y="-113" type="line"/>
      <point x="70" y="-31"/>
      <point x="106" y="55"/>
    </contour>
    <contour>
      <point x="229" y="290" type="curve" smooth="yes"/>
      <point x="201" y="290"/>
      <point x="178" y="300"/>
      <point x="161" y="320" type="curve" smooth="yes"/>
      <point x="144" y="340"/>
      <point x="138" y="365"/>
      <point x="142" y="393" type="curve" smooth="yes"/>
      <point x="146" y="421"/>
      <point x="160" y="446"/>
      <point x="184" y="466" type="curve" smooth="yes"/>
      <point x="208" y="486"/>
      <point x="234" y="496"/>
      <point x="262" y="496" type="curve" smooth="yes"/>
      <point x="290" y="496"/>
      <point x="312" y="486"/>
      <point x="329" y="466" type="curve" smooth="yes"/>
      <point x="346" y="446"/>
      <point x="352" y="421"/>
      <point x="348" y="393" type="curve" smooth="yes"/>
      <point x="344" y="365"/>
      <point x="330" y="340"/>
      <point x="306" y="320" type="curve" smooth="yes"/>
      <point x="282" y="300"/>
      <point x="257" y="290"/>
    </contour>
  </outline>
</glyph>
<glyph name="less" format="2">
  <advance width="646"/>
  <unicode hex="003C"/>
  <outline>
    <contour>
      <point x="610" y="549" type="line"/>
      <point x="581" y="366" type="line"/>
      <point x="392" y="293" type="line"/>
      <point x="558" y="221" type="line"/>
      <point x="529" y="38" type="line"/>
      <point x="154" y="202" type="line"/>
      <point x="183" y="385" type="line"/>
    </contour>
  </outline>
</glyph>
<glyph name="equal" format="2">
  <advance width="608"/>
  <unicode hex="003D"/>
  <outline>
    <contour>
      <point x="158" y="312" type="line"/>
      <point x="182" y="482" type="line"/>
      <point x="581" y="482" type="line"/>
      <point x="557" y="312" type="line"/>
    </contour>
    <contour>
      <point x="130" y="112" type="line"/>
      <point x="154" y="282" type="line"/>
      <point x="553" y="282" type="line"/>
      <point x="529" y="112" type="line"/>
    </contour>
  </outline>
</glyph>
<glyph name="greater" format="2">
  <advance width="646"/>
  <unicode hex="003E"/>
  <outline>
    <contour>
      <point x="209" y="549" type="line"/>
      <point x="180" y="366" type="line"/>
      <point x="346" y="293" type="line"/>
      <point x="157" y="221" type="line"/>
      <point x="128" y="38" type="line"/>
      <point x="555" y="202" type="line"/>
      <point x="584" y="385" type="line"/>
    </contour>
  </outline>
</glyph>
<glyph name="question" format="2">
  <advance width="514"/>
  <unicode hex="003F"/>
  <outline>
    <contour>
      <point x="359" y="88" type="curve" smooth="yes"/>
      <point x="354" y="59"/>
      <point x="340" y="35"/>
      <point x="317" y="15" type="curve" smooth="yes"/>
      <point x="294" y="-5"/>
      <point x="269" y="-15"/>
      <point x="240" y="-15" type="curve" smooth="yes"/>
      <point x="211" y="-15"/>
      <point x="188" y="-5"/>
      <point x="171" y="15" type="curve" smooth="yes"/>
      <point x="154" y="35"/>
      <point x="148" y="59"/>
      <point x="153" y="88" type="curve" smooth="yes"/>
      <point x="158" y="117"/>
      <point x="171" y="141"/>
      <point x="194" y="161" type="curve" smooth="yes"/>
      <point x="217" y="181"/>
      <point x="243" y="191"/>
      <point x="272" y="191" type="curve" smooth="yes"/>
      <point x="301" y="191"/>
      <point x="323" y="181"/>
      <point x="340" y="161" type="curve" smooth="yes"/>
      <point x="357" y="141"/>
      <point x="364" y="117"/>
    </contour>
    <contour>
      <point x="364" y="712" type="curve" smooth="yes"/>
      <point x="429" y="712"/>
      <point x="480" y="689"/>
      <point x="519" y="643" type="curve" smooth="yes"/>
      <point x="558" y="597"/>
      <point x="572" y="542"/>
      <point x="562" y="477" type="curve" smooth="yes"/>
      <point x="555" y="432"/>
      <point x="536" y="390"/>
      <point x="505" y="352" type="curve" smooth="yes"/>
      <point x="474" y="314"/>
      <point x="437" y="284"/>
      <point x="393" y="264" type="curve" smooth="yes"/>
      <point x="381" y="259"/>
      <point x="372" y="252"/>
      <point x="365" y="242" type="curve" smooth="yes"/>
      <point x="359" y="234"/>
      <point x="356" y="224"/>
      <point x="354" y="213" type="curve"/>
      <point x="184" y="213" type="line"/>
      <point x="191" y="255"/>
      <point x="209" y="295"/>
      <point x="238" y="333" type="curve" smooth="yes"/>
      <point x="267" y="371"/>
      <point x="303" y="400"/>
      <point x="344" y="418" type="curve" smooth="yes"/>
      <point x="357" y="424"/>
      <point x="368" y="432"/>
      <point x="376" y="441" type="curve" smooth="yes"/>
      <point x="384" y="451"/>
      <point x="390" y="463"/>
      <point x="392" y="477" type="curve" smooth="yes"/>
      <point x="395" y="496"/>
      <point x="391" y="512"/>
      <point x="381" y="524" type="curve" smooth="yes"/>
      <point x="371" y="536"/>
      <point x="356" y="542"/>
      <point x="337" y="542" type="curve" smooth="yes"/>
      <point x="320" y="542"/>
      <point x="304" y="537"/>
      <point x="290" y="526" type="curve" smooth="yes"/>
      <point x="276" y="515"/>
      <point x="268" y="501"/>
      <point x="263" y="484" type="curve"/>
      <point x="99" y="508" type="line"/>
      <point x="116" y="566"/>
      <point x="150" y="615"/>
      <point x="200" y="654" type="curve" smooth="yes"/>
      <point x="250" y="693"/>
      <point x="305" y="712"/>
    </contour>
  </outline>
</glyph>
<glyph name="at" format="2">
  <advance width="924"/>
  <unicode hex="0040"/>
  <outline>
    <contour>
      <point x="562" y="714" type="curve" smooth="yes"/>
      <point x="620" y="714"/>
      <point x="675" y="701"/>
      <point x="725" y="678" type="curve" smooth="yes"/>
      <point x="775" y="655"/>
      <point x="818" y="621"/>
      <point x="853" y="578" type="curve" smooth="yes"/>
      <point x="888" y="535"/>
      <point x="913" y="486"/>
      <point x="927" y="429" type="curve" smooth="yes"/>
      <point x="941" y="372"/>
      <point x="945" y="313"/>
      <point x="936" y="252" type="curve" smooth="yes"/>
      <point x="927" y="190"/>
      <point x="908" y="131"/>
      <point x="878" y="74" type="curve" smooth="yes"/>
      <point x="848" y="17"/>
      <point x="809" y="-32"/>
      <point x="761" y="-75" type="curve" smooth="yes"/>
      <point x="733" y="-100"/>
      <point x="702" y="-113"/>
      <point x="667" y="-113" type="curve" smooth="yes"/>
      <point x="632" y="-113"/>
      <point x="603" y="-99"/>
      <point x="582" y="-73" type="curve" smooth="yes"/>
      <point x="561" y="-47"/>
      <point x="552" y="-15"/>
      <point x="557" y="22" type="curve" smooth="yes"/>
      <point x="560" y="37" type="line"/>
      <point x="529" y="23"/>
      <point x="496" y="16"/>
      <point x="464" y="16" type="curve" smooth="yes"/>
      <point x="402" y="16"/>
      <point x="353" y="39"/>
      <point x="316" y="85" type="curve" smooth="yes"/>
      <point x="279" y="131"/>
      <point x="264" y="187"/>
      <point x="273" y="252" type="curve" smooth="yes"/>
      <point x="282" y="317"/>
      <point x="313" y="373"/>
      <point x="363" y="419" type="curve" smooth="yes"/>
      <point x="413" y="465"/>
      <point x="469" y="488"/>
      <point x="531" y="488" type="curve" smooth="yes"/>
      <point x="593" y="488"/>
      <point x="643" y="465"/>
      <point x="680" y="419" type="curve" smooth="yes"/>
      <point x="717" y="373"/>
      <point x="731" y="317"/>
      <point x="722" y="252" type="curve" smooth="yes"/>
      <point x="689" y="22" type="line" smooth="yes"/>
      <point x="689" y="20"/>
      <point x="689" y="18"/>
      <point x="690" y="17" type="curve" smooth="yes"/>
      <point x="691" y="16"/>
      <point x="693" y="15"/>
      <point x="695" y="15" type="curve" smooth="yes"/>
      <point x="697" y="15"/>
      <point x="699" y="16"/>
      <point x="700" y="17" type="curve" smooth="yes"/>
      <point x="768" y="83"/>
      <point x="809" y="161"/>
      <point x="822" y="252" type="curve" smooth="yes"/>
      <point x="831" y="314"/>
      <point x="825" y="371"/>
      <point x="803" y="423" type="curve" smooth="yes"/>
      <point x="792" y="451"/>
      <point x="777" y="475"/>
      <point x="759" y="497" type="curve" smooth="yes"/>
      <point x="743" y="516"/>
      <point x="724" y="534"/>
      <point x="702" y="548" type="curve" smooth="yes"/>
      <point x="656" y="578"/>
      <point x="605" y="594"/>
      <point x="546" y="594" type="curve" smooth="yes"/>
      <point x="487" y="594"/>
      <point x="430" y="578"/>
      <point x="376" y="548" type="curve" smooth="yes"/>
      <point x="322" y="518"/>
      <point x="277" y="475"/>
      <point x="241" y="423" type="curve" smooth="yes"/>
      <point x="205" y="371"/>
      <point x="182" y="314"/>
      <point x="173" y="252" type="curve" smooth="yes"/>
      <point x="164" y="190"/>
      <point x="170" y="133"/>
      <point x="192" y="81" type="curve" smooth="yes"/>
      <point x="203" y="55"/>
      <point x="217" y="31"/>
      <point x="234" y="10" type="curve" smooth="yes"/>
      <point x="251" y="-11"/>
      <point x="270" y="-29"/>
      <point x="293" y="-44" type="curve" smooth="yes"/>
      <point x="339" y="-74"/>
      <point x="391" y="-90"/>
      <point x="450" y="-90" type="curve" smooth="yes"/>
      <point x="470" y="-90"/>
      <point x="490" y="-87"/>
      <point x="511" y="-83" type="curve"/>
      <point x="524" y="-199" type="line"/>
      <point x="493" y="-206"/>
      <point x="463" y="-210"/>
      <point x="433" y="-210" type="curve" smooth="yes"/>
      <point x="375" y="-210"/>
      <point x="320" y="-197"/>
      <point x="270" y="-174" type="curve" smooth="yes"/>
      <point x="220" y="-151"/>
      <point x="177" y="-117"/>
      <point x="142" y="-74" type="curve" smooth="yes"/>
      <point x="107" y="-31"/>
      <point x="82" y="18"/>
      <point x="68" y="75" type="curve" smooth="yes"/>
      <point x="54" y="132"/>
      <point x="50" y="191"/>
      <point x="59" y="252" type="curve" smooth="yes"/>
      <point x="68" y="313"/>
      <point x="87" y="372"/>
      <point x="117" y="429" type="curve" smooth="yes"/>
      <point x="147" y="486"/>
      <point x="186" y="535"/>
      <point x="233" y="578" type="curve" smooth="yes"/>
      <point x="280" y="621"/>
      <point x="333" y="655"/>
      <point x="390" y="678" type="curve" smooth="yes"/>
      <point x="447" y="701"/>
      <point x="504" y="714"/>
    </contour>
    <contour>
      <point x="511" y="349" type="curve" smooth="yes"/>
      <point x="486" y="349"/>
      <point x="463" y="340"/>
      <point x="442" y="321" type="curve" smooth="yes"/>
      <point x="421" y="302"/>
      <point x="409" y="279"/>
      <point x="405" y="252" type="curve" smooth="yes"/>
      <point x="401" y="225"/>
      <point x="408" y="202"/>
      <point x="423" y="183" type="curve" smooth="yes"/>
      <point x="438" y="164"/>
      <point x="459" y="155"/>
      <point x="484" y="155" type="curve" smooth="yes"/>
      <point x="509" y="155"/>
      <point x="532" y="164"/>
      <point x="553" y="183" type="curve" smooth="yes"/>
      <point x="574" y="202"/>
      <point x="586" y="225"/>
      <point x="590" y="252" type="curve" smooth="yes"/>
      <point x="594" y="279"/>
      <point x="587" y="302"/>
      <point x="572" y="321" type="curve" smooth="yes"/>
      <point x="557" y="340"/>
      <point x="536" y="349"/>
    </contour>
  </outline>
</glyph>
<glyph name="B" format="2">
  <advance width="581"/>
  <unicode hex="0042"/>
  <outline>
    <contour>
      <point x="258" y="278" type="line"/>
      <point x="242" y="170" type="line"/>
      <point x="361" y="170" type="line" smooth="yes"/>
      <point x="378" y="170"/>
      <point x="392" y="175"/>
      <point x="405" y="185" type="curve" smooth="yes"/>
      <point x="418" y="195"/>
      <point x="426" y="208"/>
      <point x="428" y="224" type="curve" smooth="yes"/>
      <point x="430" y="240"/>
      <point x="426" y="253"/>
      <point x="416" y="263" type="curve" smooth="yes"/>
      <point x="406" y="273"/>
      <point x="393" y="278"/>
      <point x="376" y="278" type="curve" smooth="yes"/>
    </contour>
    <contour>
      <point x="293" y="530" type="line"/>
      <point x="281" y="448" type="line"/>
      <point x="362" y="448" type="line" smooth="yes"/>
      <point x="378" y="448"/>
      <point x="391" y="452"/>
      <point x="402" y="459" type="curve" smooth="yes"/>
      <point x="413" y="466"/>
      <point x="418" y="476"/>
      <point x="420" y="489" type="curve" smooth="yes"/>
      <point x="422" y="502"/>
      <point x="418" y="512"/>
      <point x="410" y="519" type="curve" smooth="yes"/>
      <point x="402" y="526"/>
      <point x="390" y="530"/>
      <point x="374" y="530" type="curve" smooth="yes"/>
    </contour>
    <contour>
      <point x="155" y="700" type="line"/>
      <point x="417" y="700" type="line" smooth="yes"/>
      <point x="471" y="700"/>
      <point x="514" y="680"/>
      <point x="546" y="640" type="curve" smooth="yes"/>
      <point x="578" y="600"/>
      <point x="591" y="552"/>
      <point x="583" y="495" type="curve" smooth="yes"/>
      <point x="577" y="456"/>
      <point x="562" y="419"/>
      <point x="537" y="386" type="curve"/>
      <point x="558" y="365"/>
      <point x="573" y="340"/>
      <point x="582" y="311" type="curve" smooth="yes"/>
      <point x="591" y="282"/>
      <point x="593" y="250"/>
      <point x="588" y="218" type="curve" smooth="yes"/>
      <point x="580" y="158"/>
      <point x="553" y="107"/>
      <point x="506" y="64" type="curve" smooth="yes"/>
      <point x="459" y="21"/>
      <point x="408" y="0"/>
      <point x="351" y="0" type="curve" smooth="yes"/>
      <point x="57" y="0" type="line"/>
    </contour>
  </outline>
</glyph>
<glyph name="D" format="2">
  <advance width="671"/>
  <unicode hex="0044"/>
  <outline>
    <contour>
      <point x="390" y="530" type="curve" smooth="yes"/>
      <point x="293" y="530" type="line"/>
      <point x="242" y="170" type="line"/>
      <point x="339" y="170" type="line" smooth="yes"/>
      <point x="387" y="170"/>
      <point x="430" y="187"/>
      <point x="468" y="222" type="curve" smooth="yes"/>
      <point x="506" y="257"/>
      <point x="529" y="300"/>
      <point x="536" y="350" type="curve" smooth="yes"/>
      <point x="543" y="400"/>
      <point x="532" y="443"/>
      <point x="504" y="478" type="curve" smooth="yes"/>
      <point x="476" y="513"/>
      <point x="438" y="530"/>
    </contour>
    <contour>
      <point x="414" y="700" type="line" smooth="yes"/>
      <point x="506" y="700"/>
      <point x="579" y="666"/>
      <point x="634" y="598" type="curve" smooth="yes"/>
      <point x="689" y="530"/>
      <point x="711" y="447"/>
      <point x="697" y="350" type="curve" smooth="yes"/>
      <point x="683" y="253"/>
      <point x="640" y="170"/>
      <point x="565" y="102" type="curve" smooth="yes"/>
      <point x="490" y="34"/>
      <point x="407" y="0"/>
      <point x="315" y="0" type="curve" smooth="yes"/>
      <point x="57" y="0" type="line"/>
      <point x="155" y="700" type="line"/>
    </contour>
  </outline>
</glyph>
<glyph name="F" format="2">
  <advance width="535"/>
  <unicode hex="0046"/>
  <outline>
    <contour>
      <point x="57" y="0" type="line"/>
      <point x="155" y="700" type="line"/>
      <point x="610" y="700" type="line"/>
      <point x="587" y="530" type="line"/>
      <point x="293" y="530" type="line"/>
      <point x="279" y="428" type="line"/>
      <point x="507" y="428" type="line"/>
      <point x="483" y="258" type="line"/>
      <point x="255" y="258" type="line"/>
      <point x="218" y="0" type="line"/>
    </contour>
  </outline>
</glyph>
<glyph name="H" format="2">
  <advance width="691"/>
  <unicode hex="0048"/>
  <outline>
    <contour>
      <point x="57" y="0" type="line"/>
      <point x="156" y="701" type="line"/>
      <point x="317" y="701" type="line"/>
      <point x="280" y="441" type="line"/>
      <point x="535" y="441" type="line"/>
      <point x="571" y="700" type="line"/>
      <point x="733" y="700" type="line"/>
      <point x="635" y="0" type="line"/>
      <point x="473" y="0" type="line"/>
      <point x="511" y="271" type="line"/>
      <point x="257" y="271" type="line"/>
      <point x="218" y="0" type="line"/>
    </contour>
  </outline>
</glyph>
<glyph name="L" format="2">
  <advance width="559"/>
  <unicode hex="004C"/>
  <outline>
    <contour>
      <point x="63" y="0" type="line"/>
      <point x="174" y="700" type="line"/>
      <point x="344" y="700" type="line"/>
      <point x="260" y="170" type="line"/>
      <point x="563" y="170" type="line"/>
      <point x="536" y="0" type="line"/>
    </contour>
  </outline>
</glyph>
<glyph name="N" format="2">
  <advance width="677"/>
  <unicode hex="004E"/>
  <outline>
    <contour>
      <point x="155" y="700" type="line"/>
      <point x="317" y="700" type="line"/>
      <point x="503" y="311" type="line"/>
      <point x="557" y="700" type="line"/>
      <point x="719" y="700" type="line"/>
      <point x="620" y="0" type="line"/>
      <point x="459" y="0" type="line"/>
      <point x="273" y="389" type="line"/>
      <point x="218" y="0" type="line"/>
      <point x="57" y="0" type="line"/>
    </contour>
  </outline>
</glyph>
<glyph name="P" format="2">
  <advance width="568"/>
  <unicode hex="0050"/>
  <outline>
    <contour>
      <point x="293" y="530" type="line"/>
      <point x="272" y="380" type="line"/>
      <point x="384" y="380" type="line" smooth="yes"/>
      <point x="403" y="380"/>
      <point x="421" y="387"/>
      <point x="437" y="402" type="curve" smooth="yes"/>
      <point x="453" y="417"/>
      <point x="463" y="435"/>
      <point x="466" y="455" type="curve" smooth="yes"/>
      <point x="469" y="475"/>
      <point x="464" y="493"/>
      <point x="452" y="508" type="curve" smooth="yes"/>
      <point x="440" y="523"/>
      <point x="424" y="530"/>
      <point x="405" y="530" type="curve" smooth="yes"/>
    </contour>
    <contour>
      <point x="155" y="700" type="line"/>
      <point x="429" y="700" type="line" smooth="yes"/>
      <point x="493" y="700"/>
      <point x="544" y="676"/>
      <point x="583" y="628" type="curve" smooth="yes"/>
      <point x="622" y="580"/>
      <point x="636" y="522"/>
      <point x="627" y="455" type="curve" smooth="yes"/>
      <point x="618" y="388"/>
      <point x="587" y="330"/>
      <point x="535" y="282" type="curve" smooth="yes"/>
      <point x="483" y="234"/>
      <point x="424" y="210"/>
      <point x="360" y="210" type="curve" smooth="yes"/>
      <point x="248" y="210" type="line"/>
      <point x="218" y="0" type="line"/>
      <point x="57" y="0" type="line"/>
    </contour>
  </outline>
</glyph>
<glyph name="Q" format="2">
  <advance width="780"/>
  <unicode hex="0051"/>
  <outline>
    <contour>
      <point x="475.766" y="541.5" type="curve" smooth="yes"/>
      <point x="422.782" y="541.5"/>
      <point x="374.565" y="522.746"/>
      <point x="331.116" y="485.238" type="curve" smooth="yes"/>
      <point x="287.667" y="447.729"/>
      <point x="261.747" y="402.483"/>
      <point x="253.355" y="349.5" type="curve" smooth="yes"/>
      <point x="244.964" y="296.517"/>
      <point x="256.551" y="251.271"/>
      <point x="288.118" y="213.762" type="curve" smooth="yes"/>
      <point x="319.687" y="176.254"/>
      <point x="361.962" y="157.5"/>
      <point x="414.945" y="157.5" type="curve" smooth="yes"/>
      <point x="436.972" y="157.5"/>
      <point x="458.175" y="160.741"/>
      <point x="478.554" y="167.224" type="curve"/>
      <point x="433.425" y="220.846" type="line"/>
      <point x="572.672" y="341.054" type="line"/>
      <point x="617.801" y="287.432" type="line"/>
      <point x="627.349" y="306.784"/>
      <point x="633.867" y="327.474"/>
      <point x="637.355" y="349.5" type="curve" smooth="yes"/>
      <point x="645.747" y="402.483"/>
      <point x="634.159" y="447.729"/>
      <point x="602.593" y="485.238" type="curve" smooth="yes"/>
      <point x="571.024" y="522.746"/>
      <point x="528.749" y="541.5"/>
    </contour>
    <contour>
      <point x="502.69" y="711.5" type="curve" smooth="yes"/>
      <point x="600.757" y="711.5"/>
      <point x="679.428" y="677.667"/>
      <point x="738.703" y="610" type="curve" smooth="yes"/>
      <point x="800.758" y="539.161"/>
      <point x="823.642" y="452.327"/>
      <point x="807.355" y="349.5" type="curve" smooth="yes"/>
      <point x="796.136" y="278.663"/>
      <point x="768.753" y="215.435"/>
      <point x="725.206" y="159.813" type="curve"/>
      <point x="769.06" y="107.708" type="line"/>
      <point x="629.812" y="-12.5" type="line"/>
      <point x="585.783" y="39.8145" type="line"/>
      <point x="524.31" y="4.93848"/>
      <point x="458.389" y="-12.5"/>
      <point x="388.021" y="-12.5" type="curve" smooth="yes"/>
      <point x="285.193" y="-12.5"/>
      <point x="204.162" y="24.1367"/>
      <point x="144.929" y="97.4111" type="curve" smooth="yes"/>
      <point x="88.3477" y="167.404"/>
      <point x="67.8232" y="251.434"/>
      <point x="83.3555" y="349.5" type="curve" smooth="yes"/>
      <point x="99.1006" y="448.909"/>
      <point x="147.154" y="533.743"/>
      <point x="227.518" y="604" type="curve" smooth="yes"/>
      <point x="309.493" y="675.667"/>
      <point x="401.217" y="711.5"/>
    </contour>
  </outline>
</glyph>
<glyph name="R" format="2">
  <advance width="614"/>
  <unicode hex="0052"/>
  <outline>
    <contour>
      <point x="317" y="530" type="line"/>
      <point x="293" y="380" type="line"/>
      <point x="411" y="380" type="line" smooth="yes"/>
      <point x="431" y="380"/>
      <point x="450" y="387"/>
      <point x="467" y="402" type="curve" smooth="yes"/>
      <point x="484" y="417"/>
      <point x="495" y="435"/>
      <point x="498" y="455" type="curve" smooth="yes"/>
      <point x="501" y="475"/>
      <point x="497" y="493"/>
      <point x="484" y="508" type="curve" smooth="yes"/>
      <point x="471" y="523"/>
      <point x="455" y="530"/>
      <point x="435" y="530" type="curve" smooth="yes"/>
    </contour>
    <contour>
      <point x="174" y="700" type="line"/>
      <point x="462" y="700" type="line" smooth="yes"/>
      <point x="529" y="700"/>
      <point x="583" y="676"/>
      <point x="623" y="628" type="curve" smooth="yes"/>
      <point x="663" y="580"/>
      <point x="679" y="522"/>
      <point x="668" y="455" type="curve" smooth="yes"/>
      <point x="662" y="416"/>
      <point x="647" y="380"/>
      <point x="625" y="346" type="curve" smooth="yes"/>
      <point x="603" y="312"/>
      <point x="575" y="284"/>
      <point x="542" y="261" type="curve"/>
      <point x="596" y="0" type="line"/>
      <point x="415" y="0" type="line"/>
      <point x="372" y="210" type="line"/>
      <point x="266" y="210" type="line"/>
      <point x="233" y="0" type="line"/>
      <point x="63" y="0" type="line"/>
    </contour>
  </outline>
</glyph>
<glyph name="V" format="2">
  <advance width="695"/>
  <unicode hex="0056"/>
  <outline>
    <contour>
      <point x="121" y="700" type="line"/>
      <point x="301" y="700" type="line"/>
      <point x="388" y="254" type="line"/>
      <point x="616" y="700" type="line"/>
      <point x="796" y="700" type="line"/>
      <point x="438" y="0" type="line"/>
      <point x="259" y="0" type="line"/>
    </contour>
  </outline>
</glyph>
<glyph name="W" format="2">
  <advance width="911"/>
  <unicode hex="0057"/>
  <outline>
    <contour>
      <point x="833" y="700" type="line"/>
      <point x="1004" y="700" type="line"/>
      <point x="724" y="0" type="line"/>
      <point x="554" y="0" type="line"/>
      <point x="509" y="372" type="line"/>
      <point x="360" y="0" type="line"/>
      <point x="190" y="0" type="line"/>
      <point x="105" y="700" type="line"/>
      <point x="276" y="700" type="line"/>
      <point x="321" y="328" type="line"/>
      <point x="469" y="700" type="line"/>
      <point x="640" y="700" type="line"/>
      <point x="685" y="328" type="line"/>
    </contour>
  </outline>
</glyph>
<glyph name="X" format="2">
  <advance width="622"/>
  <unicode hex="0058"/>
  <outline>
    <contour>
      <point x="516" y="700" type="line"/>
      <point x="705" y="700" type="line"/>
      <point x="456" y="355" type="line"/>
      <point x="613" y="0" type="line"/>
      <point x="423" y="0" type="line"/>
      <point x="338" y="192" type="line"/>
      <point x="199" y="0" type="line"/>
      <point x="9" y="0" type="line"/>
      <point x="266" y="355" type="line"/>
      <point x="113" y="700" type="line"/>
      <point x="303" y="700" type="line"/>
      <point x="384" y="517" type="line"/>
    </contour>
  </outline>
</glyph>
<glyph name="Z" format="2">
  <advance width="574"/>
  <unicode hex="005A"/>
  <outline>
    <contour>
      <point x="28" y="0" type="line"/>
      <point x="52" y="170" type="line"/>
      <point x="404" y="530" type="line"/>
      <point x="106" y="530" type="line"/>
      <point x="130" y="700" type="line"/>
      <point x="645" y="700" type="line"/>
      <point x="621" y="530" type="line"/>
      <point x="269" y="170" type="line"/>
      <point x="567" y="170" type="line"/>
      <point x="543" y="0" type="line"/>
    </contour>
  </outline>
</glyph>
<glyph name="bracketleft" format="2">
  <advance width="343"/>
  <unicode hex="005B"/>
  <outline>
    <contour>
      <point x="313" y="799" type="line" smooth="yes"/>
      <point x="273" y="799"/>
      <point x="237" y="784"/>
      <point x="205" y="755" type="curve" smooth="yes"/>
      <point x="173" y="726"/>
      <point x="154" y="690"/>
      <point x="148" y="648" type="curve" smooth="yes"/>
      <point x="64" y="51" type="line" smooth="yes"/>
      <point x="58" y="9"/>
      <point x="67" y="-27"/>
      <point x="91" y="-56" type="curve" smooth="yes"/>
      <point x="115" y="-85"/>
      <point x="146" y="-100"/>
      <point x="186" y="-100" type="curve" smooth="yes"/>
      <point x="292" y="-100" type="line"/>
      <point x="316" y="70" type="line"/>
      <point x="229" y="70" type="line" smooth="yes"/>
      <point x="228" y="70"/>
      <point x="228" y="70"/>
      <point x="228" y="71" type="curve" smooth="yes"/>
      <point x="307" y="628" type="line" smooth="yes"/>
      <point x="307" y="629"/>
      <point x="307" y="629"/>
      <point x="308" y="629" type="curve" smooth="yes"/>
      <point x="394" y="629" type="line"/>
      <point x="418" y="799" type="line"/>
    </contour>
  </outline>
</glyph>
<glyph name="backslash" format="2">
  <advance width="455"/>
  <unicode hex="005C"/>
  <outline>
    <contour>
      <point x="298" y="747" type="line"/>
      <point x="128" y="694" type="line"/>
      <point x="262" y="-88" type="line"/>
      <point x="432" y="-35" type="line"/>
    </contour>
  </outline>
</glyph>
<glyph name="bracketright" format="2">
  <advance width="368"/>
  <unicode hex="005D"/>
  <outline>
    <contour>
      <point x="281" y="799" type="line" smooth="yes"/>
      <point x="323" y="799"/>
      <point x="356" y="784"/>
      <point x="381" y="755" type="curve" smooth="yes"/>
      <point x="406" y="726"/>
      <point x="415" y="690"/>
      <point x="408" y="648" type="curve" smooth="yes"/>
      <point x="313" y="51" type="line" smooth="yes"/>
      <point x="306" y="9"/>
      <point x="286" y="-27"/>
      <point x="252" y="-56" type="curve" smooth="yes"/>
      <point x="218" y="-85"/>
      <point x="180" y="-100"/>
      <point x="138" y="-100" type="curve" smooth="yes"/>
      <point x="27" y="-100" type="line"/>
      <point x="54" y="70" type="line"/>
      <point x="145" y="70" type="line" smooth="yes"/>
      <point x="146" y="70"/>
      <point x="146" y="70"/>
      <point x="146" y="71" type="curve" smooth="yes"/>
      <point x="234" y="628" type="line" smooth="yes"/>
      <point x="234" y="629"/>
      <point x="235" y="629"/>
      <point x="234" y="629" type="curve" smooth="yes"/>
      <point x="143" y="629" type="line"/>
      <point x="170" y="799" type="line"/>
    </contour>
  </outline>
</glyph>
<glyph name="asciicircum" format="2">
  <advance width="617"/>
  <unicode hex="005E"/>
  <outline>
    <contour>
      <point x="416" y="373" type="line"/>
      <point x="331" y="700" type="line"/>
      <point x="514" y="700" type="line"/>
      <point x="603" y="373" type="line"/>
    </contour>
    <contour>
      <point x="132" y="373" type="line"/>
      <point x="331" y="700" type="line"/>
      <point x="513" y="700" type="line"/>
      <point x="319" y="373" type="line"/>
    </contour>
  </outline>
</glyph>
<glyph name="underscore" format="2">
  <advance width="437"/>
  <unicode hex="005F"/>
  <outline>
    <contour>
      <point x="-5" y="-170" type="line"/>
      <point x="19" y="0" type="line"/>
      <point x="418" y="0" type="line"/>
      <point x="394" y="-170" type="line"/>
    </contour>
  </outline>
</glyph>
<glyph name="grave" format="2">
  <advance width="286"/>
  <unicode hex="0060"/>
  <outline>
    <contour>
      <point x="200" y="554" type="line"/>
      <point x="101" y="701" type="line"/>
      <point x="288" y="701" type="line"/>
      <point x="368" y="554" type="line"/>
    </contour>
  </outline>
</glyph>
<glyph name="b" format="2">
  <advance width="602"/>
  <unicode hex="0062"/>
  <outline>
    <contour>
      <point x="366" y="344" type="curve" smooth="yes"/>
      <point x="340" y="344"/>
      <point x="317" y="334"/>
      <point x="296" y="316" type="curve" smooth="yes"/>
      <point x="275" y="298"/>
      <point x="262" y="276"/>
      <point x="258" y="250" type="curve" smooth="yes"/>
      <point x="254" y="224"/>
      <point x="260" y="202"/>
      <point x="275" y="184" type="curve" smooth="yes"/>
      <point x="290" y="166"/>
      <point x="311" y="156"/>
      <point x="337" y="156" type="curve" smooth="yes"/>
      <point x="363" y="156"/>
      <point x="387" y="166"/>
      <point x="408" y="184" type="curve" smooth="yes"/>
      <point x="429" y="202"/>
      <point x="442" y="224"/>
      <point x="446" y="250" type="curve" smooth="yes"/>
      <point x="450" y="276"/>
      <point x="444" y="298"/>
      <point x="429" y="316" type="curve" smooth="yes"/>
      <point x="414" y="334"/>
      <point x="392" y="344"/>
    </contour>
    <contour>
      <point x="410" y="512" type="curve" smooth="yes"/>
      <point x="481" y="512"/>
      <point x="537" y="487"/>
      <point x="577" y="436" type="curve" smooth="yes"/>
      <point x="617" y="385"/>
      <point x="631" y="323"/>
      <point x="619" y="250" type="curve" smooth="yes"/>
      <point x="607" y="177"/>
      <point x="574" y="115"/>
      <point x="518" y="64" type="curve" smooth="yes"/>
      <point x="462" y="13"/>
      <point x="398" y="-12"/>
      <point x="327" y="-12" type="curve" smooth="yes"/>
      <point x="279" y="-12"/>
      <point x="242" y="0"/>
      <point x="213" y="23" type="curve" smooth="yes"/>
      <point x="209" y="26"/>
      <point x="205" y="29"/>
      <point x="201" y="33" type="curve"/>
      <point x="196" y="0" type="line"/>
      <point x="48" y="0" type="line"/>
      <point x="159" y="700" type="line"/>
      <point x="329" y="700" type="line"/>
      <point x="294" y="480" type="line"/>
      <point x="301" y="484"/>
      <point x="308" y="488"/>
      <point x="315" y="491" type="curve" smooth="yes"/>
      <point x="344" y="505"/>
      <point x="376" y="512"/>
    </contour>
  </outline>
</glyph>
<glyph name="c" format="2">
  <advance width="482"/>
  <unicode hex="0063"/>
  <outline>
    <contour>
      <point x="366" y="512" type="curve" smooth="yes"/>
      <point x="438" y="512"/>
      <point x="496" y="486"/>
      <point x="539" y="435" type="curve"/>
      <point x="400" y="315" type="line"/>
      <point x="385" y="333"/>
      <point x="364" y="342"/>
      <point x="339" y="342" type="curve" smooth="yes"/>
      <point x="314" y="342"/>
      <point x="291" y="333"/>
      <point x="270" y="315" type="curve" smooth="yes"/>
      <point x="249" y="297"/>
      <point x="236" y="275"/>
      <point x="232" y="250" type="curve" smooth="yes"/>
      <point x="228" y="225"/>
      <point x="234" y="203"/>
      <point x="249" y="185" type="curve" smooth="yes"/>
      <point x="264" y="167"/>
      <point x="285" y="158"/>
      <point x="310" y="158" type="curve" smooth="yes"/>
      <point x="335" y="158"/>
      <point x="358" y="167"/>
      <point x="379" y="185" type="curve"/>
      <point x="480" y="65" type="line"/>
      <point x="421" y="14"/>
      <point x="355" y="-12"/>
      <point x="283" y="-12" type="curve" smooth="yes"/>
      <point x="210" y="-12"/>
      <point x="152" y="13"/>
      <point x="109" y="64" type="curve" smooth="yes"/>
      <point x="66" y="115"/>
      <point x="50" y="177"/>
      <point x="62" y="250" type="curve" smooth="yes"/>
      <point x="74" y="323"/>
      <point x="109" y="385"/>
      <point x="168" y="436" type="curve" smooth="yes"/>
      <point x="227" y="487"/>
      <point x="293" y="512"/>
    </contour>
  </outline>
</glyph>
<glyph name="d" format="2">
  <advance width="602"/>
  <unicode hex="0064"/>
  <outline>
    <contour>
      <point x="344" y="344" type="curve" smooth="yes"/>
      <point x="370" y="344"/>
      <point x="392" y="334"/>
      <point x="407" y="316" type="curve" smooth="yes"/>
      <point x="422" y="298"/>
      <point x="428" y="276"/>
      <point x="424" y="250" type="curve" smooth="yes"/>
      <point x="420" y="224"/>
      <point x="407" y="202"/>
      <point x="386" y="184" type="curve" smooth="yes"/>
      <point x="365" y="166"/>
      <point x="341" y="156"/>
      <point x="315" y="156" type="curve" smooth="yes"/>
      <point x="289" y="156"/>
      <point x="268" y="166"/>
      <point x="253" y="184" type="curve" smooth="yes"/>
      <point x="238" y="202"/>
      <point x="232" y="224"/>
      <point x="236" y="250" type="curve" smooth="yes"/>
      <point x="240" y="276"/>
      <point x="253" y="298"/>
      <point x="274" y="316" type="curve" smooth="yes"/>
      <point x="295" y="334"/>
      <point x="318" y="344"/>
    </contour>
    <contour>
      <point x="354" y="512" type="curve" smooth="yes"/>
      <point x="283" y="512"/>
      <point x="220" y="487"/>
      <point x="164" y="436" type="curve" smooth="yes"/>
      <point x="108" y="385"/>
      <point x="75" y="323"/>
      <point x="63" y="250" type="curve" smooth="yes"/>
      <point x="51" y="177"/>
      <point x="65" y="115"/>
      <point x="105" y="64" type="curve" smooth="yes"/>
      <point x="145" y="13"/>
      <point x="200" y="-12"/>
      <point x="271" y="-12" type="curve" smooth="yes"/>
      <point x="314" y="-12"/>
      <point x="353" y="-2"/>
      <point x="387" y="17" type="curve" smooth="yes"/>
      <point x="395" y="22"/>
      <point x="403" y="27"/>
      <point x="411" y="33" type="curve"/>
      <point x="406" y="0" type="line"/>
      <point x="554" y="0" type="line"/>
      <point x="665" y="700" type="line"/>
      <point x="495" y="700" type="line"/>
      <point x="460" y="480" type="line"/>
      <point x="453" y="485"/>
      <point x="445" y="490"/>
      <point x="437" y="494" type="curve" smooth="yes"/>
      <point x="413" y="506"/>
      <point x="386" y="512"/>
    </contour>
  </outline>
</glyph>
<glyph name="f" format="2">
  <advance width="373"/>
  <unicode hex="0066"/>
  <outline>
    <contour>
      <point x="393" y="724" type="curve" smooth="yes"/>
      <point x="470" y="724" type="line"/>
      <point x="446" y="554" type="line"/>
      <point x="369" y="554" type="line" smooth="yes"/>
      <point x="359" y="554"/>
      <point x="349" y="550"/>
      <point x="340" y="542" type="curve" smooth="yes"/>
      <point x="331" y="534"/>
      <point x="326" y="523"/>
      <point x="324" y="512" type="curve" smooth="yes"/>
      <point x="322" y="500" type="line"/>
      <point x="439" y="500" type="line"/>
      <point x="415" y="330" type="line"/>
      <point x="298" y="330" type="line"/>
      <point x="252" y="0" type="line"/>
      <point x="90" y="0" type="line"/>
      <point x="137" y="330" type="line"/>
      <point x="65" y="330" type="line"/>
      <point x="89" y="500" type="line"/>
      <point x="161" y="500" type="line"/>
      <point x="162" y="512" type="line" smooth="yes"/>
      <point x="170" y="570"/>
      <point x="197" y="621"/>
      <point x="242" y="662" type="curve" smooth="yes"/>
      <point x="287" y="703"/>
      <point x="338" y="724"/>
    </contour>
  </outline>
</glyph>
<glyph name="g" format="2">
  <advance width="602"/>
  <unicode hex="0067"/>
  <outline>
    <contour>
      <point x="354" y="511" type="curve" smooth="yes"/>
      <point x="399" y="511"/>
      <point x="435" y="499"/>
      <point x="464" y="475" type="curve" smooth="yes"/>
      <point x="469" y="471"/>
      <point x="474" y="466"/>
      <point x="479" y="461" type="curve"/>
      <point x="485" y="499" type="line"/>
      <point x="633" y="499" type="line"/>
      <point x="563" y="59" type="line" smooth="yes"/>
      <point x="550" y="-27"/>
      <point x="517" y="-94"/>
      <point x="464" y="-143" type="curve" smooth="yes"/>
      <point x="411" y="-192"/>
      <point x="345" y="-215"/>
      <point x="267" y="-215" type="curve" smooth="yes"/>
      <point x="114" y="-215"/>
      <point x="69" y="-183"/>
      <point x="38" y="-151" type="curve"/>
      <point x="141" y="-13" type="line"/>
      <point x="187" y="-46"/>
      <point x="220" y="-57"/>
      <point x="283" y="-57" type="curve" smooth="yes"/>
      <point x="314" y="-57"/>
      <point x="339" y="-48"/>
      <point x="357" y="-28" type="curve" smooth="yes"/>
      <point x="366" y="-18"/>
      <point x="374" y="-5"/>
      <point x="380" y="9" type="curve" smooth="yes"/>
      <point x="381" y="10"/>
      <point x="381" y="12"/>
      <point x="382" y="13" type="curve"/>
      <point x="380" y="12"/>
      <point x="378" y="11"/>
      <point x="376" y="10" type="curve" smooth="yes"/>
      <point x="345" y="-5"/>
      <point x="310" y="-13"/>
      <point x="271" y="-13" type="curve" smooth="yes"/>
      <point x="199" y="-13"/>
      <point x="144" y="12"/>
      <point x="104" y="63" type="curve" smooth="yes"/>
      <point x="64" y="114"/>
      <point x="50" y="176"/>
      <point x="62" y="249" type="curve" smooth="yes"/>
      <point x="74" y="322"/>
      <point x="107" y="384"/>
      <point x="163" y="435" type="curve" smooth="yes"/>
      <point x="219" y="486"/>
      <point x="282" y="511"/>
    </contour>
    <contour>
      <point x="344" y="343" type="curve" smooth="yes"/>
      <point x="318" y="343"/>
      <point x="294" y="333"/>
      <point x="273" y="315" type="curve" smooth="yes"/>
      <point x="252" y="297"/>
      <point x="239" y="275"/>
      <point x="235" y="249" type="curve" smooth="yes"/>
      <point x="231" y="223"/>
      <point x="237" y="200"/>
      <point x="252" y="182" type="curve" smooth="yes"/>
      <point x="267" y="164"/>
      <point x="288" y="155"/>
      <point x="314" y="155" type="curve" smooth="yes"/>
      <point x="340" y="155"/>
      <point x="364" y="164"/>
      <point x="385" y="182" type="curve" smooth="yes"/>
      <point x="406" y="200"/>
      <point x="419" y="223"/>
      <point x="423" y="249" type="curve" smooth="yes"/>
      <point x="427" y="275"/>
      <point x="421" y="297"/>
      <point x="406" y="315" type="curve" smooth="yes"/>
      <point x="391" y="333"/>
      <point x="370" y="343"/>
    </contour>
  </outline>
</glyph>
<glyph name="h" format="2">
  <advance width="550"/>
  <unicode hex="0068"/>
  <outline>
    <contour>
      <point x="513" y="0" type="line"/>
      <point x="352" y="0" type="line"/>
      <point x="389" y="264" type="line" smooth="yes"/>
      <point x="392" y="287"/>
      <point x="388" y="306"/>
      <point x="376" y="320" type="curve" smooth="yes"/>
      <point x="364" y="334"/>
      <point x="348" y="342"/>
      <point x="327" y="342" type="curve" smooth="yes"/>
      <point x="306" y="342"/>
      <point x="288" y="334"/>
      <point x="272" y="320" type="curve" smooth="yes"/>
      <point x="256" y="306"/>
      <point x="246" y="287"/>
      <point x="243" y="264" type="curve" smooth="yes"/>
      <point x="206" y="0" type="line"/>
      <point x="45" y="0" type="line"/>
      <point x="143" y="700" type="line"/>
      <point x="305" y="700" type="line"/>
      <point x="273" y="475" type="line"/>
      <point x="278" y="479"/>
      <point x="283" y="483"/>
      <point x="288" y="486" type="curve" smooth="yes"/>
      <point x="316" y="504"/>
      <point x="348" y="512"/>
      <point x="385" y="512" type="curve" smooth="yes"/>
      <point x="448" y="512"/>
      <point x="494" y="488"/>
      <point x="522" y="440" type="curve" smooth="yes"/>
      <point x="550" y="392"/>
      <point x="560" y="331"/>
      <point x="549" y="256" type="curve" smooth="yes"/>
    </contour>
  </outline>
</glyph>
<glyph name="i" format="2">
  <advance width="275"/>
  <unicode hex="0069"/>
  <outline>
    <contour>
      <point x="57" y="0" type="line"/>
      <point x="127" y="500" type="line"/>
      <point x="289" y="500" type="line"/>
      <point x="218" y="0" type="line"/>
    </contour>
    <contour>
      <point x="324" y="648" type="curve" smooth="yes"/>
      <point x="320" y="621"/>
      <point x="307" y="598"/>
      <point x="286" y="578" type="curve" smooth="yes"/>
      <point x="265" y="558"/>
      <point x="241" y="548"/>
      <point x="215" y="548" type="curve" smooth="yes"/>
      <point x="189" y="548"/>
      <point x="168" y="558"/>
      <point x="152" y="578" type="curve" smooth="yes"/>
      <point x="136" y="598"/>
      <point x="130" y="621"/>
      <point x="134" y="648" type="curve" smooth="yes"/>
      <point x="138" y="675"/>
      <point x="151" y="698"/>
      <point x="172" y="718" type="curve" smooth="yes"/>
      <point x="193" y="738"/>
      <point x="217" y="748"/>
      <point x="243" y="748" type="curve" smooth="yes"/>
      <point x="269" y="748"/>
      <point x="290" y="738"/>
      <point x="306" y="718" type="curve" smooth="yes"/>
      <point x="322" y="698"/>
      <point x="328" y="675"/>
    </contour>
  </outline>
</glyph>
<glyph name="k" format="2">
  <advance width="594"/>
  <unicode hex="006B"/>
  <outline>
    <contour>
      <point x="48" y="0" type="line"/>
      <point x="159" y="700" type="line"/>
      <point x="329" y="700" type="line"/>
      <point x="273" y="349" type="line"/>
      <point x="432" y="500" type="line"/>
      <point x="660" y="500" type="line"/>
      <point x="423" y="275" type="line"/>
      <point x="581" y="0" type="line"/>
      <point x="370" y="0" type="line"/>
      <point x="286" y="146" type="line"/>
      <point x="233" y="95" type="line"/>
      <point x="218" y="0" type="line"/>
    </contour>
  </outline>
</glyph>
<glyph name="m" format="2">
  <advance width="907"/>
  <unicode hex="006D"/>
  <outline>
    <contour>
      <point x="864" y="0" type="line"/>
      <point x="694" y="0" type="line"/>
      <point x="736" y="264" type="line" smooth="yes"/>
      <point x="740" y="287"/>
      <point x="735" y="306"/>
      <point x="723" y="320" type="curve" smooth="yes"/>
      <point x="711" y="334"/>
      <point x="694" y="342"/>
      <point x="672" y="342" type="curve" smooth="yes"/>
      <point x="650" y="342"/>
      <point x="631" y="334"/>
      <point x="614" y="320" type="curve" smooth="yes"/>
      <point x="597" y="306"/>
      <point x="587" y="287"/>
      <point x="583" y="264" type="curve"/>
      <point x="541" y="0" type="line"/>
      <point x="371" y="0" type="line"/>
      <point x="413" y="264" type="line" smooth="yes"/>
      <point x="417" y="287"/>
      <point x="412" y="306"/>
      <point x="400" y="320" type="curve" smooth="yes"/>
      <point x="388" y="334"/>
      <point x="371" y="342"/>
      <point x="349" y="342" type="curve" smooth="yes"/>
      <point x="327" y="342"/>
      <point x="308" y="334"/>
      <point x="291" y="320" type="curve" smooth="yes"/>
      <point x="274" y="306"/>
      <point x="264" y="287"/>
      <point x="260" y="264" type="curve" smooth="yes"/>
      <point x="218" y="0" type="line"/>
      <point x="48" y="0" type="line"/>
      <point x="127" y="500" type="line"/>
      <point x="285" y="500" type="line"/>
      <point x="279" y="463" type="line"/>
      <point x="282" y="466"/>
      <point x="286" y="469"/>
      <point x="290" y="472" type="curve" smooth="yes"/>
      <point x="323" y="499"/>
      <point x="364" y="512"/>
      <point x="412" y="512" type="curve" smooth="yes"/>
      <point x="478" y="512"/>
      <point x="526" y="488"/>
      <point x="555" y="440" type="curve" smooth="yes"/>
      <point x="557" y="436"/>
      <point x="560" y="432"/>
      <point x="562" y="428" type="curve"/>
      <point x="565" y="432"/>
      <point x="569" y="437"/>
      <point x="573" y="441" type="curve" smooth="yes"/>
      <point x="615" y="488"/>
      <point x="669" y="512"/>
      <point x="735" y="512" type="curve" smooth="yes"/>
      <point x="801" y="512"/>
      <point x="849" y="488"/>
      <point x="878" y="440" type="curve" smooth="yes"/>
      <point x="907" y="392"/>
      <point x="917" y="331"/>
      <point x="905" y="256" type="curve" smooth="yes"/>
    </contour>
  </outline>
</glyph>
<glyph name="n" format="2">
  <advance width="549"/>
  <unicode hex="006E"/>
  <outline>
    <contour>
      <point x="511" y="0" type="line"/>
      <point x="350" y="0" type="line"/>
      <point x="387" y="264" type="line" smooth="yes"/>
      <point x="390" y="287"/>
      <point x="386" y="306"/>
      <point x="374" y="320" type="curve" smooth="yes"/>
      <point x="362" y="334"/>
      <point x="346" y="342"/>
      <point x="325" y="342" type="curve" smooth="yes"/>
      <point x="304" y="342"/>
      <point x="286" y="334"/>
      <point x="270" y="320" type="curve" smooth="yes"/>
      <point x="254" y="306"/>
      <point x="244" y="287"/>
      <point x="241" y="264" type="curve" smooth="yes"/>
      <point x="204" y="0" type="line"/>
      <point x="43" y="0" type="line"/>
      <point x="113" y="500" type="line"/>
      <point x="263" y="500" type="line"/>
      <point x="258" y="463" type="line"/>
      <point x="264" y="469"/>
      <point x="270" y="475"/>
      <point x="277" y="480" type="curve" smooth="yes"/>
      <point x="306" y="501"/>
      <point x="342" y="512"/>
      <point x="383" y="512" type="curve" smooth="yes"/>
      <point x="446" y="512"/>
      <point x="492" y="488"/>
      <point x="520" y="440" type="curve" smooth="yes"/>
      <point x="548" y="392"/>
      <point x="558" y="331"/>
      <point x="547" y="256" type="curve" smooth="yes"/>
    </contour>
  </outline>
</glyph>
<glyph name="o" format="2">
  <advance width="570"/>
  <unicode hex="006F"/>
  <outline>
    <contour>
      <point x="339.167" y="342" type="curve" smooth="yes"/>
      <point x="313.762" y="342"/>
      <point x="290.655" y="333.018"/>
      <point x="269.846" y="315.054" type="curve" smooth="yes"/>
      <point x="249.037" y="297.09"/>
      <point x="236.62" y="275.405"/>
      <point x="232.596" y="250" type="curve" smooth="yes"/>
      <point x="228.572" y="224.595"/>
      <point x="234.12" y="202.91"/>
      <point x="249.239" y="184.946" type="curve" smooth="yes"/>
      <point x="264.357" y="166.982"/>
      <point x="284.619" y="158"/>
      <point x="310.024" y="158" type="curve" smooth="yes"/>
      <point x="335.43" y="158"/>
      <point x="358.537" y="166.982"/>
      <point x="379.347" y="184.946" type="curve" smooth="yes"/>
      <point x="400.155" y="202.91"/>
      <point x="412.572" y="224.595"/>
      <point x="416.596" y="250" type="curve" smooth="yes"/>
      <point x="420.62" y="275.405"/>
      <point x="415.072" y="297.09"/>
      <point x="399.953" y="315.054" type="curve" smooth="yes"/>
      <point x="384.835" y="333.018"/>
      <point x="364.572" y="342"/>
    </contour>
    <contour>
      <point x="366.093" y="512" type="curve" smooth="yes"/>
      <point x="438.441" y="512"/>
      <point x="496.144" y="486.421"/>
      <point x="539.2" y="435.262" type="curve" smooth="yes"/>
      <point x="582.257" y="384.103"/>
      <point x="598.055" y="322.349"/>
      <point x="586.596" y="250" type="curve" smooth="yes"/>
      <point x="575.138" y="177.651"/>
      <point x="539.777" y="115.897"/>
      <point x="480.516" y="64.7383" type="curve" smooth="yes"/>
      <point x="421.253" y="13.5791"/>
      <point x="355.448" y="-12"/>
      <point x="283.1" y="-12" type="curve" smooth="yes"/>
      <point x="210.751" y="-12"/>
      <point x="153.048" y="13.5791"/>
      <point x="109.992" y="64.7383" type="curve" smooth="yes"/>
      <point x="66.9355" y="115.897"/>
      <point x="51.1377" y="177.651"/>
      <point x="62.5957" y="250" type="curve" smooth="yes"/>
      <point x="74.0547" y="322.349"/>
      <point x="109.415" y="384.103"/>
      <point x="168.677" y="435.262" type="curve" smooth="yes"/>
      <point x="227.938" y="486.421"/>
      <point x="293.744" y="512"/>
    </contour>
  </outline>
</glyph>
<glyph name="q" format="2">
  <advance width="602"/>
  <unicode hex="0071"/>
  <outline>
    <contour>
      <point x="485" y="500" type="line"/>
      <point x="633" y="500" type="line"/>
      <point x="522" y="-200" type="line"/>
      <point x="352" y="-200" type="line"/>
      <point x="387" y="20" type="line"/>
      <point x="379" y="15"/>
      <point x="371" y="12"/>
      <point x="363" y="8" type="curve" smooth="yes"/>
      <point x="335" y="-5"/>
      <point x="304" y="-12"/>
      <point x="271" y="-12" type="curve" smooth="yes"/>
      <point x="200" y="-12"/>
      <point x="145" y="13"/>
      <point x="105" y="64" type="curve" smooth="yes"/>
      <point x="65" y="115"/>
      <point x="51" y="177"/>
      <point x="63" y="250" type="curve" smooth="yes"/>
      <point x="75" y="323"/>
      <point x="108" y="385"/>
      <point x="164" y="436" type="curve" smooth="yes"/>
      <point x="220" y="487"/>
      <point x="283" y="512"/>
      <point x="354" y="512" type="curve" smooth="yes"/>
      <point x="397" y="512"/>
      <point x="432" y="503"/>
      <point x="460" y="484" type="curve" smooth="yes"/>
      <point x="467" y="479"/>
      <point x="474" y="473"/>
      <point x="480" y="467" type="curve"/>
    </contour>
    <contour>
      <point x="315" y="156" type="curve" smooth="yes"/>
      <point x="341" y="156"/>
      <point x="365" y="166"/>
      <point x="386" y="184" type="curve" smooth="yes"/>
      <point x="407" y="202"/>
      <point x="420" y="224"/>
      <point x="424" y="250" type="curve" smooth="yes"/>
      <point x="428" y="276"/>
      <point x="422" y="298"/>
      <point x="407" y="316" type="curve" smooth="yes"/>
      <point x="392" y="334"/>
      <point x="370" y="344"/>
      <point x="344" y="344" type="curve" smooth="yes"/>
      <point x="318" y="344"/>
      <point x="295" y="334"/>
      <point x="274" y="316" type="curve" smooth="yes"/>
      <point x="253" y="298"/>
      <point x="240" y="276"/>
      <point x="236" y="250" type="curve" smooth="yes"/>
      <point x="232" y="224"/>
      <point x="238" y="202"/>
      <point x="253" y="184" type="curve" smooth="yes"/>
      <point x="268" y="166"/>
      <point x="289" y="156"/>
    </contour>
  </outline>
</glyph>
<glyph name="s" format="2">
  <advance width="426"/>
  <unicode hex="0073"/>
  <outline>
    <contour>
      <point x="454" y="397" type="curve"/>
      <point x="295" y="342" type="line"/>
      <point x="293" y="350"/>
      <point x="290" y="355"/>
      <point x="285" y="359" type="curve" smooth="yes"/>
      <point x="281" y="362"/>
      <point x="275" y="364"/>
      <point x="268" y="364" type="curve" smooth="yes"/>
      <point x="260" y="364"/>
      <point x="253" y="362"/>
      <point x="247" y="358" type="curve" smooth="yes"/>
      <point x="241" y="354"/>
      <point x="238" y="349"/>
      <point x="238" y="343" type="curve" smooth="yes"/>
      <point x="238" y="332"/>
      <point x="251" y="325"/>
      <point x="278" y="323" type="curve" smooth="yes"/>
      <point x="292" y="322"/>
      <point x="300" y="322"/>
      <point x="303" y="321" type="curve" smooth="yes"/>
      <point x="336" y="315"/>
      <point x="362" y="302"/>
      <point x="382" y="283" type="curve" smooth="yes"/>
      <point x="418" y="248"/>
      <point x="432" y="204"/>
      <point x="424" y="149" type="curve" smooth="yes"/>
      <point x="415" y="93"/>
      <point x="388" y="50"/>
      <point x="342" y="20" type="curve" smooth="yes"/>
      <point x="309" y="-2"/>
      <point x="267" y="-12"/>
      <point x="215" y="-12" type="curve" smooth="yes"/>
      <point x="171" y="-11"/>
      <point x="132" y="-1"/>
      <point x="99" y="18" type="curve" smooth="yes"/>
      <point x="66" y="37"/>
      <point x="45" y="65"/>
      <point x="38" y="103" type="curve"/>
      <point x="199" y="161" type="line"/>
      <point x="203" y="146"/>
      <point x="214" y="139"/>
      <point x="229" y="139" type="curve" smooth="yes"/>
      <point x="239" y="139"/>
      <point x="247" y="141"/>
      <point x="252" y="144" type="curve" smooth="yes"/>
      <point x="257" y="147"/>
      <point x="260" y="152"/>
      <point x="260" y="158" type="curve" smooth="yes"/>
      <point x="260" y="168"/>
      <point x="242" y="175"/>
      <point x="204" y="179" type="curve" smooth="yes"/>
      <point x="197" y="180"/>
      <point x="191" y="180"/>
      <point x="187" y="181" type="curve" smooth="yes"/>
      <point x="144" y="189"/>
      <point x="114" y="209"/>
      <point x="96" y="239" type="curve" smooth="yes"/>
      <point x="78" y="269"/>
      <point x="71" y="304"/>
      <point x="76" y="345" type="curve" smooth="yes"/>
      <point x="84" y="399"/>
      <point x="108" y="440"/>
      <point x="149" y="468" type="curve" smooth="yes"/>
      <point x="190" y="496"/>
      <point x="237" y="511"/>
      <point x="286" y="512" type="curve" smooth="yes"/>
      <point x="333" y="512"/>
      <point x="371" y="502"/>
      <point x="399" y="482" type="curve" smooth="yes"/>
      <point x="426" y="463"/>
      <point x="444" y="434"/>
    </contour>
  </outline>
</glyph>
<glyph name="t" format="2">
  <advance width="399"/>
  <unicode hex="0074"/>
  <outline>
    <contour>
      <point x="192" y="656" type="line"/>
      <point x="362" y="656" type="line"/>
      <point x="337" y="500" type="line"/>
      <point x="450" y="500" type="line"/>
      <point x="423" y="330" type="line"/>
      <point x="310" y="330" type="line"/>
      <point x="295" y="235" type="line" smooth="yes"/>
      <point x="292" y="217"/>
      <point x="296" y="202"/>
      <point x="307" y="189" type="curve" smooth="yes"/>
      <point x="318" y="176"/>
      <point x="332" y="170"/>
      <point x="350" y="170" type="curve" smooth="yes"/>
      <point x="398" y="170" type="line"/>
      <point x="371" y="0" type="line"/>
      <point x="323" y="0" type="line" smooth="yes"/>
      <point x="258" y="0"/>
      <point x="207" y="23"/>
      <point x="168" y="69" type="curve" smooth="yes"/>
      <point x="129" y="115"/>
      <point x="115" y="170"/>
      <point x="125" y="235" type="curve" smooth="yes"/>
      <point x="140" y="330" type="line"/>
      <point x="65" y="330" type="line"/>
      <point x="92" y="500" type="line"/>
      <point x="167" y="500" type="line"/>
    </contour>
  </outline>
</glyph>
<glyph name="w" format="2">
  <advance width="803"/>
  <unicode hex="0077"/>
  <outline>
    <contour>
      <point x="695" y="500" type="line"/>
      <point x="864" y="500" type="line"/>
      <point x="640" y="0" type="line"/>
      <point x="471" y="0" type="line"/>
      <point x="433" y="225" type="line"/>
      <point x="332" y="0" type="line"/>
      <point x="163" y="0" type="line"/>
      <point x="80" y="500" type="line"/>
      <point x="249" y="500" type="line"/>
      <point x="286" y="275" type="line"/>
      <point x="388" y="500" type="line"/>
      <point x="557" y="500" type="line"/>
      <point x="594" y="275" type="line"/>
    </contour>
  </outline>
</glyph>
<glyph name="x" format="2">
  <advance width="531"/>
  <unicode hex="0078"/>
  <outline>
    <contour>
      <point x="279" y="96" type="line"/>
      <point x="205" y="0" type="line"/>
      <point x="10" y="0" type="line"/>
      <point x="203" y="250" type="line"/>
      <point x="80" y="500" type="line"/>
      <point x="274" y="500" type="line"/>
      <point x="322" y="402" type="line"/>
      <point x="398" y="500" type="line"/>
      <point x="592" y="500" type="line"/>
      <point x="398" y="249" type="line"/>
      <point x="522" y="0" type="line"/>
      <point x="327" y="0" type="line"/>
    </contour>
  </outline>
</glyph>
<glyph name="z" format="2">
  <advance width="454"/>
  <unicode hex="007A"/>
  <outline>
    <contour>
      <point x="23" y="0" type="line"/>
      <point x="50" y="170" type="line"/>
      <point x="240" y="330" type="line"/>
      <point x="75" y="330" type="line"/>
      <point x="102" y="500" type="line"/>
      <point x="510" y="500" type="line"/>
      <point x="483" y="330" type="line"/>
      <point x="293" y="170" type="line"/>
      <point x="458" y="170" type="line"/>
      <point x="431" y="0" type="line"/>
    </contour>
  </outline>
</glyph>
<glyph name="braceleft" format="2">
  <advance width="381"/>
  <unicode hex="007B"/>
  <outline>
    <contour>
      <point x="320" y="-100" type="line"/>
      <point x="252" y="-100"/>
      <point x="204" y="-76"/>
      <point x="175" y="-28" type="curve" smooth="yes"/>
      <point x="146" y="20"/>
      <point x="139" y="93"/>
      <point x="152" y="188" type="curve" smooth="yes"/>
      <point x="156" y="218"/>
      <point x="153" y="238"/>
      <point x="143" y="249" type="curve" smooth="yes"/>
      <point x="133" y="260"/>
      <point x="114" y="265"/>
      <point x="85" y="265" type="curve"/>
      <point x="109" y="435" type="line"/>
      <point x="138" y="435"/>
      <point x="159" y="440"/>
      <point x="172" y="451" type="curve" smooth="yes"/>
      <point x="185" y="462"/>
      <point x="193" y="482"/>
      <point x="197" y="512" type="curve" smooth="yes"/>
      <point x="210" y="607"/>
      <point x="238" y="680"/>
      <point x="281" y="728" type="curve" smooth="yes"/>
      <point x="324" y="776"/>
      <point x="379" y="800"/>
      <point x="447" y="800" type="curve"/>
      <point x="423" y="630" type="line"/>
      <point x="403" y="630"/>
      <point x="389" y="622"/>
      <point x="381" y="608" type="curve" smooth="yes"/>
      <point x="373" y="594"/>
      <point x="366" y="562"/>
      <point x="359" y="513" type="curve" smooth="yes"/>
      <point x="350" y="451"/>
      <point x="323" y="404"/>
      <point x="277" y="372" type="curve" smooth="yes"/>
      <point x="265" y="364"/>
      <point x="252" y="356"/>
      <point x="238" y="350" type="curve"/>
      <point x="251" y="344"/>
      <point x="261" y="336"/>
      <point x="271" y="328" type="curve" smooth="yes"/>
      <point x="308" y="296"/>
      <point x="322" y="249"/>
      <point x="313" y="187" type="curve" smooth="yes"/>
      <point x="306" y="139"/>
      <point x="305" y="108"/>
      <point x="309" y="94" type="curve" smooth="yes"/>
      <point x="313" y="80"/>
      <point x="325" y="71"/>
      <point x="344" y="70" type="curve"/>
    </contour>
  </outline>
</glyph>
<glyph name="bar" format="2">
  <advance width="275"/>
  <unicode hex="007C"/>
  <outline>
    <contour>
      <point x="168" y="790" type="line"/>
      <point x="330" y="790" type="line"/>
      <point x="188" y="-220" type="line"/>
      <point x="26" y="-220" type="line"/>
    </contour>
  </outline>
</glyph>
<glyph name="braceright" format="2">
  <advance width="381"/>
  <unicode hex="007D"/>
  <outline>
    <contour>
      <point x="33" y="-100" type="line"/>
      <point x="101" y="-100"/>
      <point x="156" y="-76"/>
      <point x="199" y="-28" type="curve" smooth="yes"/>
      <point x="242" y="20"/>
      <point x="270" y="93"/>
      <point x="283" y="188" type="curve" smooth="yes"/>
      <point x="287" y="218"/>
      <point x="296" y="238"/>
      <point x="309" y="249" type="curve" smooth="yes"/>
      <point x="322" y="260"/>
      <point x="343" y="265"/>
      <point x="372" y="265" type="curve"/>
      <point x="396" y="435" type="line"/>
      <point x="367" y="435"/>
      <point x="347" y="440"/>
      <point x="337" y="451" type="curve" smooth="yes"/>
      <point x="327" y="462"/>
      <point x="324" y="482"/>
      <point x="328" y="512" type="curve" smooth="yes"/>
      <point x="341" y="607"/>
      <point x="334" y="680"/>
      <point x="305" y="728" type="curve" smooth="yes"/>
      <point x="276" y="776"/>
      <point x="228" y="800"/>
      <point x="160" y="800" type="curve"/>
      <point x="136" y="630" type="line"/>
      <point x="156" y="630"/>
      <point x="167" y="622"/>
      <point x="171" y="608" type="curve" smooth="yes"/>
      <point x="175" y="594"/>
      <point x="174" y="562"/>
      <point x="167" y="513" type="curve" smooth="yes"/>
      <point x="158" y="451"/>
      <point x="172" y="404"/>
      <point x="209" y="372" type="curve" smooth="yes"/>
      <point x="219" y="364"/>
      <point x="229" y="356"/>
      <point x="242" y="350" type="curve"/>
      <point x="228" y="344"/>
      <point x="215" y="336"/>
      <point x="203" y="328" type="curve" smooth="yes"/>
      <point x="157" y="296"/>
      <point x="130" y="249"/>
      <point x="121" y="187" type="curve" smooth="yes"/>
      <point x="114" y="139"/>
      <point x="107" y="108"/>
      <point x="99" y="94" type="curve" smooth="yes"/>
      <point x="91" y="80"/>
      <point x="77" y="71"/>
      <point x="57" y="70" type="curve"/>
    </contour>
  </outline>
</glyph>
<glyph name="asciitilde" format="2">
  <advance width="702"/>
  <unicode hex="007E"/>
  <outline>
    <contour>
      <point x="319" y="488" type="curve" smooth="yes"/>
      <point x="415" y="488"/>
      <point x="474" y="447"/>
      <point x="494" y="366" type="curve" smooth="yes"/>
      <point x="497" y="354"/>
      <point x="500" y="344"/>
      <point x="504" y="336" type="curve" smooth="yes"/>
      <point x="510" y="322"/>
      <point x="520" y="315"/>
      <point x="536" y="315" type="curve" smooth="yes"/>
      <point x="548" y="315"/>
      <point x="559" y="320"/>
      <point x="568" y="329" type="curve" smooth="yes"/>
      <point x="580" y="341"/>
      <point x="589" y="361"/>
      <point x="595" y="388" type="curve"/>
      <point x="757" y="388" type="line"/>
      <point x="747" y="323"/>
      <point x="719" y="266"/>
      <point x="675" y="218" type="curve" smooth="yes"/>
      <point x="631" y="170"/>
      <point x="579" y="146"/>
      <point x="519" y="145" type="curve" smooth="yes"/>
      <point x="433" y="144"/>
      <point x="376" y="187"/>
      <point x="348" y="274" type="curve" smooth="yes"/>
      <point x="341" y="295"/>
      <point x="334" y="309"/>
      <point x="327" y="313" type="curve" smooth="yes"/>
      <point x="322" y="316"/>
      <point x="315" y="318"/>
      <point x="307" y="318" type="curve" smooth="yes"/>
      <point x="294" y="318"/>
      <point x="284" y="313"/>
      <point x="274" y="304" type="curve" smooth="yes"/>
      <point x="261" y="292"/>
      <point x="250" y="272"/>
      <point x="243" y="245" type="curve"/>
      <point x="82" y="245" type="line"/>
      <point x="92" y="310"/>
      <point x="120" y="368"/>
      <point x="164" y="416" type="curve" smooth="yes"/>
      <point x="208" y="464"/>
      <point x="260" y="488"/>
    </contour>
  </outline>
</glyph>
<glyph name="exclamdown" format="2">
  <advance width="332"/>
  <unicode hex="00A1"/>
  <outline>
    <contour>
      <point x="214.466" y="306" type="curve" smooth="yes"/>
      <point x="243.133" y="306"/>
      <point x="269.05" y="316"/>
      <point x="292.217" y="336" type="curve" smooth="yes"/>
      <point x="315.385" y="356"/>
      <point x="329.239" y="380.333"/>
      <point x="333.779" y="409" type="curve" smooth="yes"/>
      <point x="338.319" y="437.667"/>
      <point x="332.174" y="462"/>
      <point x="315.341" y="482" type="curve" smooth="yes"/>
      <point x="298.509" y="502"/>
      <point x="275.76" y="512"/>
      <point x="247.093" y="512" type="curve" smooth="yes"/>
      <point x="218.426" y="512"/>
      <point x="192.509" y="502"/>
      <point x="169.341" y="482" type="curve" smooth="yes"/>
      <point x="146.174" y="462"/>
      <point x="132.319" y="437.667"/>
      <point x="127.779" y="409" type="curve" smooth="yes"/>
      <point x="123.239" y="380.333"/>
      <point x="129.385" y="356"/>
      <point x="146.217" y="336" type="curve" smooth="yes"/>
      <point x="163.05" y="316"/>
      <point x="185.799" y="306"/>
    </contour>
    <contour>
      <point x="48.6895" y="-204" type="line"/>
      <point x="218.689" y="-204" type="line"/>
      <point x="289.804" y="245" type="line"/>
      <point x="119.804" y="245" type="line"/>
    </contour>
  </outline>
</glyph>
<glyph name="cent" format="2">
  <advance width="450"/>
  <unicode hex="00A2"/>
  <outline>
    <contour>
      <point x="391" y="609" type="line"/>
      <point x="443" y="601"/>
      <point x="485" y="576"/>
      <point x="519" y="535" type="curve"/>
      <point x="388" y="415" type="line"/>
      <point x="382" y="423"/>
      <point x="375" y="429"/>
      <point x="367" y="433" type="curve"/>
      <point x="343" y="267" type="line"/>
      <point x="352" y="271"/>
      <point x="362" y="277"/>
      <point x="370" y="285" type="curve"/>
      <point x="467" y="165" type="line"/>
      <point x="422" y="124"/>
      <point x="373" y="99"/>
      <point x="319" y="91" type="curve"/>
      <point x="306" y="0" type="line"/>
      <point x="211" y="0" type="line"/>
      <point x="224" y="94" type="line"/>
      <point x="181" y="105"/>
      <point x="144" y="129"/>
      <point x="115" y="165" type="curve" smooth="yes"/>
      <point x="74" y="216"/>
      <point x="58" y="278"/>
      <point x="68" y="350" type="curve" smooth="yes"/>
      <point x="78" y="422"/>
      <point x="111" y="484"/>
      <point x="167" y="535" type="curve" smooth="yes"/>
      <point x="207" y="571"/>
      <point x="250" y="595"/>
      <point x="296" y="606" type="curve"/>
      <point x="309" y="700" type="line"/>
      <point x="404" y="700" type="line"/>
    </contour>
    <contour>
      <point x="270" y="420" type="line"/>
      <point x="268" y="419"/>
      <point x="266" y="417"/>
      <point x="264" y="415" type="curve" smooth="yes"/>
      <point x="244" y="397"/>
      <point x="234" y="375"/>
      <point x="230" y="350" type="curve" smooth="yes"/>
      <point x="226" y="325"/>
      <point x="231" y="303"/>
      <point x="246" y="285" type="curve" smooth="yes"/>
      <point x="247" y="283"/>
      <point x="249" y="281"/>
      <point x="250" y="280" type="curve"/>
    </contour>
  </outline>
</glyph>
<glyph name="sterling" format="2">
  <advance width="582"/>
  <unicode hex="00A3"/>
  <outline>
    <contour>
      <point x="579" y="180" type="line"/>
      <point x="554" y="0" type="line"/>
      <point x="38" y="0" type="line"/>
      <point x="63" y="180" type="line"/>
      <point x="80" y="180"/>
      <point x="96" y="186"/>
      <point x="110" y="199" type="curve" smooth="yes"/>
      <point x="124" y="212"/>
      <point x="131" y="227"/>
      <point x="134" y="245" type="curve" smooth="yes"/>
      <point x="135" y="252" type="line"/>
      <point x="73" y="252" type="line"/>
      <point x="99" y="432" type="line"/>
      <point x="160" y="432" type="line"/>
      <point x="167" y="476" type="line" smooth="yes"/>
      <point x="176" y="542"/>
      <point x="206" y="598"/>
      <point x="257" y="645" type="curve" smooth="yes"/>
      <point x="308" y="692"/>
      <point x="364" y="715"/>
      <point x="427" y="715" type="curve" smooth="yes"/>
      <point x="490" y="715"/>
      <point x="540" y="692"/>
      <point x="578" y="645" type="curve" smooth="yes"/>
      <point x="616" y="598"/>
      <point x="630" y="542"/>
      <point x="621" y="476" type="curve"/>
      <point x="450" y="476" type="line"/>
      <point x="452" y="492"/>
      <point x="448" y="506"/>
      <point x="439" y="518" type="curve" smooth="yes"/>
      <point x="430" y="530"/>
      <point x="417" y="535"/>
      <point x="402" y="535" type="curve" smooth="yes"/>
      <point x="387" y="535"/>
      <point x="373" y="530"/>
      <point x="360" y="518" type="curve" smooth="yes"/>
      <point x="347" y="506"/>
      <point x="340" y="492"/>
      <point x="338" y="476" type="curve" smooth="yes"/>
      <point x="331" y="432" type="line"/>
      <point x="529" y="432" type="line"/>
      <point x="504" y="252" type="line"/>
      <point x="306" y="252" type="line"/>
      <point x="305" y="245" type="line" smooth="yes"/>
      <point x="302" y="223"/>
      <point x="296" y="201"/>
      <point x="287" y="180" type="curve"/>
    </contour>
  </outline>
</glyph>
<glyph name="currency" format="2">
  <advance width="612"/>
  <unicode hex="00A4"/>
  <outline>
    <contour>
      <point x="399" y="390" type="curve" smooth="yes"/>
      <point x="390" y="401"/>
      <point x="379" y="406"/>
      <point x="364" y="406" type="curve" smooth="yes"/>
      <point x="349" y="406"/>
      <point x="336" y="401"/>
      <point x="324" y="390" type="curve" smooth="yes"/>
      <point x="312" y="379"/>
      <point x="305" y="365"/>
      <point x="303" y="350" type="curve" smooth="yes"/>
      <point x="301" y="335"/>
      <point x="304" y="321"/>
      <point x="313" y="310" type="curve" smooth="yes"/>
      <point x="322" y="299"/>
      <point x="333" y="294"/>
      <point x="348" y="294" type="curve" smooth="yes"/>
      <point x="363" y="294"/>
      <point x="376" y="299"/>
      <point x="388" y="310" type="curve" smooth="yes"/>
      <point x="400" y="321"/>
      <point x="407" y="335"/>
      <point x="409" y="350" type="curve" smooth="yes"/>
      <point x="411" y="365"/>
      <point x="408" y="379"/>
    </contour>
    <contour>
      <point x="528" y="612" type="line"/>
      <point x="625" y="492" type="line"/>
      <point x="566" y="439" type="line"/>
      <point x="573" y="412"/>
      <point x="574" y="382"/>
      <point x="570" y="350" type="curve" smooth="yes"/>
      <point x="566" y="318"/>
      <point x="557" y="288"/>
      <point x="542" y="261" type="curve"/>
      <point x="585" y="208" type="line"/>
      <point x="454" y="88" type="line"/>
      <point x="411" y="141" type="line"/>
      <point x="384" y="129"/>
      <point x="354" y="124"/>
      <point x="324" y="124" type="curve" smooth="yes"/>
      <point x="294" y="124"/>
      <point x="266" y="129"/>
      <point x="242" y="141" type="curve"/>
      <point x="184" y="88" type="line"/>
      <point x="87" y="208" type="line"/>
      <point x="145" y="261" type="line"/>
      <point x="138" y="288"/>
      <point x="137" y="318"/>
      <point x="141" y="350" type="curve" smooth="yes"/>
      <point x="145" y="382"/>
      <point x="155" y="412"/>
      <point x="170" y="439" type="curve"/>
      <point x="127" y="492" type="line"/>
      <point x="258" y="612" type="line"/>
      <point x="301" y="559" type="line"/>
      <point x="328" y="571"/>
      <point x="358" y="576"/>
      <point x="388" y="576" type="curve" smooth="yes"/>
      <point x="418" y="576"/>
      <point x="445" y="571"/>
      <point x="469" y="559" type="curve"/>
    </contour>
  </outline>
</glyph>
<glyph name="yen" format="2">
  <advance width="585"/>
  <unicode hex="00A5"/>
  <outline>
    <contour>
      <point x="101" y="244" type="line"/>
      <point x="119" y="376" type="line"/>
      <point x="217" y="376" type="line"/>
      <point x="108" y="700" type="line"/>
      <point x="288" y="700" type="line"/>
      <point x="361" y="486" type="line"/>
      <point x="494" y="700" type="line"/>
      <point x="674" y="700" type="line"/>
      <point x="474" y="376" type="line"/>
      <point x="571" y="376" type="line"/>
      <point x="552" y="244" type="line"/>
      <point x="408" y="244" type="line"/>
      <point x="401" y="193" type="line"/>
      <point x="545" y="193" type="line"/>
      <point x="526" y="61" type="line"/>
      <point x="382" y="61" type="line"/>
      <point x="374" y="0" type="line"/>
      <point x="212" y="0" type="line"/>
      <point x="221" y="61" type="line"/>
      <point x="75" y="61" type="line"/>
      <point x="94" y="193" type="line"/>
      <point x="239" y="193" type="line"/>
      <point x="247" y="244" type="line"/>
    </contour>
  </outline>
</glyph>
<glyph name="brokenbar" format="2">
  <advance width="351"/>
  <unicode hex="00A6"/>
  <outline>
    <contour>
      <point x="64" y="-220" type="line"/>
      <point x="126" y="220" type="line"/>
      <point x="287" y="220" type="line"/>
      <point x="226" y="-220" type="line"/>
    </contour>
    <contour>
      <point x="144" y="350" type="line"/>
      <point x="206" y="790" type="line"/>
      <point x="368" y="790" type="line"/>
      <point x="306" y="350" type="line"/>
    </contour>
  </outline>
</glyph>
<glyph name="section" format="2">
  <advance width="428"/>
  <unicode hex="00A7"/>
  <outline>
    <contour>
      <point x="327" y="711" type="curve" smooth="yes"/>
      <point x="379" y="711"/>
      <point x="419" y="695"/>
      <point x="448" y="662" type="curve" smooth="yes"/>
      <point x="477" y="629"/>
      <point x="489" y="588"/>
      <point x="481" y="540" type="curve"/>
      <point x="369" y="540" type="line"/>
      <point x="372" y="557"/>
      <point x="367" y="571"/>
      <point x="356" y="582" type="curve" smooth="yes"/>
      <point x="345" y="593"/>
      <point x="330" y="599"/>
      <point x="309" y="599" type="curve" smooth="yes"/>
      <point x="288" y="599"/>
      <point x="270" y="593"/>
      <point x="256" y="582" type="curve" smooth="yes"/>
      <point x="242" y="571"/>
      <point x="234" y="557"/>
      <point x="231" y="540" type="curve" smooth="yes"/>
      <point x="228" y="523"/>
      <point x="232" y="509"/>
      <point x="243" y="498" type="curve" smooth="yes"/>
      <point x="254" y="487"/>
      <point x="269" y="481"/>
      <point x="290" y="481" type="curve" smooth="yes"/>
      <point x="342" y="481"/>
      <point x="383" y="465"/>
      <point x="412" y="432" type="curve" smooth="yes"/>
      <point x="441" y="399"/>
      <point x="452" y="358"/>
      <point x="444" y="310" type="curve" smooth="yes"/>
      <point x="438" y="271"/>
      <point x="421" y="236"/>
      <point x="393" y="207" type="curve" smooth="yes"/>
      <point x="389" y="203"/>
      <point x="385" y="199"/>
      <point x="381" y="195" type="curve"/>
      <point x="384" y="191"/>
      <point x="387" y="186"/>
      <point x="390" y="182" type="curve" smooth="yes"/>
      <point x="408" y="153"/>
      <point x="414" y="119"/>
      <point x="408" y="80" type="curve" smooth="yes"/>
      <point x="400" y="32"/>
      <point x="377" y="-9"/>
      <point x="337" y="-42" type="curve" smooth="yes"/>
      <point x="297" y="-75"/>
      <point x="252" y="-91"/>
      <point x="200" y="-91" type="curve" smooth="yes"/>
      <point x="148" y="-91"/>
      <point x="107" y="-75"/>
      <point x="78" y="-42" type="curve" smooth="yes"/>
      <point x="49" y="-9"/>
      <point x="38" y="32"/>
      <point x="46" y="80" type="curve"/>
      <point x="158" y="80" type="line"/>
      <point x="155" y="63"/>
      <point x="159" y="49"/>
      <point x="170" y="38" type="curve" smooth="yes"/>
      <point x="181" y="27"/>
      <point x="196" y="21"/>
      <point x="217" y="21" type="curve" smooth="yes"/>
      <point x="238" y="21"/>
      <point x="256" y="27"/>
      <point x="270" y="38" type="curve" smooth="yes"/>
      <point x="284" y="49"/>
      <point x="293" y="63"/>
      <point x="296" y="80" type="curve" smooth="yes"/>
      <point x="299" y="97"/>
      <point x="294" y="111"/>
      <point x="283" y="122" type="curve" smooth="yes"/>
      <point x="272" y="133"/>
      <point x="257" y="139"/>
      <point x="236" y="139" type="curve" smooth="yes"/>
      <point x="184" y="139"/>
      <point x="143" y="155"/>
      <point x="114" y="188" type="curve" smooth="yes"/>
      <point x="85" y="221"/>
      <point x="74" y="262"/>
      <point x="82" y="310" type="curve" smooth="yes"/>
      <point x="88" y="348"/>
      <point x="104" y="382"/>
      <point x="131" y="411" type="curve" smooth="yes"/>
      <point x="135" y="416"/>
      <point x="140" y="420"/>
      <point x="145" y="425" type="curve"/>
      <point x="142" y="429"/>
      <point x="139" y="434"/>
      <point x="136" y="438" type="curve" smooth="yes"/>
      <point x="118" y="467"/>
      <point x="113" y="501"/>
      <point x="119" y="540" type="curve" smooth="yes"/>
      <point x="127" y="588"/>
      <point x="149" y="629"/>
      <point x="189" y="662" type="curve" smooth="yes"/>
      <point x="229" y="695"/>
      <point x="275" y="711"/>
    </contour>
    <contour>
      <point x="272" y="369" type="curve" smooth="yes"/>
      <point x="251" y="369"/>
      <point x="234" y="363"/>
      <point x="220" y="352" type="curve" smooth="yes"/>
      <point x="206" y="341"/>
      <point x="197" y="327"/>
      <point x="194" y="310" type="curve" smooth="yes"/>
      <point x="191" y="293"/>
      <point x="195" y="279"/>
      <point x="206" y="268" type="curve" smooth="yes"/>
      <point x="217" y="257"/>
      <point x="233" y="251"/>
      <point x="254" y="251" type="curve" smooth="yes"/>
      <point x="275" y="251"/>
      <point x="292" y="257"/>
      <point x="306" y="268" type="curve" smooth="yes"/>
      <point x="320" y="279"/>
      <point x="329" y="293"/>
      <point x="332" y="310" type="curve" smooth="yes"/>
      <point x="335" y="327"/>
      <point x="331" y="341"/>
      <point x="320" y="352" type="curve" smooth="yes"/>
      <point x="309" y="363"/>
      <point x="293" y="369"/>
    </contour>
  </outline>
</glyph>
<glyph name="dieresis" format="2">
  <advance width="532"/>
  <unicode hex="00A8"/>
  <outline>
    <contour>
      <point x="248.996" y="745" type="curve" smooth="yes"/>
      <point x="272.996" y="745"/>
      <point x="292.291" y="736.333"/>
      <point x="306.878" y="719" type="curve" smooth="yes"/>
      <point x="321.466" y="701.667"/>
      <point x="326.859" y="681"/>
      <point x="323.059" y="657" type="curve" smooth="yes"/>
      <point x="319.258" y="633"/>
      <point x="307.317" y="612.333"/>
      <point x="287.238" y="595" type="curve" smooth="yes"/>
      <point x="267.16" y="577.667"/>
      <point x="245.121" y="569"/>
      <point x="221.121" y="569" type="curve" smooth="yes"/>
      <point x="197.121" y="569"/>
      <point x="177.826" y="577.667"/>
      <point x="163.238" y="595" type="curve" smooth="yes"/>
      <point x="148.651" y="612.333"/>
      <point x="143.258" y="633"/>
      <point x="147.059" y="657" type="curve" smooth="yes"/>
      <point x="150.859" y="681"/>
      <point x="162.8" y="701.667"/>
      <point x="182.878" y="719" type="curve" smooth="yes"/>
      <point x="202.957" y="736.333"/>
      <point x="224.996" y="745"/>
    </contour>
    <contour>
      <point x="518.996" y="745" type="curve" smooth="yes"/>
      <point x="542.996" y="745"/>
      <point x="562.291" y="736.333"/>
      <point x="576.878" y="719" type="curve" smooth="yes"/>
      <point x="591.466" y="701.667"/>
      <point x="596.859" y="681"/>
      <point x="593.059" y="657" type="curve" smooth="yes"/>
      <point x="589.258" y="633"/>
      <point x="577.317" y="612.333"/>
      <point x="557.238" y="595" type="curve" smooth="yes"/>
      <point x="537.16" y="577.667"/>
      <point x="515.121" y="569"/>
      <point x="491.121" y="569" type="curve" smooth="yes"/>
      <point x="467.121" y="569"/>
      <point x="447.826" y="577.667"/>
      <point x="433.238" y="595" type="curve" smooth="yes"/>
      <point x="418.651" y="612.333"/>
      <point x="413.258" y="633"/>
      <point x="417.059" y="657" type="curve" smooth="yes"/>
      <point x="420.859" y="681"/>
      <point x="432.8" y="701.667"/>
      <point x="452.878" y="719" type="curve" smooth="yes"/>
      <point x="472.957" y="736.333"/>
      <point x="494.996" y="745"/>
    </contour>
  </outline>
</glyph>
<glyph name="copyright" format="2">
  <advance width="779"/>
  <unicode hex="00A9"/>
  <outline>
    <contour>
      <point x="502" y="712" type="curve" smooth="yes"/>
      <point x="567" y="712"/>
      <point x="626" y="696"/>
      <point x="676" y="664" type="curve" smooth="yes"/>
      <point x="726" y="632"/>
      <point x="764" y="588"/>
      <point x="787" y="532" type="curve" smooth="yes"/>
      <point x="810" y="476"/>
      <point x="817" y="415"/>
      <point x="807" y="350" type="curve" smooth="yes"/>
      <point x="797" y="285"/>
      <point x="770" y="225"/>
      <point x="729" y="169" type="curve" smooth="yes"/>
      <point x="688" y="113"/>
      <point x="638" y="69"/>
      <point x="577" y="37" type="curve" smooth="yes"/>
      <point x="516" y="5"/>
      <point x="453" y="-11"/>
      <point x="388" y="-11" type="curve" smooth="yes"/>
      <point x="323" y="-11"/>
      <point x="264" y="5"/>
      <point x="214" y="37" type="curve" smooth="yes"/>
      <point x="164" y="69"/>
      <point x="126" y="113"/>
      <point x="103" y="169" type="curve" smooth="yes"/>
      <point x="80" y="225"/>
      <point x="74" y="285"/>
      <point x="84" y="350" type="curve" smooth="yes"/>
      <point x="94" y="415"/>
      <point x="120" y="476"/>
      <point x="161" y="532" type="curve" smooth="yes"/>
      <point x="202" y="588"/>
      <point x="252" y="632"/>
      <point x="313" y="664" type="curve" smooth="yes"/>
      <point x="374" y="696"/>
      <point x="437" y="712"/>
    </contour>
    <contour>
      <point x="483" y="592" type="curve" smooth="yes"/>
      <point x="416" y="592"/>
      <point x="356" y="568"/>
      <point x="301" y="521" type="curve" smooth="yes"/>
      <point x="246" y="474"/>
      <point x="215" y="417"/>
      <point x="204" y="350" type="curve" smooth="yes"/>
      <point x="193" y="283"/>
      <point x="207" y="227"/>
      <point x="247" y="180" type="curve" smooth="yes"/>
      <point x="287" y="133"/>
      <point x="340" y="109"/>
      <point x="407" y="109" type="curve" smooth="yes"/>
      <point x="474" y="109"/>
      <point x="534" y="133"/>
      <point x="589" y="180" type="curve" smooth="yes"/>
      <point x="644" y="227"/>
      <point x="676" y="283"/>
      <point x="687" y="350" type="curve" smooth="yes"/>
      <point x="698" y="417"/>
      <point x="683" y="474"/>
      <point x="643" y="521" type="curve" smooth="yes"/>
      <point x="603" y="568"/>
      <point x="550" y="592"/>
    </contour>
    <contour>
      <point x="475" y="548" type="curve" smooth="yes"/>
      <point x="530" y="548"/>
      <point x="573" y="529"/>
      <point x="605" y="490" type="curve"/>
      <point x="507" y="405" type="line"/>
      <point x="494" y="420"/>
      <point x="477" y="428"/>
      <point x="456" y="428" type="curve" smooth="yes"/>
      <point x="435" y="428"/>
      <point x="415" y="420"/>
      <point x="397" y="405" type="curve" smooth="yes"/>
      <point x="379" y="390"/>
      <point x="369" y="371"/>
      <point x="366" y="350" type="curve" smooth="yes"/>
      <point x="363" y="329"/>
      <point x="367" y="311"/>
      <point x="380" y="296" type="curve" smooth="yes"/>
      <point x="393" y="281"/>
      <point x="410" y="273"/>
      <point x="431" y="273" type="curve" smooth="yes"/>
      <point x="452" y="273"/>
      <point x="472" y="281"/>
      <point x="489" y="296" type="curve"/>
      <point x="561" y="211" type="line"/>
      <point x="516" y="172"/>
      <point x="466" y="153"/>
      <point x="412" y="153" type="curve" smooth="yes"/>
      <point x="357" y="153"/>
      <point x="314" y="172"/>
      <point x="282" y="211" type="curve" smooth="yes"/>
      <point x="250" y="250"/>
      <point x="237" y="295"/>
      <point x="246" y="350" type="curve" smooth="yes"/>
      <point x="255" y="405"/>
      <point x="281" y="451"/>
      <point x="326" y="490" type="curve" smooth="yes"/>
      <point x="371" y="529"/>
      <point x="420" y="548"/>
    </contour>
  </outline>
</glyph>
<glyph name="ordfeminine" format="2">
  <advance width="365"/>
  <unicode hex="00AA"/>
  <outline>
    <contour>
      <point x="357.637" y="699.8" type="line"/>
      <point x="446.437" y="699.8" type="line"/>
      <point x="398.922" y="399.8" type="line"/>
      <point x="310.122" y="399.8" type="line"/>
      <point x="313.257" y="419.594" type="line"/>
      <point x="289.643" y="401.598"/>
      <point x="261.618" y="392.6"/>
      <point x="229.182" y="392.6" type="curve" smooth="yes"/>
      <point x="186.382" y="392.6"/>
      <point x="153.089" y="407.8"/>
      <point x="129.304" y="438.2" type="curve" smooth="yes"/>
      <point x="105.519" y="468.6"/>
      <point x="97.1104" y="505.8"/>
      <point x="104.08" y="549.8" type="curve" smooth="yes"/>
      <point x="111.049" y="593.8"/>
      <point x="131.24" y="631"/>
      <point x="164.655" y="661.399" type="curve" smooth="yes"/>
      <point x="198.07" y="691.8"/>
      <point x="236.178" y="707"/>
      <point x="278.978" y="707" type="curve" smooth="yes"/>
      <point x="310.541" y="707"/>
      <point x="335.559" y="697.008"/>
      <point x="354.029" y="677.022" type="curve"/>
    </contour>
    <contour>
      <point x="273.213" y="606.2" type="curve" smooth="yes"/>
      <point x="257.612" y="606.2"/>
      <point x="243.441" y="600.7"/>
      <point x="230.699" y="589.7" type="curve" smooth="yes"/>
      <point x="217.957" y="578.7"/>
      <point x="210.351" y="565.4"/>
      <point x="207.88" y="549.8" type="curve" smooth="yes"/>
      <point x="205.408" y="534.199"/>
      <point x="208.802" y="520.899"/>
      <point x="218.06" y="509.899" type="curve" smooth="yes"/>
      <point x="227.317" y="498.899"/>
      <point x="239.746" y="493.399"/>
      <point x="255.347" y="493.399" type="curve" smooth="yes"/>
      <point x="270.946" y="493.399"/>
      <point x="285.117" y="498.899"/>
      <point x="297.859" y="509.899" type="curve" smooth="yes"/>
      <point x="310.602" y="520.899"/>
      <point x="318.208" y="534.199"/>
      <point x="320.68" y="549.8" type="curve" smooth="yes"/>
      <point x="323.15" y="565.4"/>
      <point x="319.757" y="578.7"/>
      <point x="310.499" y="589.7" type="curve" smooth="yes"/>
      <point x="301.241" y="600.7"/>
      <point x="288.812" y="606.2"/>
    </contour>
  </outline>
</glyph>
<glyph name="guillemotleft" format="2">
  <advance width="778"/>
  <unicode hex="00AB"/>
  <outline>
    <contour>
      <point x="360" y="544" type="line"/>
      <point x="457" y="424" type="line"/>
      <point x="319" y="298" type="line"/>
      <point x="421" y="172" type="line"/>
      <point x="290" y="52" type="line"/>
      <point x="91" y="298" type="line"/>
    </contour>
    <contour>
      <point x="685" y="544" type="line"/>
      <point x="783" y="424" type="line"/>
      <point x="645" y="298" type="line"/>
      <point x="747" y="172" type="line"/>
      <point x="616" y="52" type="line"/>
      <point x="417" y="298" type="line"/>
    </contour>
  </outline>
</glyph>
<glyph name="logicalnot" format="2">
  <advance width="646"/>
  <unicode hex="00AC"/>
  <outline>
    <contour>
      <point x="171" y="239" type="line"/>
      <point x="198" y="409" type="line"/>
      <point x="568" y="409" type="line"/>
      <point x="524" y="135" type="line"/>
      <point x="354" y="135" type="line"/>
      <point x="371" y="239" type="line"/>
    </contour>
  </outline>
</glyph>
<glyph name="uni00AD" format="2">
  <advance width="380"/>
  <unicode hex="00AD"/>
  <outline>
    <contour>
      <point x="58" y="213" type="line"/>
      <point x="82" y="383" type="line"/>
      <point x="405" y="383" type="line"/>
      <point x="381" y="213" type="line"/>
    </contour>
  </outline>
</glyph>
<glyph name="registered" format="2">
  <advance width="577"/>
  <unicode hex="00AE"/>
  <outline>
    <contour>
      <point x="389" y="712" type="curve" smooth="yes"/>
      <point x="464" y="712"/>
      <point x="523" y="684"/>
      <point x="568" y="629" type="curve" smooth="yes"/>
      <point x="613" y="574"/>
      <point x="630" y="507"/>
      <point x="619" y="428" type="curve" smooth="yes"/>
      <point x="608" y="349"/>
      <point x="572" y="282"/>
      <point x="512" y="227" type="curve" smooth="yes"/>
      <point x="452" y="172"/>
      <point x="384" y="144"/>
      <point x="309" y="144" type="curve" smooth="yes"/>
      <point x="234" y="144"/>
      <point x="175" y="172"/>
      <point x="130" y="227" type="curve" smooth="yes"/>
      <point x="85" y="282"/>
      <point x="68" y="349"/>
      <point x="79" y="428" type="curve" smooth="yes"/>
      <point x="90" y="507"/>
      <point x="126" y="574"/>
      <point x="186" y="629" type="curve" smooth="yes"/>
      <point x="246" y="684"/>
      <point x="314" y="712"/>
    </contour>
    <contour>
      <point x="375" y="612" type="curve" smooth="yes"/>
      <point x="327" y="612"/>
      <point x="283" y="594"/>
      <point x="244" y="558" type="curve" smooth="yes"/>
      <point x="205" y="522"/>
      <point x="181" y="479"/>
      <point x="174" y="428" type="curve" smooth="yes"/>
      <point x="167" y="377"/>
      <point x="178" y="334"/>
      <point x="207" y="298" type="curve" smooth="yes"/>
      <point x="236" y="262"/>
      <point x="275" y="244"/>
      <point x="323" y="244" type="curve" smooth="yes"/>
      <point x="371" y="244"/>
      <point x="415" y="262"/>
      <point x="454" y="298" type="curve" smooth="yes"/>
      <point x="493" y="334"/>
      <point x="517" y="377"/>
      <point x="524" y="428" type="curve" smooth="yes"/>
      <point x="531" y="479"/>
      <point x="520" y="522"/>
      <point x="491" y="558" type="curve" smooth="yes"/>
      <point x="462" y="594"/>
      <point x="423" y="612"/>
    </contour>
    <contour>
      <point x="268" y="577" type="line"/>
      <point x="383" y="577" type="line" smooth="yes"/>
      <point x="410" y="577"/>
      <point x="431" y="567"/>
      <point x="447" y="547" type="curve" smooth="yes"/>
      <point x="463" y="527"/>
      <point x="469" y="503"/>
      <point x="465" y="475" type="curve" smooth="yes"/>
      <point x="463" y="459"/>
      <point x="458" y="444"/>
      <point x="450" y="431" type="curve" smooth="yes"/>
      <point x="442" y="417"/>
      <point x="430" y="405"/>
      <point x="416" y="395" type="curve"/>
      <point x="439" y="286" type="line"/>
      <point x="355" y="286" type="line"/>
      <point x="337" y="373" type="line"/>
      <point x="317" y="373" type="line"/>
      <point x="305" y="286" type="line"/>
      <point x="227" y="286" type="line"/>
    </contour>
    <contour>
      <point x="335" y="499" type="line"/>
      <point x="328" y="451" type="line"/>
      <point x="356" y="451" type="line" smooth="yes"/>
      <point x="364" y="451"/>
      <point x="371" y="454"/>
      <point x="377" y="458" type="curve" smooth="yes"/>
      <point x="383" y="462"/>
      <point x="386" y="468"/>
      <point x="387" y="475" type="curve" smooth="yes"/>
      <point x="388" y="482"/>
      <point x="387" y="488"/>
      <point x="382" y="492" type="curve" smooth="yes"/>
      <point x="377" y="496"/>
      <point x="370" y="499"/>
      <point x="362" y="499" type="curve" smooth="yes"/>
    </contour>
  </outline>
</glyph>
<glyph name="macron" format="2">
  <advance width="306"/>
  <unicode hex="00AF"/>
  <outline>
    <contour>
      <point x="70" y="549" type="line"/>
      <point x="94" y="700" type="line"/>
      <point x="434" y="700" type="line"/>
      <point x="410" y="549" type="line"/>
    </contour>
  </outline>
</glyph>
<glyph name="degree" format="2">
  <advance width="393"/>
  <unicode hex="00B0"/>
  <outline>
    <contour>
      <point x="311" y="724" type="curve" smooth="yes"/>
      <point x="356" y="724"/>
      <point x="392" y="709"/>
      <point x="419" y="677" type="curve" smooth="yes"/>
      <point x="446" y="645"/>
      <point x="456" y="606"/>
      <point x="449" y="561" type="curve" smooth="yes"/>
      <point x="442" y="516"/>
      <point x="420" y="477"/>
      <point x="383" y="445" type="curve" smooth="yes"/>
      <point x="346" y="413"/>
      <point x="304" y="398"/>
      <point x="259" y="398" type="curve" smooth="yes"/>
      <point x="214" y="398"/>
      <point x="178" y="413"/>
      <point x="151" y="445" type="curve" smooth="yes"/>
      <point x="124" y="477"/>
      <point x="115" y="516"/>
      <point x="122" y="561" type="curve" smooth="yes"/>
      <point x="129" y="606"/>
      <point x="151" y="645"/>
      <point x="188" y="677" type="curve" smooth="yes"/>
      <point x="225" y="709"/>
      <point x="266" y="724"/>
    </contour>
    <contour>
      <point x="289" y="584" type="curve" smooth="yes"/>
      <point x="283" y="584"/>
      <point x="276" y="583"/>
      <point x="271" y="578" type="curve" smooth="yes"/>
      <point x="266" y="573"/>
      <point x="263" y="567"/>
      <point x="262" y="561" type="curve" smooth="yes"/>
      <point x="261" y="555"/>
      <point x="262" y="549"/>
      <point x="266" y="544" type="curve" smooth="yes"/>
      <point x="270" y="539"/>
      <point x="276" y="538"/>
      <point x="282" y="538" type="curve" smooth="yes"/>
      <point x="288" y="538"/>
      <point x="294" y="539"/>
      <point x="299" y="544" type="curve" smooth="yes"/>
      <point x="304" y="549"/>
      <point x="308" y="555"/>
      <point x="309" y="561" type="curve" smooth="yes"/>
      <point x="310" y="567"/>
      <point x="309" y="573"/>
      <point x="305" y="578" type="curve" smooth="yes"/>
      <point x="301" y="583"/>
      <point x="295" y="584"/>
    </contour>
  </outline>
</glyph>
<glyph name="plusminus" format="2">
  <advance width="608"/>
  <unicode hex="00B1"/>
  <outline>
    <contour>
      <point x="81" y="0" type="line"/>
      <point x="105" y="170" type="line"/>
      <point x="551" y="170" type="line"/>
      <point x="527" y="0" type="line"/>
    </contour>
    <contour>
      <point x="138" y="308" type="line"/>
      <point x="162" y="478" type="line"/>
      <point x="290" y="478" type="line"/>
      <point x="309" y="608" type="line"/>
      <point x="470" y="608" type="line"/>
      <point x="452" y="478" type="line"/>
      <point x="580" y="478" type="line"/>
      <point x="556" y="308" type="line"/>
      <point x="428" y="308" type="line"/>
      <point x="410" y="178" type="line"/>
      <point x="248" y="178" type="line"/>
      <point x="267" y="308" type="line"/>
    </contour>
  </outline>
</glyph>
<glyph name="uni00B2" format="2">
  <advance width="378"/>
  <unicode hex="00B2"/>
  <outline>
    <contour>
      <point x="311" y="808" type="curve" smooth="yes"/>
      <point x="350" y="808"/>
      <point x="381" y="794"/>
      <point x="406" y="767" type="curve" smooth="yes"/>
      <point x="431" y="740"/>
      <point x="440" y="707"/>
      <point x="434" y="669" type="curve" smooth="yes"/>
      <point x="427" y="627"/>
      <point x="409" y="594"/>
      <point x="379" y="569" type="curve" smooth="yes"/>
      <point x="271" y="482" type="line"/>
      <point x="404" y="482" type="line"/>
      <point x="388" y="380" type="line"/>
      <point x="104" y="380" type="line"/>
      <point x="120" y="482" type="line"/>
      <point x="312" y="636" type="line" smooth="yes"/>
      <point x="324" y="646"/>
      <point x="330" y="657"/>
      <point x="332" y="669" type="curve" smooth="yes"/>
      <point x="334" y="680"/>
      <point x="332" y="689"/>
      <point x="325" y="696" type="curve" smooth="yes"/>
      <point x="318" y="703"/>
      <point x="308" y="706"/>
      <point x="298" y="706" type="curve" smooth="yes"/>
      <point x="288" y="706"/>
      <point x="279" y="703"/>
      <point x="270" y="697" type="curve" smooth="yes"/>
      <point x="261" y="691"/>
      <point x="255" y="683"/>
      <point x="252" y="672" type="curve"/>
      <point x="155" y="691" type="line"/>
      <point x="166" y="725"/>
      <point x="187" y="753"/>
      <point x="216" y="775" type="curve" smooth="yes"/>
      <point x="245" y="797"/>
      <point x="277" y="808"/>
    </contour>
  </outline>
</glyph>
<glyph name="uni00B3" format="2">
  <advance width="361"/>
  <unicode hex="00B3"/>
  <outline>
    <contour>
      <point x="310" y="807" type="curve" smooth="yes"/>
      <point x="348" y="807"/>
      <point x="379" y="794"/>
      <point x="402" y="769" type="curve" smooth="yes"/>
      <point x="425" y="744"/>
      <point x="434" y="713"/>
      <point x="428" y="677" type="curve" smooth="yes"/>
      <point x="426" y="662"/>
      <point x="419" y="646"/>
      <point x="407" y="629" type="curve" smooth="yes"/>
      <point x="399" y="617"/>
      <point x="388" y="605"/>
      <point x="375" y="592" type="curve"/>
      <point x="384" y="580"/>
      <point x="390" y="568"/>
      <point x="395" y="557" type="curve" smooth="yes"/>
      <point x="403" y="539"/>
      <point x="405" y="522"/>
      <point x="402" y="506" type="curve" smooth="yes"/>
      <point x="396" y="470"/>
      <point x="378" y="438"/>
      <point x="346" y="412" type="curve" smooth="yes"/>
      <point x="314" y="386"/>
      <point x="279" y="374"/>
      <point x="241" y="374" type="curve" smooth="yes"/>
      <point x="208" y="374"/>
      <point x="180" y="384"/>
      <point x="156" y="403" type="curve" smooth="yes"/>
      <point x="132" y="422"/>
      <point x="120" y="447"/>
      <point x="118" y="476" type="curve"/>
      <point x="220" y="499" type="line"/>
      <point x="221" y="491"/>
      <point x="226" y="486"/>
      <point x="233" y="482" type="curve" smooth="yes"/>
      <point x="240" y="478"/>
      <point x="249" y="476"/>
      <point x="259" y="476" type="curve" smooth="yes"/>
      <point x="268" y="476"/>
      <point x="276" y="479"/>
      <point x="285" y="485" type="curve" smooth="yes"/>
      <point x="294" y="491"/>
      <point x="300" y="499"/>
      <point x="301" y="508" type="curve" smooth="yes"/>
      <point x="303" y="518"/>
      <point x="300" y="526"/>
      <point x="294" y="532" type="curve" smooth="yes"/>
      <point x="288" y="538"/>
      <point x="280" y="541"/>
      <point x="268" y="541" type="curve" smooth="yes"/>
      <point x="247" y="541" type="line"/>
      <point x="263" y="643" type="line"/>
      <point x="284" y="643" type="line" smooth="yes"/>
      <point x="295" y="643"/>
      <point x="304" y="646"/>
      <point x="312" y="652" type="curve" smooth="yes"/>
      <point x="320" y="658"/>
      <point x="324" y="666"/>
      <point x="326" y="676" type="curve" smooth="yes"/>
      <point x="327" y="685"/>
      <point x="325" y="692"/>
      <point x="318" y="697" type="curve" smooth="yes"/>
      <point x="311" y="702"/>
      <point x="304" y="705"/>
      <point x="294" y="705" type="curve" smooth="yes"/>
      <point x="282" y="705"/>
      <point x="272" y="702"/>
      <point x="264" y="697" type="curve" smooth="yes"/>
      <point x="258" y="693"/>
      <point x="253" y="688"/>
      <point x="250" y="681" type="curve"/>
      <point x="155" y="706" type="line"/>
      <point x="166" y="735"/>
      <point x="187" y="759"/>
      <point x="217" y="778" type="curve" smooth="yes"/>
      <point x="247" y="797"/>
      <point x="278" y="807"/>
    </contour>
  </outline>
</glyph>
<glyph name="acute" format="2">
  <advance width="286"/>
  <unicode hex="00B4"/>
  <outline>
    <contour>
      <point x="76" y="554" type="line"/>
      <point x="197" y="700" type="line"/>
      <point x="383" y="700" type="line"/>
      <point x="243" y="554" type="line"/>
    </contour>
  </outline>
</glyph>
<glyph name="mu" format="2">
  <advance width="549"/>
  <unicode hex="00B5"/>
  <outline>
    <contour>
      <point x="577" y="500" type="line"/>
      <point x="506" y="0" type="line"/>
      <point x="366" y="0" type="line"/>
      <point x="371" y="35" type="line"/>
      <point x="350" y="4"/>
      <point x="316" y="-12"/>
      <point x="270" y="-12" type="curve" smooth="yes"/>
      <point x="228" y="-12"/>
      <point x="199" y="2"/>
      <point x="183" y="31" type="curve"/>
      <point x="150" y="-200" type="line"/>
      <point x="10" y="-200" type="line"/>
      <point x="108" y="500" type="line"/>
      <point x="270" y="500" type="line"/>
      <point x="234" y="244" type="line" smooth="yes"/>
      <point x="230" y="219"/>
      <point x="234" y="198"/>
      <point x="246" y="182" type="curve" smooth="yes"/>
      <point x="258" y="166"/>
      <point x="274" y="158"/>
      <point x="294" y="158" type="curve" smooth="yes"/>
      <point x="314" y="158"/>
      <point x="333" y="166"/>
      <point x="349" y="182" type="curve" smooth="yes"/>
      <point x="365" y="198"/>
      <point x="375" y="219"/>
      <point x="379" y="244" type="curve" smooth="yes"/>
      <point x="415" y="500" type="line"/>
    </contour>
  </outline>
</glyph>
<glyph name="paragraph" format="2">
  <advance width="627"/>
  <unicode hex="00B6"/>
  <outline>
    <contour>
      <point x="336" y="700" type="curve" smooth="yes"/>
      <point x="366" y="700" type="line"/>
      <point x="669" y="700" type="line"/>
      <point x="559" y="-84" type="line"/>
      <point x="429" y="-84" type="line"/>
      <point x="515" y="530" type="line"/>
      <point x="473" y="530" type="line"/>
      <point x="386" y="-84" type="line"/>
      <point x="256" y="-84" type="line"/>
      <point x="297" y="210" type="line"/>
      <point x="267" y="210" type="line" smooth="yes"/>
      <point x="203" y="210"/>
      <point x="152" y="234"/>
      <point x="113" y="282" type="curve" smooth="yes"/>
      <point x="74" y="330"/>
      <point x="60" y="388"/>
      <point x="69" y="455" type="curve" smooth="yes"/>
      <point x="78" y="522"/>
      <point x="109" y="580"/>
      <point x="161" y="628" type="curve" smooth="yes"/>
      <point x="213" y="676"/>
      <point x="272" y="700"/>
    </contour>
  </outline>
</glyph>
<glyph name="periodcentered" format="2">
  <advance width="272"/>
  <unicode hex="00B7"/>
  <outline>
    <contour>
      <point x="294" y="349" type="curve" smooth="yes"/>
      <point x="289" y="320"/>
      <point x="276" y="296"/>
      <point x="253" y="276" type="curve" smooth="yes"/>
      <point x="230" y="256"/>
      <point x="204" y="246"/>
      <point x="175" y="246" type="curve" smooth="yes"/>
      <point x="146" y="246"/>
      <point x="124" y="256"/>
      <point x="107" y="276" type="curve" smooth="yes"/>
      <point x="90" y="296"/>
      <point x="83" y="320"/>
      <point x="88" y="349" type="curve" smooth="yes"/>
      <point x="93" y="378"/>
      <point x="107" y="402"/>
      <point x="130" y="422" type="curve" smooth="yes"/>
      <point x="153" y="442"/>
      <point x="179" y="452"/>
      <point x="208" y="452" type="curve" smooth="yes"/>
      <point x="237" y="452"/>
      <point x="259" y="442"/>
      <point x="276" y="422" type="curve" smooth="yes"/>
      <point x="293" y="402"/>
      <point x="299" y="378"/>
    </contour>
  </outline>
</glyph>
<glyph name="cedilla" format="2">
  <advance width="241"/>
  <unicode hex="00B8"/>
  <outline>
    <contour>
      <point x="212" y="83" type="line"/>
      <point x="246" y="50"/>
      <point x="258" y="7"/>
      <point x="251" y="-45" type="curve" smooth="yes"/>
      <point x="245" y="-90"/>
      <point x="224" y="-130"/>
      <point x="189" y="-162" type="curve" smooth="yes"/>
      <point x="154" y="-194"/>
      <point x="114" y="-210"/>
      <point x="71" y="-210" type="curve" smooth="yes"/>
      <point x="35" y="-210"/>
      <point x="5" y="-198"/>
      <point x="-20" y="-175" type="curve"/>
      <point x="33" y="-109"/>
      <point x="59" y="-76"/>
      <point x="59" y="-76" type="curve" smooth="yes"/>
      <point x="66" y="-85"/>
      <point x="76" y="-90"/>
      <point x="88" y="-90" type="curve" smooth="yes"/>
      <point x="100" y="-90"/>
      <point x="111" y="-86"/>
      <point x="120" y="-77" type="curve" smooth="yes"/>
      <point x="129" y="-68"/>
      <point x="135" y="-58"/>
      <point x="137" y="-45" type="curve" smooth="yes"/>
      <point x="139" y="-34"/>
      <point x="137" y="-23"/>
      <point x="131" y="-15" type="curve" smooth="yes"/>
      <point x="125" y="-7"/>
      <point x="116" y="-1"/>
      <point x="106" y="-0" type="curve"/>
    </contour>
  </outline>
</glyph>
<glyph name="uni00B9" format="2">
  <advance width="285"/>
  <unicode hex="00B9"/>
  <outline>
    <contour>
      <point x="252.708" y="800" type="line"/>
      <point x="354.708" y="800" type="line"/>
      <point x="288.187" y="380" type="line"/>
      <point x="186.187" y="380" type="line"/>
      <point x="231.618" y="666.849" type="line"/>
      <point x="170.512" y="621.589" type="line"/>
      <point x="117.321" y="699.725" type="line"/>
    </contour>
  </outline>
</glyph>
<glyph name="ordmasculine" format="2">
  <advance width="348"/>
  <unicode hex="00BA"/>
  <outline>
    <contour>
      <point x="286" y="707" type="curve" smooth="yes"/>
      <point x="329" y="707"/>
      <point x="364" y="692"/>
      <point x="390" y="661" type="curve" smooth="yes"/>
      <point x="416" y="630"/>
      <point x="425" y="593"/>
      <point x="418" y="550" type="curve" smooth="yes"/>
      <point x="411" y="507"/>
      <point x="390" y="470"/>
      <point x="354" y="439" type="curve" smooth="yes"/>
      <point x="318" y="408"/>
      <point x="279" y="393"/>
      <point x="236" y="393" type="curve" smooth="yes"/>
      <point x="193" y="393"/>
      <point x="158" y="408"/>
      <point x="132" y="439" type="curve" smooth="yes"/>
      <point x="106" y="470"/>
      <point x="97" y="507"/>
      <point x="104" y="550" type="curve" smooth="yes"/>
      <point x="111" y="593"/>
      <point x="131" y="630"/>
      <point x="167" y="661" type="curve" smooth="yes"/>
      <point x="203" y="692"/>
      <point x="243" y="707"/>
    </contour>
    <contour>
      <point x="270" y="605" type="curve" smooth="yes"/>
      <point x="255" y="605"/>
      <point x="240" y="600"/>
      <point x="228" y="589" type="curve" smooth="yes"/>
      <point x="216" y="578"/>
      <point x="208" y="565"/>
      <point x="206" y="550" type="curve" smooth="yes"/>
      <point x="204" y="535"/>
      <point x="207" y="522"/>
      <point x="216" y="511" type="curve" smooth="yes"/>
      <point x="225" y="500"/>
      <point x="237" y="495"/>
      <point x="252" y="495" type="curve" smooth="yes"/>
      <point x="267" y="495"/>
      <point x="282" y="500"/>
      <point x="294" y="511" type="curve" smooth="yes"/>
      <point x="306" y="522"/>
      <point x="314" y="535"/>
      <point x="316" y="550" type="curve" smooth="yes"/>
      <point x="318" y="565"/>
      <point x="315" y="578"/>
      <point x="306" y="589" type="curve" smooth="yes"/>
      <point x="297" y="600"/>
      <point x="285" y="605"/>
    </contour>
  </outline>
</glyph>
<glyph name="guillemotright" format="2">
  <advance width="826"/>
  <unicode hex="00BB"/>
  <outline>
    <contour>
      <point x="261" y="544" type="line"/>
      <point x="122" y="424" type="line"/>
      <point x="228" y="298" type="line"/>
      <point x="82" y="172" type="line"/>
      <point x="183" y="52" type="line"/>
      <point x="468" y="298" type="line"/>
    </contour>
    <contour>
      <point x="601" y="544" type="line"/>
      <point x="462" y="424" type="line"/>
      <point x="568" y="298" type="line"/>
      <point x="422" y="172" type="line"/>
      <point x="523" y="52" type="line"/>
      <point x="808" y="298" type="line"/>
    </contour>
  </outline>
</glyph>
<glyph name="onequarter" format="2">
  <advance width="805"/>
  <unicode hex="00BC"/>
  <outline>
    <contour>
      <point x="623" y="420" type="line"/>
      <point x="705" y="377" type="line"/>
      <point x="578" y="167" type="line"/>
      <point x="647" y="167" type="line"/>
      <point x="663" y="279" type="line"/>
      <point x="760" y="279" type="line"/>
      <point x="744" y="167" type="line"/>
      <point x="794" y="167" type="line"/>
      <point x="779" y="65" type="line"/>
      <point x="730" y="65" type="line"/>
      <point x="720" y="0" type="line"/>
      <point x="624" y="0" type="line"/>
      <point x="633" y="65" type="line"/>
      <point x="457" y="65" type="line"/>
      <point x="471" y="167" type="line"/>
    </contour>
    <contour>
      <point x="644" y="697" type="line"/>
      <point x="724" y="633" type="line"/>
      <point x="215" y="12" type="line"/>
      <point x="137" y="75" type="line"/>
    </contour>
    <contour>
      <point x="215" y="700" type="line"/>
      <point x="312" y="700" type="line"/>
      <point x="253" y="280" type="line"/>
      <point x="156" y="280" type="line"/>
      <point x="197" y="567" type="line"/>
      <point x="139" y="522" type="line"/>
      <point x="88" y="600" type="line"/>
    </contour>
  </outline>
</glyph>
<glyph name="onehalf" format="2">
  <advance width="883"/>
  <unicode hex="00BD"/>
  <outline>
    <contour>
      <point x="756" y="428" type="curve" smooth="yes"/>
      <point x="795" y="428"/>
      <point x="826" y="414"/>
      <point x="851" y="387" type="curve" smooth="yes"/>
      <point x="876" y="360"/>
      <point x="885" y="327"/>
      <point x="879" y="289" type="curve" smooth="yes"/>
      <point x="872" y="247"/>
      <point x="854" y="214"/>
      <point x="824" y="189" type="curve" smooth="yes"/>
      <point x="716" y="102" type="line"/>
      <point x="848" y="102" type="line"/>
      <point x="832" y="0" type="line"/>
      <point x="549" y="0" type="line"/>
      <point x="565" y="102" type="line"/>
      <point x="757" y="256" type="line" smooth="yes"/>
      <point x="769" y="266"/>
      <point x="775" y="277"/>
      <point x="777" y="289" type="curve" smooth="yes"/>
      <point x="779" y="300"/>
      <point x="776" y="309"/>
      <point x="769" y="316" type="curve" smooth="yes"/>
      <point x="762" y="323"/>
      <point x="753" y="326"/>
      <point x="743" y="326" type="curve" smooth="yes"/>
      <point x="733" y="326"/>
      <point x="723" y="323"/>
      <point x="714" y="317" type="curve" smooth="yes"/>
      <point x="705" y="311"/>
      <point x="700" y="303"/>
      <point x="697" y="292" type="curve"/>
      <point x="600" y="311" type="line"/>
      <point x="611" y="345"/>
      <point x="632" y="373"/>
      <point x="661" y="395" type="curve" smooth="yes"/>
      <point x="690" y="417"/>
      <point x="722" y="428"/>
    </contour>
    <contour>
      <point x="688" y="697" type="line"/>
      <point x="772" y="633" type="line"/>
      <point x="230" y="12" type="line"/>
      <point x="148" y="75" type="line"/>
    </contour>
    <contour>
      <point x="237" y="700" type="line"/>
      <point x="339" y="700" type="line"/>
      <point x="272" y="280" type="line"/>
      <point x="170" y="280" type="line"/>
      <point x="216" y="567" type="line"/>
      <point x="155" y="522" type="line"/>
      <point x="101" y="600" type="line"/>
    </contour>
  </outline>
</glyph>
<glyph name="threequarters" format="2">
  <advance width="930"/>
  <unicode hex="00BE"/>
  <outline>
    <contour>
      <point x="739" y="420" type="line"/>
      <point x="825" y="377" type="line"/>
      <point x="689" y="167" type="line"/>
      <point x="762" y="167" type="line"/>
      <point x="780" y="279" type="line"/>
      <point x="882" y="279" type="line"/>
      <point x="864" y="167" type="line"/>
      <point x="916" y="167" type="line"/>
      <point x="900" y="65" type="line"/>
      <point x="848" y="65" type="line"/>
      <point x="837" y="0" type="line"/>
      <point x="735" y="0" type="line"/>
      <point x="746" y="65" type="line"/>
      <point x="561" y="65" type="line"/>
      <point x="577" y="167" type="line"/>
    </contour>
    <contour>
      <point x="764" y="697" type="line"/>
      <point x="848" y="633" type="line"/>
      <point x="306" y="12" type="line"/>
      <point x="224" y="75" type="line"/>
    </contour>
    <contour>
      <point x="294" y="707" type="curve" smooth="yes"/>
      <point x="332" y="707"/>
      <point x="363" y="694"/>
      <point x="386" y="669" type="curve" smooth="yes"/>
      <point x="409" y="644"/>
      <point x="418" y="613"/>
      <point x="412" y="577" type="curve" smooth="yes"/>
      <point x="410" y="562"/>
      <point x="403" y="546"/>
      <point x="391" y="529" type="curve" smooth="yes"/>
      <point x="383" y="517"/>
      <point x="372" y="505"/>
      <point x="359" y="492" type="curve"/>
      <point x="368" y="480"/>
      <point x="374" y="468"/>
      <point x="379" y="457" type="curve" smooth="yes"/>
      <point x="387" y="439"/>
      <point x="389" y="422"/>
      <point x="386" y="406" type="curve" smooth="yes"/>
      <point x="380" y="370"/>
      <point x="362" y="338"/>
      <point x="330" y="312" type="curve" smooth="yes"/>
      <point x="298" y="286"/>
      <point x="263" y="274"/>
      <point x="225" y="274" type="curve" smooth="yes"/>
      <point x="192" y="274"/>
      <point x="165" y="284"/>
      <point x="141" y="303" type="curve" smooth="yes"/>
      <point x="117" y="322"/>
      <point x="104" y="347"/>
      <point x="102" y="376" type="curve"/>
      <point x="205" y="399" type="line"/>
      <point x="206" y="391"/>
      <point x="210" y="386"/>
      <point x="217" y="382" type="curve" smooth="yes"/>
      <point x="224" y="378"/>
      <point x="233" y="376"/>
      <point x="243" y="376" type="curve" smooth="yes"/>
      <point x="252" y="376"/>
      <point x="261" y="379"/>
      <point x="270" y="385" type="curve" smooth="yes"/>
      <point x="279" y="391"/>
      <point x="284" y="399"/>
      <point x="285" y="408" type="curve" smooth="yes"/>
      <point x="287" y="418"/>
      <point x="284" y="426"/>
      <point x="278" y="432" type="curve" smooth="yes"/>
      <point x="272" y="438"/>
      <point x="264" y="441"/>
      <point x="252" y="441" type="curve" smooth="yes"/>
      <point x="231" y="441" type="line"/>
      <point x="248" y="543" type="line"/>
      <point x="268" y="543" type="line" smooth="yes"/>
      <point x="279" y="543"/>
      <point x="288" y="546"/>
      <point x="296" y="552" type="curve" smooth="yes"/>
      <point x="304" y="558"/>
      <point x="308" y="566"/>
      <point x="310" y="576" type="curve" smooth="yes"/>
      <point x="311" y="585"/>
      <point x="309" y="592"/>
      <point x="302" y="597" type="curve" smooth="yes"/>
      <point x="295" y="602"/>
      <point x="288" y="605"/>
      <point x="278" y="605" type="curve" smooth="yes"/>
      <point x="266" y="605"/>
      <point x="256" y="602"/>
      <point x="248" y="597" type="curve" smooth="yes"/>
      <point x="242" y="593"/>
      <point x="238" y="588"/>
      <point x="235" y="581" type="curve"/>
      <point x="140" y="606" type="line"/>
      <point x="151" y="635"/>
      <point x="171" y="659"/>
      <point x="201" y="678" type="curve" smooth="yes"/>
      <point x="231" y="697"/>
      <point x="262" y="707"/>
    </contour>
  </outline>
</glyph>
<glyph name="questiondown" format="2">
  <advance width="469"/>
  <unicode hex="00BF"/>
  <outline>
    <contour>
      <point x="209" y="409" type="curve" smooth="yes"/>
      <point x="214" y="438"/>
      <point x="228" y="462"/>
      <point x="251" y="482" type="curve" smooth="yes"/>
      <point x="274" y="502"/>
      <point x="299" y="512"/>
      <point x="328" y="512" type="curve" smooth="yes"/>
      <point x="357" y="512"/>
      <point x="380" y="502"/>
      <point x="397" y="482" type="curve" smooth="yes"/>
      <point x="414" y="462"/>
      <point x="420" y="438"/>
      <point x="415" y="409" type="curve" smooth="yes"/>
      <point x="410" y="380"/>
      <point x="396" y="356"/>
      <point x="373" y="336" type="curve" smooth="yes"/>
      <point x="350" y="316"/>
      <point x="325" y="306"/>
      <point x="296" y="306" type="curve" smooth="yes"/>
      <point x="267" y="306"/>
      <point x="244" y="316"/>
      <point x="227" y="336" type="curve" smooth="yes"/>
      <point x="210" y="356"/>
      <point x="204" y="380"/>
    </contour>
    <contour>
      <point x="204" y="-215" type="curve" smooth="yes"/>
      <point x="139" y="-215"/>
      <point x="88" y="-192"/>
      <point x="49" y="-146" type="curve" smooth="yes"/>
      <point x="10" y="-100"/>
      <point x="-4" y="-45"/>
      <point x="6" y="20" type="curve" smooth="yes"/>
      <point x="13" y="65"/>
      <point x="32" y="107"/>
      <point x="63" y="145" type="curve" smooth="yes"/>
      <point x="94" y="183"/>
      <point x="131" y="213"/>
      <point x="175" y="233" type="curve" smooth="yes"/>
      <point x="187" y="238"/>
      <point x="196" y="245"/>
      <point x="203" y="255" type="curve" smooth="yes"/>
      <point x="209" y="263"/>
      <point x="212" y="273"/>
      <point x="214" y="284" type="curve"/>
      <point x="384" y="284" type="line"/>
      <point x="377" y="242"/>
      <point x="358" y="202"/>
      <point x="329" y="164" type="curve" smooth="yes"/>
      <point x="300" y="126"/>
      <point x="265" y="97"/>
      <point x="224" y="79" type="curve" smooth="yes"/>
      <point x="211" y="73"/>
      <point x="200" y="65"/>
      <point x="192" y="56" type="curve" smooth="yes"/>
      <point x="184" y="46"/>
      <point x="178" y="34"/>
      <point x="176" y="20" type="curve" smooth="yes"/>
      <point x="173" y="1"/>
      <point x="177" y="-15"/>
      <point x="187" y="-27" type="curve" smooth="yes"/>
      <point x="197" y="-39"/>
      <point x="212" y="-45"/>
      <point x="231" y="-45" type="curve" smooth="yes"/>
      <point x="248" y="-45"/>
      <point x="263" y="-40"/>
      <point x="277" y="-29" type="curve" smooth="yes"/>
      <point x="291" y="-18"/>
      <point x="300" y="-4"/>
      <point x="305" y="13" type="curve"/>
      <point x="469" y="-11" type="line"/>
      <point x="452" y="-69"/>
      <point x="418" y="-118"/>
      <point x="368" y="-157" type="curve" smooth="yes"/>
      <point x="318" y="-196"/>
      <point x="263" y="-215"/>
    </contour>
  </outline>
</glyph>
<glyph name="Agrave" format="2">
  <advance width="654"/>
  <unicode hex="00C0"/>
  <outline>
    <contour>
      <point x="336" y="754" type="line"/>
      <point x="237" y="901" type="line"/>
      <point x="423" y="901" type="line"/>
      <point x="503" y="754" type="line"/>
    </contour>
    <contour>
      <point x="300" y="263" type="line"/>
      <point x="423" y="263" type="line"/>
      <point x="385" y="446" type="line"/>
    </contour>
    <contour>
      <point x="221" y="93" type="line"/>
      <point x="178" y="0" type="line"/>
      <point x="7" y="0" type="line"/>
      <point x="333" y="700" type="line"/>
      <point x="503" y="700" type="line"/>
      <point x="648" y="0" type="line"/>
      <point x="477" y="0" type="line"/>
      <point x="458" y="93" type="line"/>
    </contour>
  </outline>
</glyph>
<glyph name="Aacute" format="2">
  <advance width="654"/>
  <unicode hex="00C1"/>
  <outline>
    <contour>
      <point x="298" y="265" type="line"/>
      <point x="421" y="265" type="line"/>
      <point x="384" y="448" type="line"/>
    </contour>
    <contour>
      <point x="219" y="95" type="line"/>
      <point x="176" y="2" type="line"/>
      <point x="5" y="2" type="line"/>
      <point x="331" y="702" type="line"/>
      <point x="501" y="702" type="line"/>
      <point x="646" y="2" type="line"/>
      <point x="475" y="2" type="line"/>
      <point x="456" y="95" type="line"/>
    </contour>
    <contour>
      <point x="339" y="744" type="line"/>
      <point x="461" y="890" type="line"/>
      <point x="647" y="890" type="line"/>
      <point x="506" y="744" type="line"/>
    </contour>
  </outline>
</glyph>
<glyph name="Acircumflex" format="2">
  <advance width="654"/>
  <unicode hex="00C2"/>
  <outline>
    <contour>
      <point x="225" y="754" type="line"/>
      <point x="369" y="900" type="line"/>
      <point x="528" y="900" type="line"/>
      <point x="631" y="754" type="line"/>
      <point x="475" y="754" type="line"/>
      <point x="435" y="806" type="line"/>
      <point x="381" y="754" type="line"/>
    </contour>
    <contour>
      <point x="300" y="263" type="line"/>
      <point x="423" y="263" type="line"/>
      <point x="385" y="446" type="line"/>
    </contour>
    <contour>
      <point x="221" y="93" type="line"/>
      <point x="178" y="0" type="line"/>
      <point x="7" y="0" type="line"/>
      <point x="333" y="700" type="line"/>
      <point x="503" y="700" type="line"/>
      <point x="648" y="0" type="line"/>
      <point x="477" y="0" type="line"/>
      <point x="458" y="93" type="line"/>
    </contour>
  </outline>
</glyph>
<glyph name="Atilde" format="2">
  <advance width="695"/>
  <unicode hex="00C3"/>
  <outline>
    <contour>
      <point x="531" y="734" type="curve" smooth="yes"/>
      <point x="490" y="734"/>
      <point x="462" y="746"/>
      <point x="447" y="770" type="curve" smooth="yes"/>
      <point x="441" y="779"/>
      <point x="436" y="788"/>
      <point x="430" y="795" type="curve" smooth="yes"/>
      <point x="424" y="802"/>
      <point x="416" y="806"/>
      <point x="405" y="806" type="curve" smooth="yes"/>
      <point x="390" y="806"/>
      <point x="377" y="793"/>
      <point x="367" y="767" type="curve"/>
      <point x="250" y="767" type="line"/>
      <point x="259" y="809"/>
      <point x="281" y="844"/>
      <point x="313" y="871" type="curve" smooth="yes"/>
      <point x="345" y="898"/>
      <point x="379" y="912"/>
      <point x="415" y="912" type="curve" smooth="yes"/>
      <point x="460" y="912"/>
      <point x="491" y="900"/>
      <point x="508" y="876" type="curve" smooth="yes"/>
      <point x="515" y="867"/>
      <point x="520" y="858"/>
      <point x="525" y="851" type="curve" smooth="yes"/>
      <point x="530" y="844"/>
      <point x="537" y="840"/>
      <point x="547" y="840" type="curve" smooth="yes"/>
      <point x="561" y="840"/>
      <point x="572" y="853"/>
      <point x="579" y="879" type="curve"/>
      <point x="696" y="879" type="line"/>
      <point x="685" y="836"/>
      <point x="664" y="801"/>
      <point x="633" y="774" type="curve" smooth="yes"/>
      <point x="602" y="747"/>
      <point x="568" y="734"/>
    </contour>
    <contour>
      <point x="321" y="263" type="line"/>
      <point x="451" y="263" type="line"/>
      <point x="413" y="446" type="line"/>
    </contour>
    <contour>
      <point x="236" y="93" type="line"/>
      <point x="190" y="0" type="line"/>
      <point x="10" y="0" type="line"/>
      <point x="361" y="700" type="line"/>
      <point x="540" y="700" type="line"/>
      <point x="685" y="0" type="line"/>
      <point x="505" y="0" type="line"/>
      <point x="486" y="93" type="line"/>
    </contour>
  </outline>
</glyph>
<glyph name="Adieresis" format="2">
  <advance width="654"/>
  <unicode hex="00C4"/>
  <outline>
    <contour>
      <point x="323" y="945" type="curve" smooth="yes"/>
      <point x="346" y="945"/>
      <point x="364" y="936"/>
      <point x="378" y="919" type="curve" smooth="yes"/>
      <point x="392" y="902"/>
      <point x="397" y="881"/>
      <point x="394" y="857" type="curve" smooth="yes"/>
      <point x="391" y="833"/>
      <point x="380" y="812"/>
      <point x="361" y="795" type="curve" smooth="yes"/>
      <point x="342" y="778"/>
      <point x="321" y="769"/>
      <point x="298" y="769" type="curve" smooth="yes"/>
      <point x="275" y="769"/>
      <point x="257" y="778"/>
      <point x="243" y="795" type="curve" smooth="yes"/>
      <point x="229" y="812"/>
      <point x="224" y="833"/>
      <point x="227" y="857" type="curve" smooth="yes"/>
      <point x="230" y="881"/>
      <point x="241" y="902"/>
      <point x="260" y="919" type="curve" smooth="yes"/>
      <point x="279" y="936"/>
      <point x="300" y="945"/>
    </contour>
    <contour>
      <point x="579" y="945" type="curve" smooth="yes"/>
      <point x="602" y="945"/>
      <point x="621" y="936"/>
      <point x="635" y="919" type="curve" smooth="yes"/>
      <point x="649" y="902"/>
      <point x="654" y="881"/>
      <point x="651" y="857" type="curve" smooth="yes"/>
      <point x="648" y="833"/>
      <point x="636" y="812"/>
      <point x="617" y="795" type="curve" smooth="yes"/>
      <point x="598" y="778"/>
      <point x="578" y="769"/>
      <point x="555" y="769" type="curve" smooth="yes"/>
      <point x="532" y="769"/>
      <point x="513" y="778"/>
      <point x="499" y="795" type="curve" smooth="yes"/>
      <point x="485" y="812"/>
      <point x="480" y="833"/>
      <point x="483" y="857" type="curve" smooth="yes"/>
      <point x="486" y="881"/>
      <point x="498" y="902"/>
      <point x="517" y="919" type="curve" smooth="yes"/>
      <point x="536" y="936"/>
      <point x="556" y="945"/>
    </contour>
    <contour>
      <point x="300" y="263" type="line"/>
      <point x="423" y="263" type="line"/>
      <point x="385" y="446" type="line"/>
    </contour>
    <contour>
      <point x="221" y="93" type="line"/>
      <point x="178" y="0" type="line"/>
      <point x="7" y="0" type="line"/>
      <point x="333" y="700" type="line"/>
      <point x="503" y="700" type="line"/>
      <point x="648" y="0" type="line"/>
      <point x="477" y="0" type="line"/>
      <point x="458" y="93" type="line"/>
    </contour>
  </outline>
</glyph>
<glyph name="Aring" format="2">
  <advance width="654"/>
  <unicode hex="00C5"/>
  <outline>
    <contour>
      <point x="457" y="979" type="curve" smooth="yes"/>
      <point x="491" y="979"/>
      <point x="518" y="966"/>
      <point x="538" y="941" type="curve" smooth="yes"/>
      <point x="558" y="916"/>
      <point x="567" y="886"/>
      <point x="562" y="850" type="curve" smooth="yes"/>
      <point x="557" y="814"/>
      <point x="541" y="783"/>
      <point x="513" y="758" type="curve" smooth="yes"/>
      <point x="485" y="733"/>
      <point x="454" y="720"/>
      <point x="420" y="720" type="curve" smooth="yes"/>
      <point x="386" y="720"/>
      <point x="359" y="733"/>
      <point x="339" y="758" type="curve" smooth="yes"/>
      <point x="319" y="783"/>
      <point x="311" y="814"/>
      <point x="316" y="850" type="curve" smooth="yes"/>
      <point x="321" y="886"/>
      <point x="336" y="916"/>
      <point x="364" y="941" type="curve" smooth="yes"/>
      <point x="392" y="966"/>
      <point x="423" y="979"/>
    </contour>
    <contour>
      <point x="443" y="882" type="curve" smooth="yes"/>
      <point x="435" y="882"/>
      <point x="427" y="878"/>
      <point x="420" y="872" type="curve" smooth="yes"/>
      <point x="413" y="866"/>
      <point x="409" y="859"/>
      <point x="408" y="850" type="curve" smooth="yes"/>
      <point x="407" y="841"/>
      <point x="409" y="833"/>
      <point x="414" y="827" type="curve" smooth="yes"/>
      <point x="419" y="821"/>
      <point x="426" y="817"/>
      <point x="434" y="817" type="curve" smooth="yes"/>
      <point x="442" y="817"/>
      <point x="450" y="821"/>
      <point x="457" y="827" type="curve" smooth="yes"/>
      <point x="464" y="833"/>
      <point x="468" y="841"/>
      <point x="469" y="850" type="curve" smooth="yes"/>
      <point x="470" y="859"/>
      <point x="469" y="866"/>
      <point x="464" y="872" type="curve" smooth="yes"/>
      <point x="459" y="878"/>
      <point x="451" y="882"/>
    </contour>
    <contour>
      <point x="300" y="263" type="line"/>
      <point x="423" y="263" type="line"/>
      <point x="385" y="446" type="line"/>
    </contour>
    <contour>
      <point x="221" y="93" type="line"/>
      <point x="178" y="0" type="line"/>
      <point x="7" y="0" type="line"/>
      <point x="333" y="700" type="line"/>
      <point x="503" y="700" type="line"/>
      <point x="648" y="0" type="line"/>
      <point x="477" y="0" type="line"/>
      <point x="458" y="93" type="line"/>
    </contour>
  </outline>
</glyph>
<glyph name="AE" format="2">
  <advance width="1039"/>
  <unicode hex="00C6"/>
  <outline>
    <contour>
      <point x="612" y="700" type="line"/>
      <point x="1087" y="700" type="line"/>
      <point x="1060" y="530" type="line"/>
      <point x="755" y="530" type="line"/>
      <point x="740" y="435" type="line"/>
      <point x="975" y="435" type="line"/>
      <point x="948" y="266" type="line"/>
      <point x="713" y="266" type="line"/>
      <point x="698" y="170" type="line"/>
      <point x="1004" y="170" type="line"/>
      <point x="977" y="0" type="line"/>
      <point x="501" y="0" type="line"/>
      <point x="517" y="99" type="line"/>
      <point x="311" y="99" type="line"/>
      <point x="228" y="0" type="line"/>
      <point x="22" y="0" type="line"/>
    </contour>
    <contour>
      <point x="564" y="399" type="line"/>
      <point x="451" y="265" type="line"/>
      <point x="543" y="265" type="line"/>
    </contour>
  </outline>
</glyph>
<glyph name="Ccedilla" format="2">
  <advance width="625"/>
  <unicode hex="00C7"/>
  <outline>
    <contour>
      <point x="424" y="83" type="line"/>
      <point x="458" y="50"/>
      <point x="470" y="7"/>
      <point x="463" y="-45" type="curve" smooth="yes"/>
      <point x="457" y="-90"/>
      <point x="436" y="-130"/>
      <point x="401" y="-162" type="curve" smooth="yes"/>
      <point x="366" y="-194"/>
      <point x="326" y="-210"/>
      <point x="283" y="-210" type="curve" smooth="yes"/>
      <point x="247" y="-210"/>
      <point x="217" y="-198"/>
      <point x="192" y="-175" type="curve"/>
      <point x="245" y="-109"/>
      <point x="271" y="-76"/>
      <point x="271" y="-76" type="curve" smooth="yes"/>
      <point x="278" y="-85"/>
      <point x="288" y="-90"/>
      <point x="300" y="-90" type="curve" smooth="yes"/>
      <point x="312" y="-90"/>
      <point x="323" y="-86"/>
      <point x="332" y="-77" type="curve" smooth="yes"/>
      <point x="341" y="-68"/>
      <point x="347" y="-58"/>
      <point x="349" y="-45" type="curve" smooth="yes"/>
      <point x="351" y="-34"/>
      <point x="349" y="-23"/>
      <point x="343" y="-15" type="curve" smooth="yes"/>
      <point x="337" y="-7"/>
      <point x="328" y="-1"/>
      <point x="318" y="-0" type="curve"/>
    </contour>
    <contour>
      <point x="467" y="712" type="curve" smooth="yes"/>
      <point x="514" y="712"/>
      <point x="557" y="702"/>
      <point x="596" y="683" type="curve" smooth="yes"/>
      <point x="635" y="664"/>
      <point x="669" y="638"/>
      <point x="696" y="605" type="curve"/>
      <point x="565" y="485" type="line"/>
      <point x="535" y="523"/>
      <point x="494" y="542"/>
      <point x="444" y="542" type="curve" smooth="yes"/>
      <point x="394" y="542"/>
      <point x="348" y="523"/>
      <point x="307" y="485" type="curve" smooth="yes"/>
      <point x="266" y="447"/>
      <point x="241" y="403"/>
      <point x="234" y="350" type="curve" smooth="yes"/>
      <point x="227" y="297"/>
      <point x="239" y="252"/>
      <point x="269" y="214" type="curve" smooth="yes"/>
      <point x="299" y="176"/>
      <point x="340" y="158"/>
      <point x="390" y="158" type="curve" smooth="yes"/>
      <point x="440" y="158"/>
      <point x="485" y="177"/>
      <point x="526" y="214" type="curve"/>
      <point x="623" y="94" type="line"/>
      <point x="587" y="61"/>
      <point x="546" y="35"/>
      <point x="502" y="16" type="curve" smooth="yes"/>
      <point x="458" y="-3"/>
      <point x="413" y="-12"/>
      <point x="366" y="-12" type="curve" smooth="yes"/>
      <point x="268" y="-12"/>
      <point x="191" y="24"/>
      <point x="134" y="97" type="curve" smooth="yes"/>
      <point x="80" y="167"/>
      <point x="59" y="252"/>
      <point x="73" y="350" type="curve" smooth="yes"/>
      <point x="87" y="448"/>
      <point x="131" y="532"/>
      <point x="205" y="602" type="curve" smooth="yes"/>
      <point x="283" y="675"/>
      <point x="370" y="712"/>
    </contour>
  </outline>
</glyph>
<glyph name="Eacute" format="2">
  <advance width="556"/>
  <unicode hex="00C9"/>
  <outline>
    <contour>
      <point x="57" y="0" type="line"/>
      <point x="155" y="700" type="line"/>
      <point x="607" y="700" type="line"/>
      <point x="583" y="530" type="line"/>
      <point x="293" y="530" type="line"/>
      <point x="280" y="435" type="line"/>
      <point x="503" y="435" type="line"/>
      <point x="479" y="266" type="line"/>
      <point x="256" y="266" type="line"/>
      <point x="242" y="170" type="line"/>
      <point x="533" y="170" type="line"/>
      <point x="509" y="0" type="line"/>
    </contour>
    <contour>
      <point x="300" y="750" type="line"/>
      <point x="422" y="898" type="line"/>
      <point x="608" y="898" type="line"/>
      <point x="467" y="750" type="line"/>
    </contour>
  </outline>
</glyph>
<glyph name="Ecircumflex" format="2">
  <advance width="556"/>
  <unicode hex="00CA"/>
  <outline>
    <contour>
      <point x="179" y="754" type="line"/>
      <point x="324" y="900" type="line"/>
      <point x="482" y="900" type="line"/>
      <point x="585" y="754" type="line"/>
      <point x="429" y="754" type="line"/>
      <point x="390" y="806" type="line"/>
      <point x="336" y="754" type="line"/>
    </contour>
    <contour>
      <point x="57" y="0" type="line"/>
      <point x="155" y="700" type="line"/>
      <point x="607" y="700" type="line"/>
      <point x="583" y="530" type="line"/>
      <point x="293" y="530" type="line"/>
      <point x="280" y="435" type="line"/>
      <point x="503" y="435" type="line"/>
      <point x="479" y="266" type="line"/>
      <point x="256" y="266" type="line"/>
      <point x="242" y="170" type="line"/>
      <point x="533" y="170" type="line"/>
      <point x="509" y="0" type="line"/>
    </contour>
  </outline>
</glyph>
<glyph name="Edieresis" format="2">
  <advance width="592"/>
  <unicode hex="00CB"/>
  <outline>
    <contour>
      <point x="312" y="945" type="curve" smooth="yes"/>
      <point x="336" y="945"/>
      <point x="355" y="936"/>
      <point x="370" y="919" type="curve" smooth="yes"/>
      <point x="385" y="902"/>
      <point x="390" y="881"/>
      <point x="386" y="857" type="curve" smooth="yes"/>
      <point x="382" y="833"/>
      <point x="370" y="812"/>
      <point x="350" y="795" type="curve" smooth="yes"/>
      <point x="330" y="778"/>
      <point x="308" y="769"/>
      <point x="284" y="769" type="curve" smooth="yes"/>
      <point x="260" y="769"/>
      <point x="241" y="778"/>
      <point x="226" y="795" type="curve" smooth="yes"/>
      <point x="211" y="812"/>
      <point x="206" y="833"/>
      <point x="210" y="857" type="curve" smooth="yes"/>
      <point x="214" y="881"/>
      <point x="226" y="902"/>
      <point x="246" y="919" type="curve" smooth="yes"/>
      <point x="266" y="936"/>
      <point x="288" y="945"/>
    </contour>
    <contour>
      <point x="582" y="945" type="curve" smooth="yes"/>
      <point x="606" y="945"/>
      <point x="625" y="936"/>
      <point x="640" y="919" type="curve" smooth="yes"/>
      <point x="655" y="902"/>
      <point x="660" y="881"/>
      <point x="656" y="857" type="curve" smooth="yes"/>
      <point x="652" y="833"/>
      <point x="640" y="812"/>
      <point x="620" y="795" type="curve" smooth="yes"/>
      <point x="600" y="778"/>
      <point x="578" y="769"/>
      <point x="554" y="769" type="curve" smooth="yes"/>
      <point x="530" y="769"/>
      <point x="511" y="778"/>
      <point x="496" y="795" type="curve" smooth="yes"/>
      <point x="481" y="812"/>
      <point x="476" y="833"/>
      <point x="480" y="857" type="curve" smooth="yes"/>
      <point x="484" y="881"/>
      <point x="496" y="902"/>
      <point x="516" y="919" type="curve" smooth="yes"/>
      <point x="536" y="936"/>
      <point x="558" y="945"/>
    </contour>
    <contour>
      <point x="63" y="0" type="line"/>
      <point x="174" y="700" type="line"/>
      <point x="649" y="700" type="line"/>
      <point x="622" y="530" type="line"/>
      <point x="317" y="530" type="line"/>
      <point x="302" y="435" type="line"/>
      <point x="537" y="435" type="line"/>
      <point x="510" y="266" type="line"/>
      <point x="275" y="266" type="line"/>
      <point x="260" y="170" type="line"/>
      <point x="566" y="170" type="line"/>
      <point x="539" y="0" type="line"/>
    </contour>
  </outline>
</glyph>
<glyph name="Icircumflex" format="2">
  <advance width="275"/>
  <unicode hex="00CE"/>
  <outline>
    <contour>
      <point x="47" y="754" type="line"/>
      <point x="191" y="900" type="line"/>
      <point x="350" y="900" type="line"/>
      <point x="453" y="754" type="line"/>
      <point x="296" y="754" type="line"/>
      <point x="257" y="806" type="line"/>
      <point x="203" y="754" type="line"/>
    </contour>
    <contour>
      <point x="57" y="0" type="line"/>
      <point x="155" y="700" type="line"/>
      <point x="317" y="700" type="line"/>
      <point x="218" y="0" type="line"/>
    </contour>
  </outline>
</glyph>
<glyph name="Ntilde" format="2">
  <advance width="719"/>
  <unicode hex="00D1"/>
  <outline>
    <contour>
      <point x="543.587" y="714" type="curve" smooth="yes"/>
      <point x="502.254" y="714"/>
      <point x="474.154" y="726"/>
      <point x="459.288" y="750" type="curve" smooth="yes"/>
      <point x="453.434" y="759.333"/>
      <point x="447.754" y="767.667"/>
      <point x="442.248" y="775" type="curve" smooth="yes"/>
      <point x="436.742" y="782.333"/>
      <point x="428.323" y="786"/>
      <point x="416.99" y="786" type="curve" smooth="yes"/>
      <point x="402.323" y="786"/>
      <point x="389.932" y="773"/>
      <point x="379.813" y="747" type="curve"/>
      <point x="262.813" y="747" type="line"/>
      <point x="272.132" y="789"/>
      <point x="292.956" y="823.667"/>
      <point x="325.285" y="851" type="curve" smooth="yes"/>
      <point x="357.614" y="878.333"/>
      <point x="391.779" y="892"/>
      <point x="427.779" y="892" type="curve" smooth="yes"/>
      <point x="472.446" y="892"/>
      <point x="503.211" y="880"/>
      <point x="520.077" y="856" type="curve" smooth="yes"/>
      <point x="526.599" y="846.667"/>
      <point x="532.279" y="838.333"/>
      <point x="537.117" y="831" type="curve" smooth="yes"/>
      <point x="541.956" y="823.667"/>
      <point x="549.375" y="820"/>
      <point x="559.375" y="820" type="curve" smooth="yes"/>
      <point x="573.375" y="820"/>
      <point x="584.102" y="833"/>
      <point x="591.552" y="859" type="curve"/>
      <point x="708.552" y="859" type="line"/>
      <point x="697.128" y="816.333"/>
      <point x="676.11" y="781.5"/>
      <point x="645.501" y="754.5" type="curve" smooth="yes"/>
      <point x="614.892" y="727.5"/>
      <point x="580.92" y="714"/>
    </contour>
    <contour>
      <point x="173.869" y="700" type="line"/>
      <point x="343.869" y="700" type="line"/>
      <point x="535.258" y="311" type="line"/>
      <point x="596.869" y="700" type="line"/>
      <point x="766.869" y="700" type="line"/>
      <point x="656" y="0" type="line"/>
      <point x="486" y="0" type="line"/>
      <point x="294.611" y="389" type="line"/>
      <point x="233" y="0" type="line"/>
      <point x="63" y="0" type="line"/>
    </contour>
  </outline>
</glyph>
<glyph name="Otilde" format="2">
  <advance width="735"/>
  <unicode hex="00D5"/>
  <outline>
    <contour>
      <point x="560" y="734" type="curve" smooth="yes"/>
      <point x="521" y="734"/>
      <point x="493" y="746"/>
      <point x="479" y="770" type="curve" smooth="yes"/>
      <point x="473" y="779"/>
      <point x="468" y="788"/>
      <point x="463" y="795" type="curve" smooth="yes"/>
      <point x="458" y="802"/>
      <point x="450" y="806"/>
      <point x="439" y="806" type="curve" smooth="yes"/>
      <point x="425" y="806"/>
      <point x="413" y="793"/>
      <point x="404" y="767" type="curve"/>
      <point x="293" y="767" type="line"/>
      <point x="301" y="809"/>
      <point x="321" y="844"/>
      <point x="351" y="871" type="curve" smooth="yes"/>
      <point x="381" y="898"/>
      <point x="414" y="912"/>
      <point x="448" y="912" type="curve" smooth="yes"/>
      <point x="490" y="912"/>
      <point x="520" y="900"/>
      <point x="536" y="876" type="curve" smooth="yes"/>
      <point x="542" y="867"/>
      <point x="547" y="858"/>
      <point x="552" y="851" type="curve" smooth="yes"/>
      <point x="557" y="844"/>
      <point x="564" y="840"/>
      <point x="574" y="840" type="curve" smooth="yes"/>
      <point x="587" y="840"/>
      <point x="597" y="853"/>
      <point x="604" y="879" type="curve"/>
      <point x="715" y="879" type="line"/>
      <point x="705" y="836"/>
      <point x="685" y="801"/>
      <point x="656" y="774" type="curve" smooth="yes"/>
      <point x="627" y="747"/>
      <point x="595" y="734"/>
    </contour>
    <contour>
      <point x="444" y="542" type="curve" smooth="yes"/>
      <point x="394" y="542"/>
      <point x="348" y="523"/>
      <point x="307" y="485" type="curve" smooth="yes"/>
      <point x="266" y="447"/>
      <point x="241" y="403"/>
      <point x="234" y="350" type="curve" smooth="yes"/>
      <point x="227" y="297"/>
      <point x="239" y="252"/>
      <point x="269" y="214" type="curve" smooth="yes"/>
      <point x="299" y="176"/>
      <point x="340" y="158"/>
      <point x="390" y="158" type="curve" smooth="yes"/>
      <point x="440" y="158"/>
      <point x="486" y="176"/>
      <point x="527" y="214" type="curve" smooth="yes"/>
      <point x="568" y="252"/>
      <point x="592" y="297"/>
      <point x="599" y="350" type="curve" smooth="yes"/>
      <point x="606" y="403"/>
      <point x="595" y="447"/>
      <point x="565" y="485" type="curve" smooth="yes"/>
      <point x="535" y="523"/>
      <point x="494" y="542"/>
    </contour>
    <contour>
      <point x="468" y="712" type="curve" smooth="yes"/>
      <point x="562" y="712"/>
      <point x="638" y="677"/>
      <point x="695" y="608" type="curve" smooth="yes"/>
      <point x="753" y="537"/>
      <point x="775" y="452"/>
      <point x="761" y="350" type="curve" smooth="yes"/>
      <point x="747" y="247"/>
      <point x="699" y="159"/>
      <point x="619" y="88" type="curve" smooth="yes"/>
      <point x="543" y="21"/>
      <point x="459" y="-12"/>
      <point x="366" y="-12" type="curve" smooth="yes"/>
      <point x="269" y="-12"/>
      <point x="192" y="23"/>
      <point x="135" y="95" type="curve" smooth="yes"/>
      <point x="79" y="165"/>
      <point x="59" y="251"/>
      <point x="73" y="350" type="curve" smooth="yes"/>
      <point x="87" y="449"/>
      <point x="131" y="534"/>
      <point x="207" y="604" type="curve" smooth="yes"/>
      <point x="284" y="676"/>
      <point x="372" y="712"/>
    </contour>
  </outline>
</glyph>
<glyph name="Odieresis" format="2">
  <advance width="735"/>
  <unicode hex="00D6"/>
  <outline>
    <contour>
      <point x="382" y="945" type="curve" smooth="yes"/>
      <point x="405" y="945"/>
      <point x="423" y="936"/>
      <point x="437" y="919" type="curve" smooth="yes"/>
      <point x="451" y="902"/>
      <point x="456" y="881"/>
      <point x="453" y="857" type="curve" smooth="yes"/>
      <point x="450" y="833"/>
      <point x="439" y="812"/>
      <point x="420" y="795" type="curve" smooth="yes"/>
      <point x="401" y="778"/>
      <point x="380" y="769"/>
      <point x="357" y="769" type="curve" smooth="yes"/>
      <point x="334" y="769"/>
      <point x="316" y="778"/>
      <point x="302" y="795" type="curve" smooth="yes"/>
      <point x="288" y="812"/>
      <point x="283" y="833"/>
      <point x="286" y="857" type="curve" smooth="yes"/>
      <point x="289" y="881"/>
      <point x="301" y="902"/>
      <point x="320" y="919" type="curve" smooth="yes"/>
      <point x="339" y="936"/>
      <point x="359" y="945"/>
    </contour>
    <contour>
      <point x="639" y="945" type="curve" smooth="yes"/>
      <point x="662" y="945"/>
      <point x="680" y="936"/>
      <point x="694" y="919" type="curve" smooth="yes"/>
      <point x="708" y="902"/>
      <point x="713" y="881"/>
      <point x="710" y="857" type="curve" smooth="yes"/>
      <point x="707" y="833"/>
      <point x="696" y="812"/>
      <point x="677" y="795" type="curve" smooth="yes"/>
      <point x="658" y="778"/>
      <point x="637" y="769"/>
      <point x="614" y="769" type="curve" smooth="yes"/>
      <point x="591" y="769"/>
      <point x="573" y="778"/>
      <point x="559" y="795" type="curve" smooth="yes"/>
      <point x="545" y="812"/>
      <point x="540" y="833"/>
      <point x="543" y="857" type="curve" smooth="yes"/>
      <point x="546" y="881"/>
      <point x="557" y="902"/>
      <point x="576" y="919" type="curve" smooth="yes"/>
      <point x="595" y="936"/>
      <point x="616" y="945"/>
    </contour>
    <contour>
      <point x="444" y="542" type="curve" smooth="yes"/>
      <point x="394" y="542"/>
      <point x="348" y="523"/>
      <point x="307" y="485" type="curve" smooth="yes"/>
      <point x="266" y="447"/>
      <point x="241" y="403"/>
      <point x="234" y="350" type="curve" smooth="yes"/>
      <point x="227" y="297"/>
      <point x="239" y="252"/>
      <point x="269" y="214" type="curve" smooth="yes"/>
      <point x="299" y="176"/>
      <point x="340" y="158"/>
      <point x="390" y="158" type="curve" smooth="yes"/>
      <point x="440" y="158"/>
      <point x="486" y="176"/>
      <point x="527" y="214" type="curve" smooth="yes"/>
      <point x="568" y="252"/>
      <point x="592" y="297"/>
      <point x="599" y="350" type="curve" smooth="yes"/>
      <point x="606" y="403"/>
      <point x="595" y="447"/>
      <point x="565" y="485" type="curve" smooth="yes"/>
      <point x="535" y="523"/>
      <point x="494" y="542"/>
    </contour>
    <contour>
      <point x="468" y="712" type="curve" smooth="yes"/>
      <point x="562" y="712"/>
      <point x="638" y="677"/>
      <point x="695" y="608" type="curve" smooth="yes"/>
      <point x="753" y="537"/>
      <point x="775" y="452"/>
      <point x="761" y="350" type="curve" smooth="yes"/>
      <point x="747" y="247"/>
      <point x="699" y="159"/>
      <point x="619" y="88" type="curve" smooth="yes"/>
      <point x="543" y="21"/>
      <point x="459" y="-12"/>
      <point x="366" y="-12" type="curve" smooth="yes"/>
      <point x="269" y="-12"/>
      <point x="192" y="23"/>
      <point x="135" y="95" type="curve" smooth="yes"/>
      <point x="79" y="165"/>
      <point x="59" y="251"/>
      <point x="73" y="350" type="curve" smooth="yes"/>
      <point x="87" y="449"/>
      <point x="131" y="534"/>
      <point x="207" y="604" type="curve" smooth="yes"/>
      <point x="284" y="676"/>
      <point x="372" y="712"/>
    </contour>
  </outline>
</glyph>
<glyph name="multiply" format="2">
  <advance width="646"/>
  <unicode hex="00D7"/>
  <outline>
    <contour>
      <point x="223" y="67" type="line"/>
      <point x="122" y="188" type="line"/>
      <point x="250" y="298" type="line"/>
      <point x="157" y="408" type="line"/>
      <point x="296" y="529" type="line"/>
      <point x="389" y="418" type="line"/>
      <point x="517" y="529" type="line"/>
      <point x="618" y="408" type="line"/>
      <point x="490" y="298" type="line"/>
      <point x="583" y="188" type="line"/>
      <point x="444" y="67" type="line"/>
      <point x="351" y="178" type="line"/>
    </contour>
  </outline>
</glyph>
<glyph name="Ugrave" format="2">
  <advance width="665"/>
  <unicode hex="00D9"/>
  <outline>
    <contour>
      <point x="365" y="754" type="line"/>
      <point x="266" y="901" type="line"/>
      <point x="452" y="901" type="line"/>
      <point x="533" y="754" type="line"/>
    </contour>
    <contour>
      <point x="146" y="700" type="line"/>
      <point x="307" y="700" type="line"/>
      <point x="254" y="318" type="line" smooth="yes"/>
      <point x="247" y="269"/>
      <point x="253" y="231"/>
      <point x="273" y="202" type="curve" smooth="yes"/>
      <point x="293" y="173"/>
      <point x="320" y="158"/>
      <point x="355" y="158" type="curve" smooth="yes"/>
      <point x="390" y="158"/>
      <point x="421" y="173"/>
      <point x="449" y="202" type="curve" smooth="yes"/>
      <point x="477" y="231"/>
      <point x="494" y="269"/>
      <point x="501" y="318" type="curve" smooth="yes"/>
      <point x="554" y="700" type="line"/>
      <point x="716" y="700" type="line"/>
      <point x="662" y="318" type="line" smooth="yes"/>
      <point x="649" y="222"/>
      <point x="610" y="143"/>
      <point x="546" y="81" type="curve" smooth="yes"/>
      <point x="482" y="19"/>
      <point x="411" y="-12"/>
      <point x="331" y="-12" type="curve" smooth="yes"/>
      <point x="251" y="-12"/>
      <point x="188" y="19"/>
      <point x="142" y="81" type="curve" smooth="yes"/>
      <point x="96" y="143"/>
      <point x="79" y="222"/>
      <point x="92" y="318" type="curve" smooth="yes"/>
    </contour>
  </outline>
</glyph>
<glyph name="Uacute" format="2">
  <advance width="706"/>
  <unicode hex="00DA"/>
  <outline>
    <contour>
      <point x="381" y="724" type="line"/>
      <point x="510" y="870" type="line"/>
      <point x="706" y="870" type="line"/>
      <point x="557" y="724" type="line"/>
    </contour>
    <contour>
      <point x="164" y="700" type="line"/>
      <point x="334" y="700" type="line"/>
      <point x="273" y="318" type="line" smooth="yes"/>
      <point x="265" y="269"/>
      <point x="272" y="231"/>
      <point x="292" y="202" type="curve" smooth="yes"/>
      <point x="312" y="173"/>
      <point x="341" y="158"/>
      <point x="378" y="158" type="curve" smooth="yes"/>
      <point x="415" y="158"/>
      <point x="447" y="173"/>
      <point x="477" y="202" type="curve" smooth="yes"/>
      <point x="507" y="231"/>
      <point x="525" y="269"/>
      <point x="533" y="318" type="curve" smooth="yes"/>
      <point x="594" y="700" type="line"/>
      <point x="764" y="700" type="line"/>
      <point x="703" y="318" type="line" smooth="yes"/>
      <point x="688" y="222"/>
      <point x="647" y="143"/>
      <point x="579" y="81" type="curve" smooth="yes"/>
      <point x="511" y="19"/>
      <point x="435" y="-12"/>
      <point x="351" y="-12" type="curve" smooth="yes"/>
      <point x="267" y="-12"/>
      <point x="201" y="19"/>
      <point x="153" y="81" type="curve" smooth="yes"/>
      <point x="105" y="143"/>
      <point x="88" y="222"/>
      <point x="103" y="318" type="curve" smooth="yes"/>
    </contour>
  </outline>
</glyph>
